<svg width="40" height="40" viewBox="0 0 40 40" fill="none" xmlns="http://www.w3.org/2000/svg">
<g clip-path="url(#clip0_66_1741)">
<path d="M18.1815 15.4528V17.271H16.3633V19.9983H18.1815V28.1801H21.8178V19.9983H24.236L24.5451 17.271H21.8178V15.6801C21.8178 14.9438 21.8905 14.5528 23.0269 14.5528H24.5451V11.8164H22.1088C19.1997 11.8165 18.1815 13.1801 18.1815 15.4528Z" fill="white"/>
<path d="M20 0C8.9543 0 0 8.9543 0 20C0 31.0457 8.9543 40 20 40C31.0457 40 40 31.0457 40 20C40 8.9543 31.0457 0 20 0ZM20 38.1818C9.95844 38.1818 1.8182 30.0416 1.8182 20C1.8182 9.95844 9.95844 1.8182 20 1.8182C30.0416 1.8182 38.1818 9.95844 38.1818 20C38.1818 30.0416 30.0416 38.1818 20 38.1818Z" fill="white"/>
</g>
<defs>
<clipPath id="clip0_66_1741">
<rect width="40" height="40" fill="white"/>
</clipPath>
</defs>
</svg>
