<svg width="40" height="40" viewBox="0 0 40 40" fill="none" xmlns="http://www.w3.org/2000/svg">
<g clip-path="url(#clip0_66_1747)">
<path d="M20 0C8.9543 0 0 8.9543 0 20C0 31.0457 8.9543 40 20 40C31.0457 40 40 31.0457 40 20C40 8.9543 31.0457 0 20 0ZM20 38.1818C9.95844 38.1818 1.8182 30.0416 1.8182 20C1.8182 9.95844 9.95844 1.8182 20 1.8182C30.0416 1.8182 38.1818 9.95844 38.1818 20C38.1818 30.0416 30.0416 38.1818 20 38.1818Z" fill="white"/>
<path d="M25.4555 10.9102H14.5465C12.5382 10.9102 10.9102 12.5382 10.9102 14.5465V25.4555C10.9102 27.4638 12.5382 29.0919 14.5465 29.0919H25.4555C27.4638 29.0919 29.0919 27.4638 29.0919 25.4555V14.5466C29.092 12.5382 27.4639 10.9102 25.4555 10.9102ZM23.6373 13.6374H26.3646V16.3647H23.6373V13.6374ZM20.001 16.3648C22.0093 16.3648 23.6373 17.9928 23.6373 20.0011C23.6373 22.0094 22.0093 23.6374 20.001 23.6374C17.9927 23.6374 16.3647 22.0094 16.3647 20.0011C16.3647 17.9928 17.9927 16.3648 20.001 16.3648ZM27.2738 25.4556C27.2738 26.4598 26.4597 27.2738 25.4555 27.2738H14.5465C13.5423 27.2738 12.7283 26.4598 12.7283 25.4556V19.092H14.6373C14.0914 22.0545 16.0504 24.8987 19.013 25.4448C21.9755 25.9908 24.8198 24.0317 25.3658 21.0691C25.4307 20.717 25.4608 20.3592 25.4555 20.0011C25.451 19.696 25.4206 19.392 25.3646 19.092H27.2737V25.4556H27.2738Z" fill="white"/>
</g>
<defs>
<clipPath id="clip0_66_1747">
<rect width="40" height="40" fill="white"/>
</clipPath>
</defs>
</svg>
