<svg xmlns="http://www.w3.org/2000/svg" viewBox="0 0 500 372.61"><defs><style>.cls-1{fill:#ebebeb;}.cls-2{fill:#e6e6e6;}.cls-3{fill:#f0f0f0;}.cls-4{fill:#fafafa;}.cls-10,.cls-11,.cls-5{fill:#fff;}.cls-6,.cls-7{fill:#e0e0e0;}.cls-12,.cls-6{opacity:0.5;}.cls-8{fill:#f5f5f5;}.cls-9{fill:#407bff;}.cls-10{opacity:0.9;}.cls-11,.cls-16{opacity:0.3;}.cls-13{opacity:0.2;}.cls-14{fill:#ffb573;}.cls-15{fill:#263238;}.cls-17{fill:#ed893e;}</style></defs><title>Asset 1</title><g id="Layer_2" data-name="Layer 2"><g id="Background_Complete" data-name="Background Complete"><rect class="cls-1" y="327.45" width="500" height="0.25"/><rect class="cls-1" x="416.78" y="343.54" width="33.12" height="0.25"/><rect class="cls-1" x="322.53" y="346.26" width="8.69" height="0.25"/><rect class="cls-1" x="396.59" y="334.26" width="19.19" height="0.25"/><rect class="cls-1" x="52.46" y="335.94" width="43.19" height="0.25"/><rect class="cls-1" x="104.56" y="335.94" width="6.33" height="0.25"/><rect class="cls-1" x="131.47" y="340.16" width="93.68" height="0.25"/><path class="cls-1" d="M237,282.85H43.91a5.71,5.71,0,0,1-5.7-5.71V5.71A5.71,5.71,0,0,1,43.91,0H237a5.71,5.71,0,0,1,5.71,5.71V277.14A5.71,5.71,0,0,1,237,282.85ZM43.91.25a5.46,5.46,0,0,0-5.45,5.46V277.14a5.46,5.46,0,0,0,5.45,5.46H237a5.47,5.47,0,0,0,5.46-5.46V5.71A5.47,5.47,0,0,0,237,.25Z"/><path class="cls-1" d="M453.31,282.85H260.21a5.72,5.72,0,0,1-5.71-5.71V5.71A5.72,5.72,0,0,1,260.21,0h193.1A5.71,5.71,0,0,1,459,5.71V277.14A5.71,5.71,0,0,1,453.31,282.85ZM260.21.25a5.47,5.47,0,0,0-5.46,5.46V277.14a5.47,5.47,0,0,0,5.46,5.46h193.1a5.47,5.47,0,0,0,5.46-5.46V5.71A5.47,5.47,0,0,0,453.31.25Z"/><rect class="cls-2" x="228.15" y="24.82" width="194.79" height="171.1"/><rect class="cls-3" x="230.53" y="24.82" width="197.5" height="171.1"/><rect class="cls-2" x="228.15" y="195.92" width="194.79" height="4.72"/><rect class="cls-3" x="238.99" y="195.92" width="197.5" height="4.72"/><rect class="cls-4" x="250.84" y="18.74" width="156.88" height="183.27" transform="translate(439.65 -218.9) rotate(90)"/><polygon class="cls-5" points="262.17 188.81 282.38 31.94 317.37 31.94 297.15 188.81 262.17 188.81"/><polygon class="cls-5" points="304.66 188.81 324.88 31.94 338.52 31.94 318.3 188.81 304.66 188.81"/><rect class="cls-2" x="342.02" y="109.92" width="156.88" height="0.9" transform="translate(530.83 -310.09) rotate(90)"/><polygon class="cls-6" points="429.7 46.89 234.91 46.89 234.26 34.7 429.05 34.7 429.7 46.89"/><polygon class="cls-6" points="429.7 66.92 234.91 66.92 234.26 54.73 429.05 54.73 429.7 66.92"/><polygon class="cls-6" points="429.7 86.95 234.91 86.95 234.26 74.76 429.05 74.76 429.7 86.95"/><polygon class="cls-6" points="429.7 106.98 234.91 106.98 234.26 94.8 429.05 94.8 429.7 106.98"/><polygon class="cls-6" points="429.7 127.02 234.91 127.02 234.26 114.83 429.05 114.83 429.7 127.02"/><polygon class="cls-6" points="429.7 147.05 234.91 147.05 234.26 134.86 429.05 134.86 429.7 147.05"/><rect class="cls-7" x="58.65" y="60.76" width="60.85" height="120.31"/><rect class="cls-8" x="61.06" y="60.76" width="62.05" height="120.31"/><rect class="cls-5" x="38.89" y="95.09" width="106.39" height="51.65" transform="translate(-28.83 213.01) rotate(-90)"/><rect class="cls-7" x="139.89" y="42.4" width="60.85" height="120.31"/><rect class="cls-8" x="142.3" y="42.4" width="62.05" height="120.31"/><rect class="cls-5" x="120.13" y="76.73" width="106.39" height="51.66" transform="translate(70.77 275.88) rotate(-90)"/><rect class="cls-2" x="164.32" y="216.57" width="25.61" height="110.88"/><polygon class="cls-3" points="185.07 327.45 189.93 327.45 189.93 316.15 179.97 316.15 185.07 327.45"/><rect class="cls-2" x="68.59" y="216.57" width="25.61" height="110.88"/><rect class="cls-3" x="89.95" y="216.57" width="99.98" height="103.95"/><rect class="cls-2" x="122.41" y="242.65" width="82.92" height="44.58" transform="translate(-101.08 428.81) rotate(-90)"/><rect class="cls-2" x="74.56" y="242.65" width="82.92" height="44.58" transform="translate(-148.92 380.96) rotate(-90)"/><path class="cls-3" d="M120.43,226.64h-8.82a15.61,15.61,0,0,1-10.13-3.55h29.08A15.61,15.61,0,0,1,120.43,226.64Z"/><path class="cls-3" d="M168.73,226.64h-8.82a15.59,15.59,0,0,1-10.13-3.55h29.08A15.61,15.61,0,0,1,168.73,226.64Z"/><polygon class="cls-3" points="94.82 327.45 89.95 327.45 89.95 316.15 99.92 316.15 94.82 327.45"/><path class="cls-2" d="M113.42,206s.76,10.58,29.91,10.58S173.24,206,173.24,206Z"/><rect class="cls-1" x="228.33" y="235.09" width="218.82" height="18.32" transform="translate(675.47 488.51) rotate(180)"/><rect class="cls-7" x="228.33" y="235.09" width="62.11" height="18.32" transform="translate(518.77 488.51) rotate(180)"/><rect class="cls-1" x="434.05" y="253.42" width="13.1" height="74.03" transform="translate(881.2 580.86) rotate(180)"/><polygon class="cls-7" points="434.05 258.55 447.15 255.98 447.15 253.42 434.05 253.42 434.05 258.55"/><rect class="cls-7" x="228.33" y="253.42" width="13.1" height="74.03" transform="translate(469.75 580.86) rotate(180)"/><rect class="cls-1" x="277.34" y="253.42" width="13.1" height="74.03" transform="translate(567.78 580.86) rotate(180)"/><polygon class="cls-7" points="277.34 258.55 290.44 255.98 290.44 253.42 277.34 253.42 277.34 258.55"/><rect class="cls-7" x="393.04" y="253.42" width="13.1" height="74.03" transform="translate(799.18 580.86) rotate(180)"/></g><g id="Background_Simple" data-name="Background Simple"><path class="cls-9" d="M407.54,40.92A97.68,97.68,0,0,0,399.29,33c-25.11-21.28-65.1-33.41-99-22.86-20.19,6.28-33.49,23.76-50.71,35.41-21.66,14.64-50,19.65-75.52,25.17-34.43,7.47-66.32,17.2-86.5,45.46-16.77,23.49-21.74,54.37-6.94,78.95,14.08,23.38,36.31,43.35,60.37,58.19,20.7,12.77,42.25,16.77,64.81,3.38,14.74-8.74,25.72-21.76,37-34.1,12.74-13.95,29-31.28,49.2-35.54,19.22-4.06,39.86,3.25,59.28,2.1,32.09-1.91,61.28-23.58,73.44-51C439.14,105.66,431.7,66.87,407.54,40.92Z"/><path class="cls-10" d="M407.54,40.92A97.68,97.68,0,0,0,399.29,33c-25.11-21.28-65.1-33.41-99-22.86-20.19,6.28-33.49,23.76-50.71,35.41-21.66,14.64-50,19.65-75.52,25.17-34.43,7.47-66.32,17.2-86.5,45.46-16.77,23.49-21.74,54.37-6.94,78.95,14.08,23.38,36.31,43.35,60.37,58.19,20.7,12.77,42.25,16.77,64.81,3.38,14.74-8.74,25.72-21.76,37-34.1,12.74-13.95,29-31.28,49.2-35.54,19.22-4.06,39.86,3.25,59.28,2.1,32.09-1.91,61.28-23.58,73.44-51C439.14,105.66,431.7,66.87,407.54,40.92Z"/></g><g id="Shadow"><ellipse id="_Path_" data-name="&lt;Path&gt;" class="cls-8" cx="250" cy="361.29" rx="193.89" ry="11.32"/></g><g id="Smartphone"><path class="cls-9" d="M232.51,74.38H113.22A13.62,13.62,0,0,0,99.5,89.09l17.1,254.39a16,16,0,0,0,15.7,14.71H251.59a13.61,13.61,0,0,0,13.71-14.71L248.2,89.09A16,16,0,0,0,232.51,74.38Z"/><path class="cls-11" d="M232.51,74.38H113.22A13.62,13.62,0,0,0,99.5,89.09l17.1,254.39a16,16,0,0,0,15.7,14.71H251.59a13.61,13.61,0,0,0,13.71-14.71L248.2,89.09A16,16,0,0,0,232.51,74.38Z"/><rect class="cls-9" x="99.47" y="128.88" width="1" height="24.05" transform="translate(-9.22 7.02) rotate(-3.84)"/><rect class="cls-9" x="101.49" y="165.53" width="1" height="10.78" transform="translate(-11.24 7.23) rotate(-3.85)"/><path class="cls-9" d="M125.26,346a4,4,0,0,1-7.76,1.66,15.13,15.13,0,0,1-.9-4.2L99.5,89.09a14.31,14.31,0,0,1,.34-4.27,4,4,0,0,1,7.91.65Z"/><path class="cls-5" d="M251.59,353.37H140.76a11.23,11.23,0,0,1-10.89-10.21L112.77,88.77a8.79,8.79,0,0,1,8.91-9.57H232.51A11.23,11.23,0,0,1,243.4,89.41l17.1,254.4a8.8,8.8,0,0,1-8.91,9.56ZM121.68,80.27a7.73,7.73,0,0,0-7.84,8.42l17.1,254.4a10.13,10.13,0,0,0,9.82,9.21H251.59a7.73,7.73,0,0,0,7.84-8.42l-17.1-254.4a10.13,10.13,0,0,0-9.82-9.21Z"/><g class="cls-12"><ellipse class="cls-9" cx="187.81" cy="160.47" rx="44.54" ry="49.79" transform="translate(-57.83 186.65) rotate(-46.6)"/><ellipse class="cls-5" cx="187.81" cy="160.47" rx="35.63" ry="39.83" transform="translate(-57.83 186.65) rotate(-46.6)"/><ellipse class="cls-9" cx="187.81" cy="160.47" rx="26.72" ry="29.87" transform="translate(-57.83 186.65) rotate(-46.59)"/><ellipse class="cls-5" cx="187.81" cy="160.47" rx="17.82" ry="19.92" transform="translate(-57.83 186.65) rotate(-46.6)"/><ellipse class="cls-9" cx="187.81" cy="160.47" rx="8.91" ry="9.96" transform="translate(-57.83 186.64) rotate(-46.59)"/></g><path class="cls-5" d="M196.89,224.56l-.53,0a16.49,16.49,0,0,0-14.42-8.89,14.49,14.49,0,0,0-4.51.7,16.92,16.92,0,0,0-14.64-8.82,14.35,14.35,0,0,0-14.55,14.19,11.19,11.19,0,0,0-10.5,12.13,13.21,13.21,0,0,0,13,12.17h47.62a9.92,9.92,0,0,0,10-10.75A11.67,11.67,0,0,0,196.89,224.56Z"/><path class="cls-5" d="M227.22,108.21l-.41,0a12.84,12.84,0,0,0-11.24-6.93,11.58,11.58,0,0,0-3.52.54A13.2,13.2,0,0,0,200.64,95,11.18,11.18,0,0,0,189.3,106a8.74,8.74,0,0,0-8.19,9.45A10.31,10.31,0,0,0,191.24,125h37.12a7.73,7.73,0,0,0,7.81-8.38A9.1,9.1,0,0,0,227.22,108.21Z"/><path class="cls-11" d="M242,263.91H173.44a3.56,3.56,0,0,0-3.59,3.85l2.78,40.89a4.18,4.18,0,0,0,4.11,3.85h9.2l.77,11.3,10.53-11.3h48a3.55,3.55,0,0,0,3.59-3.85l-2.77-40.89A4.19,4.19,0,0,0,242,263.91Z"/><polygon class="cls-5" points="241.47 290.79 177.61 290.79 177.26 285.62 241.13 285.62 241.47 290.79"/><polygon class="cls-5" points="222 301.53 178.34 301.53 177.99 296.36 221.65 296.36 222 301.53"/><polygon class="cls-5" points="240.75 280.05 176.88 280.05 176.53 274.88 240.4 274.88 240.75 280.05"/></g><g id="Character"><path class="cls-9" d="M295.64,91.06l2.63,1.9c.91.64,1.83,1.27,2.76,1.88,1.85,1.24,3.71,2.47,5.59,3.59s3.78,2.18,5.66,3.12a41.79,41.79,0,0,0,5.46,2.26,3.46,3.46,0,0,0-1.27,0,2.83,2.83,0,0,0-.73.2c-.29.15-.2.16-.05.08a7.77,7.77,0,0,0,1.55-1.42,39.05,39.05,0,0,0,3.56-5c1.17-1.84,2.29-3.8,3.36-5.79s2.14-4.06,3.13-6l.07-.13A4.5,4.5,0,0,1,335.7,89a96.88,96.88,0,0,1-5.15,13.93,48.06,48.06,0,0,1-3.95,7,20.53,20.53,0,0,1-3.29,3.71,11.32,11.32,0,0,1-3.05,1.9,9.84,9.84,0,0,1-2.44.64,8.88,8.88,0,0,1-3-.16,50.88,50.88,0,0,1-7.82-2.51,71.33,71.33,0,0,1-6.94-3.27q-3.33-1.77-6.49-3.73c-1.05-.66-2.09-1.33-3.12-2s-2-1.37-3.13-2.2A7,7,0,0,1,295.49,91Z"/><path class="cls-13" d="M295.64,91.06l2.63,1.9c.91.64,1.83,1.27,2.76,1.88,1.85,1.24,3.71,2.47,5.59,3.59s3.78,2.18,5.66,3.12a41.79,41.79,0,0,0,5.46,2.26,3.46,3.46,0,0,0-1.27,0,2.83,2.83,0,0,0-.73.2c-.29.15-.2.16-.05.08a7.77,7.77,0,0,0,1.55-1.42,39.05,39.05,0,0,0,3.56-5c1.17-1.84,2.29-3.8,3.36-5.79s2.14-4.06,3.13-6l.07-.13A4.5,4.5,0,0,1,335.7,89a96.88,96.88,0,0,1-5.15,13.93,48.06,48.06,0,0,1-3.95,7,20.53,20.53,0,0,1-3.29,3.71,11.32,11.32,0,0,1-3.05,1.9,9.84,9.84,0,0,1-2.44.64,8.88,8.88,0,0,1-3-.16,50.88,50.88,0,0,1-7.82-2.51,71.33,71.33,0,0,1-6.94-3.27q-3.33-1.77-6.49-3.73c-1.05-.66-2.09-1.33-3.12-2s-2-1.37-3.13-2.2A7,7,0,0,1,295.49,91Z"/><path class="cls-14" d="M329.81,83.94l2.71-4.59,5.2,5.62a6.91,6.91,0,0,1-3.78,3.55,2.58,2.58,0,0,1-2.27-.3l-1-.65A2.69,2.69,0,0,1,329.81,83.94Z"/><path class="cls-14" d="M339.89,76.63l1.15.71a2.72,2.72,0,0,1,.37,4.35L337.72,85l-5.2-5.62,4.53-2.74A2.71,2.71,0,0,1,339.89,76.63Z"/><polygon class="cls-14" points="232.02 353.16 239.94 353.4 242.92 335.06 235.01 334.83 232.02 353.16"/><path class="cls-15" d="M241.19,351.17l-8.85-1.12a.57.57,0,0,0-.65.46l-1.31,6.95a1.4,1.4,0,0,0,1.2,1.57c3.09.34,4.58.34,8.47.83,2.39.3,8.62,1.81,11.93,1.4s2.81-3.66,1.37-3.79c-6.45-.55-8.87-3.62-10.87-5.65A2.25,2.25,0,0,0,241.19,351.17Z"/><polygon class="cls-13" points="235 334.83 242.92 335.07 241.38 344.52 233.46 344.29 235 334.83"/><path class="cls-15" d="M278.29,159s-6.91,65.58-11.51,87.87c-5,24.4-21.17,95.77-21.17,95.77l-14.49-1.07s7.94-73.84,14.44-97.74c0-24.81,6-94.38,6-94.38Z"/><path class="cls-16" d="M255.2,181.22c-.13-5.13-2.91-6.79-5.65-6.72-1,12.34-2.07,27.47-2.88,41.11C251.53,207.74,255.56,195.47,255.2,181.22Z"/><polygon class="cls-5" points="230.69 341.73 246.21 342.88 247.99 337.03 230.12 336.85 230.69 341.73"/><polygon class="cls-14" points="151.71 291.7 156.7 297.87 171.63 287.1 166.63 280.94 151.71 291.7"/><path class="cls-15" d="M157.78,297.88l-4.44-7.73a.57.57,0,0,0-.76-.24L146.25,293a1.41,1.41,0,0,0-.53,1.91c1.59,2.67,2.49,3.86,4.44,7.26,1.2,2.09,4.36,8.09,6,11s4.47,1.17,4-.21c-2-6.15-2.57-10.86-2.16-13.68A2.22,2.22,0,0,0,157.78,297.88Z"/><polygon class="cls-13" points="166.63 280.94 171.63 287.1 163.93 292.65 158.93 286.48 166.63 280.94"/><path class="cls-15" d="M263.84,153.41s-19.49,55.78-28.35,76.73c-9.69,23-67.64,63.72-67.64,63.72l-9.15-11.3s39.38-39.46,54-58.18c8.1-25.49,25.39-80.18,25.39-80.18Z"/><polygon class="cls-5" points="158.33 282.11 168.22 294.31 173.05 291.52 161.47 278.59 158.33 282.11"/><path class="cls-3" d="M278.21,159.42,238.05,144.2c1-3.67,6.25-14.46,10.92-29.46a202.64,202.64,0,0,0,7.68-34v0a2.49,2.49,0,0,1,2.91-2.16c.75.14,1.64.3,2.62.5,2.53.51,5.69,1.23,8.7,2.14a157.63,157.63,0,0,1,17,6.07,51.8,51.8,0,0,1,5.41,2.83,15.24,15.24,0,0,1,2.87,2.12,3.08,3.08,0,0,1,1.11,2.06C297.27,100,291.52,122.29,278.21,159.42Z"/><path class="cls-14" d="M287.08,86.91c-4.52-2.93-4.3-6.29-2.77-9.53A22.74,22.74,0,0,1,285.6,75l-4.35-7.35-3.2-5.39c-.7,5.92-2.84,16.39-7.84,18.72a22,22,0,0,0,11.13,8.2C288.72,91.52,287.08,86.91,287.08,86.91Z"/><polygon class="cls-7" points="281.06 89.11 280.99 87.22 275.99 88.21 281.06 89.11"/><polygon class="cls-7" points="281.06 89.11 281.99 87.58 285.22 91.51 281.06 89.11"/><path class="cls-5" d="M270.89,80.13A47.19,47.19,0,0,0,281,87.22c-2,1.23-3.9,4.48-4.62,7.16-1.62-1.13-8.1-11.79-9-14.72Z"/><path class="cls-5" d="M286.14,85.78a8.11,8.11,0,0,1-4.16,1.8c1.07,1.57,2,5.64,2,8,1.87-1.22,4.76-5.48,5.22-7.42Z"/><path class="cls-16" d="M286.3,85.64s4.37,2.1,8.23,4.48a8.57,8.57,0,0,1,3.76,9.59c-4.77,16.85-11.21,33.23-13.88,42.34-2.83,9.7-6.77,21.89-6.77,21.89l-6.81,1.6S287.9,100.25,286.3,85.64Z"/><path class="cls-16" d="M270.79,79.37s-5.87-.77-11-1a7.81,7.81,0,0,0-7.94,5.88c-2.6,10.28-4.52,29.94-7.15,37.6-3.29,9.56-7.71,28.23-7.71,28.23l23.26,13.44S283.76,91.29,270.79,79.37Z"/><path class="cls-9" d="M270.79,79.37s-5.87-.77-11-1a7.81,7.81,0,0,0-7.94,5.88c-2.6,10.28-6.14,29.49-8.78,37.15-3.29,9.55-10.27,25.8-10.27,25.8L262.16,161S283.76,91.29,270.79,79.37Z"/><path class="cls-13" d="M270.79,79.37s-5.87-.77-11-1a7.81,7.81,0,0,0-7.94,5.88c-2.6,10.28-6.14,29.49-8.78,37.15-3.29,9.55-10.27,25.8-10.27,25.8L262.16,161S283.76,91.29,270.79,79.37Z"/><path class="cls-9" d="M286.3,85.64s4.37,2.1,8.23,4.48a8.57,8.57,0,0,1,3.76,9.59c-4.77,16.85-8.54,34.53-10.44,43.83-2,9.9-4.09,18.91-4.09,18.91l-11,1.48S287.9,100.25,286.3,85.64Z"/><path class="cls-13" d="M286.3,85.64s4.37,2.1,8.23,4.48a8.57,8.57,0,0,1,3.76,9.59c-4.77,16.85-8.54,34.53-10.44,43.83-2,9.9-4.09,18.91-4.09,18.91l-11,1.48S287.9,100.25,286.3,85.64Z"/><path class="cls-13" d="M285.6,75a22.74,22.74,0,0,0-1.29,2.36c-2.14-1.29-4.34-4.85-3.82-7.32a11.05,11.05,0,0,1,.76-2.39Z"/><path class="cls-15" d="M291.77,44.73c5.32.69,7.27,7.87,4.33,12.61C291.28,50.34,291.77,44.73,291.77,44.73Z"/><path class="cls-14" d="M275.21,58c1.8,7.69,2.45,12.27,7.06,15.72a10.26,10.26,0,0,0,16.49-7.64c.5-7.19-2.52-18.55-10.67-20.62A10.39,10.39,0,0,0,275.21,58Z"/><path class="cls-15" d="M277.58,64.81c4.63.14,3.91-7.53,1.89-10.43,6.42,1,17.06-4.67,18.13-10.61,1.55-8.62-11.58-8.61-15.83-5.88,1.83.14,2.76,1.68,2.32,2.49,0,0-6.34-1.92-10.44.31,1.79.65,3.69,3.24-3.12,4.06-6.48.78-4.52,7.29-1.25,7.18-1.74,2.67-3.83,8.74.09,11.32s6.6,5.93,5.75,7.31C276.49,70.52,279.4,68.87,277.58,64.81Z"/><path class="cls-15" d="M270.21,51.33c-3.1.3-4.88,2.72-5,6A23.74,23.74,0,0,1,270.21,51.33Z"/><path class="cls-14" d="M273.36,64.92a7,7,0,0,0,3.8,3.42c2.17.78,3.31-1.13,2.75-3.28-.51-1.93-2.25-4.66-4.45-4.52S272.4,63,273.36,64.92Z"/><path class="cls-15" d="M287.4,58.55c.1.64.53,1.1.94,1.05s.66-.62.56-1.25-.53-1.1-.95-1S287.29,57.92,287.4,58.55Z"/><path class="cls-15" d="M294.57,57.59c.1.63.52,1.1.94,1s.66-.62.56-1.25-.53-1.1-.95-1S294.46,57,294.57,57.59Z"/><path class="cls-17" d="M292.34,58.21a24.17,24.17,0,0,0,3.94,5c-.94,1.19-2.93,1-2.93,1Z"/><path class="cls-15" d="M291.05,66.23a5.54,5.54,0,0,1-4-1.59.19.19,0,0,1,0-.26.19.19,0,0,1,.27,0,5.26,5.26,0,0,0,4.43,1.41A.18.18,0,0,1,292,66a.18.18,0,0,1-.16.21Z"/><path class="cls-15" d="M289.05,68.3a5.45,5.45,0,0,1-2.18-3.72.19.19,0,0,1,.37,0,5.32,5.32,0,0,0,2.62,3.84.2.2,0,0,1,.07.26.19.19,0,0,1-.26.07A5.6,5.6,0,0,1,289.05,68.3Z"/><path class="cls-15" d="M284.79,56.55a.37.37,0,0,1-.18,0,.37.37,0,0,1-.16-.51,3.59,3.59,0,0,1,2.78-1.94.38.38,0,1,1,0,.75,2.9,2.9,0,0,0-2.17,1.55A.37.37,0,0,1,284.79,56.55Z"/><path class="cls-15" d="M297.23,54.73a.38.38,0,0,1-.31-.16,3.1,3.1,0,0,0-2.4-1.4.38.38,0,0,1-.38-.38.39.39,0,0,1,.37-.38h0a3.89,3.89,0,0,1,3,1.72.38.38,0,0,1-.09.53A.4.4,0,0,1,297.23,54.73Z"/><path class="cls-9" d="M261.94,91.31c-2,1.63-4.11,3.43-6.12,5.21s-4.06,3.59-6,5.45A117.1,117.1,0,0,0,239,113.43l-1.14,1.48-.14.19s.06-.09.08-.14a2.17,2.17,0,0,0,.15-.35A1.9,1.9,0,0,0,238,114c0-.34-.06-.34,0-.18a3.12,3.12,0,0,0,.26.88,14.14,14.14,0,0,0,1.5,2.69c.65,1,1.41,1.94,2.22,2.92,1.61,2,3.41,3.91,5.3,5.8s3.89,3.8,5.8,5.55l.13.11a4.49,4.49,0,0,1-5.47,7.09,90.11,90.11,0,0,1-14-11c-1.09-1.09-2.16-2.23-3.21-3.5a27.68,27.68,0,0,1-3-4.38,16.83,16.83,0,0,1-1.27-3,11.23,11.23,0,0,1-.46-4.33,9.82,9.82,0,0,1,.62-2.67,9.53,9.53,0,0,1,.61-1.29l.36-.59.16-.24,1.3-1.93a108.8,108.8,0,0,1,11.53-13.59c2-2.08,4.1-4.12,6.23-6.07s4.24-3.85,6.59-5.78A7,7,0,0,1,262,91.27Z"/><path class="cls-13" d="M261.94,91.31c-2,1.63-4.11,3.43-6.12,5.21s-4.06,3.59-6,5.45A117.1,117.1,0,0,0,239,113.43l-1.14,1.48-.14.19s.06-.09.08-.14a2.17,2.17,0,0,0,.15-.35A1.9,1.9,0,0,0,238,114c0-.34-.06-.34,0-.18a3.12,3.12,0,0,0,.26.88,14.14,14.14,0,0,0,1.5,2.69c.65,1,1.41,1.94,2.22,2.92,1.61,2,3.41,3.91,5.3,5.8s3.89,3.8,5.8,5.55l.13.11a4.49,4.49,0,0,1-5.47,7.09,90.11,90.11,0,0,1-14-11c-1.09-1.09-2.16-2.23-3.21-3.5a27.68,27.68,0,0,1-3-4.38,16.83,16.83,0,0,1-1.27-3,11.23,11.23,0,0,1-.46-4.33,9.82,9.82,0,0,1,.62-2.67,9.53,9.53,0,0,1,.61-1.29l.36-.59.16-.24,1.3-1.93a108.8,108.8,0,0,1,11.53-13.59c2-2.08,4.1-4.12,6.23-6.07s4.24-3.85,6.59-5.78A7,7,0,0,1,262,91.27Z"/><path class="cls-14" d="M254.67,133.28l6.8,4.16-8.69,4.95s-5.78-4.31-3.31-7.11l2.9-1.95A2.15,2.15,0,0,1,254.67,133.28Z"/><path class="cls-14" d="M261.84,145l-3.74,2.21a2.25,2.25,0,0,1-3.12-.84l-2.2-4,8.69-4.95,1.4,5A2.26,2.26,0,0,1,261.84,145Z"/></g><g id="Megaphone"><path class="cls-9" d="M326.89,74.42l9.21-1.8c-2.53,4.46,1.19,8.72,4.53,11.4,1.59,1.29.47,3.57-2,4l-6,1.18C325.39,90.67,326.89,74.42,326.89,74.42Z"/><path class="cls-9" d="M323.23,75.14,344.35,71a12.72,12.72,0,0,0,10-14.9h0a12.74,12.74,0,0,0-14.9-10l-21.11,4.14a12.74,12.74,0,0,0-10,14.9h0A12.74,12.74,0,0,0,323.23,75.14Z"/><path class="cls-11" d="M323.23,75.14,344.35,71a12.72,12.72,0,0,0,10-14.9h0a12.74,12.74,0,0,0-14.9-10l-21.11,4.14a12.74,12.74,0,0,0-10,14.9h0A12.74,12.74,0,0,0,323.23,75.14Z"/><path class="cls-9" d="M380.71,79.45l-36-.48c-3.12.61-11-39.79-7.92-40.4l33.14-14Z"/><path class="cls-9" d="M372.45,52.55c3,15.17,6.67,27.21,8.26,26.9s.47-12.86-2.51-28-6.67-27.21-8.26-26.89S369.48,37.39,372.45,52.55Z"/><path class="cls-16" d="M372.45,52.55c3,15.17,6.67,27.21,8.26,26.9s.47-12.86-2.51-28-6.67-27.21-8.26-26.89S369.48,37.39,372.45,52.55Z"/><path class="cls-9" d="M386,50.68c-.73-3.7-9-5.21-10.75-4.86s-2.6,3.63-1.88,7.34,2.75,6.43,4.51,6.08S386.7,54.39,386,50.68Z"/><rect class="cls-9" x="394.63" y="44.86" width="47.45" height="1.07" transform="translate(-1.88 67.38) rotate(-9.19)"/><rect class="cls-9" x="387.77" y="28.91" width="25.24" height="1.07" transform="translate(76.6 266.79) rotate(-40.45)"/><rect class="cls-9" x="421.95" y="69.49" width="1.07" height="7.47" transform="translate(212.83 447.26) rotate(-70.56)"/><rect class="cls-9" x="401.82" y="56.88" width="1.07" height="18.8" transform="translate(211.59 426.68) rotate(-71.46)"/></g></g></svg>