<svg xmlns="http://www.w3.org/2000/svg" version="1.1" xmlns:xlink="http://www.w3.org/1999/xlink" xmlns:svgjs="http://svgjs.com/svgjs" width="512" height="512" x="0" y="0" viewBox="0 0 502 502.001" style="enable-background:new 0 0 512 512" xml:space="preserve" >

<path d="M175.793 118h.055c24.851-.016 44.988-20.172 44.972-45.027-.015-24.852-20.172-44.989-45.027-44.973h-.02c-24.851.008-44.992 20.156-44.988 45.012.004 24.851 20.156 44.996 45.008 44.988zm.02-74h.015c16.016-.004 29.004 12.977 29.008 28.992.004 16.016-12.977 29.004-28.992 29.008h-.031c-.008 0-.012-.148-.02-.145-15.906-.101-28.75-13.027-28.746-28.937.004-15.91 12.86-28.828 28.766-28.918zM280.39 89h.614c24.578-.164 44.367-20.223 44.2-44.8C325.038 19.624 304.98-.165 280.401 0h-.02c-24.573.004-44.495 19.93-44.495 44.504.004 24.578 19.93 44.5 44.504 44.496zm.036-73h.011a28.773 28.773 0 0 1 20.36 8.414 28.766 28.766 0 0 1 8.43 20.356 28.09 28.09 0 0 1-8.27 20.042A28.089 28.089 0 0 1 280.883 73h-.48c-15.739-.004-28.493-12.77-28.489-28.508.004-15.742 12.77-28.496 28.508-28.492zm0 0" fill="#000000" data-original="#000000" />
<path d="M7.656 224h96.348v21.074A8.17 8.17 0 0 0 112.27 253h127.082a7.636 7.636 0 0 0 5.511-2.336 7.639 7.639 0 0 0 2.14-5.59V224h97.349a7.367 7.367 0 0 0 5.476-2.137 7.364 7.364 0 0 0 2.176-5.46v-58.641a61.448 61.448 0 0 0-17.953-43.727A61.445 61.445 0 0 0 290.35 96h-18.843a62.907 62.907 0 0 0-56.75 35.79 61.945 61.945 0 0 0-29.469-7.79h-18.867a62.067 62.067 0 0 0-29.402 7.742A62.474 62.474 0 0 0 80.504 96h-18.7a61.438 61.438 0 0 0-43.722 17.914A61.439 61.439 0 0 0 .004 157.57v58.832a7.364 7.364 0 0 0 2.176 5.461A7.367 7.367 0 0 0 7.656 224zm263.852-112h18.765a45.44 45.44 0 0 1 45.73 45.75V208h-89v-21.566a61.682 61.682 0 0 0-17.956-43.977c-.402-.402-.727-.535-1.137-.922 7.145-17.82 24.403-29.508 43.598-29.535zm-105.074 28h18.84a45.47 45.47 0 0 1 32.44 13.66 45.994 45.994 0 0 1 13.29 32.762V237h-111v-50.746c.152-25.55 20.879-46.195 46.43-46.254zm-150.43 17.586A45.444 45.444 0 0 1 61.82 112h18.664c19.07-.004 36.196 11.684 43.133 29.45a61.351 61.351 0 0 0-19.613 44.726V208h-88zM71.18 89h.023c24.652 0 44.328-19.406 44.8-44.45v.016C115.946 19.88 95.872-.082 71.18 0h-.02C46.438-.004 26.39 20.031 26.39 44.754A44.35 44.35 0 0 0 71.18 89zM50.812 24.344A28.528 28.528 0 0 1 71.203 16h.016a28.527 28.527 0 0 1 20.347 8.324 28.02 28.02 0 0 1 8.438 20.055C99.66 60.579 87.024 73 71.204 73h-.02a28.604 28.604 0 0 1-20.329-8.297 28.592 28.592 0 0 1-8.46-20.258 27.998 27.998 0 0 1 8.417-20.101zM268.14 331.25a7.897 7.897 0 0 0-5.656-2.25h-.007l-44.512-.043a7.958 7.958 0 0 0-7.988 7.938l-.141 71.167c-.035 18.68-15.129 33.833-33.809 33.938h-.043c-18.62-.102-33.648-15.25-33.601-33.871l.082-39.906c.027-.282.039-.563.039-.844 0-.238-.016-.484-.035-.723l.054-29.633a8 8 0 0 0-2.332-5.671 8.006 8.006 0 0 0-5.668-2.352h-.02l-44.507.133a7.98 7.98 0 0 0-7.953 7.984l-.04 30.356v.02l-.1 40.652A93.662 93.662 0 0 0 175.71 502h.293c51.926 0 94.262-42.355 94.379-94.285l.05-36.996a7.167 7.167 0 0 0 0-1.637l.047-32.219a7.852 7.852 0 0 0-2.34-5.613zm-13.667 13.566-.024 17.13-28.523.054.035-17.148zm-127.965.211-.028 14.368-28.507.054.03-14.34zM175.96 486h-.242a77.683 77.683 0 0 1-77.844-77.871l.066-32.7 28.508-.042-.066 32.633c-.106 27.5 22.101 49.878 49.601 49.98h.063c27.496-.137 49.73-22.438 49.789-49.938l.059-29.98 28.53-.102-.042 29.723c-.16 43.223-35.196 78.203-78.422 78.297zM109.273 312c4.442-.086 8-3.71 8-8.156l.082-27.852a7.964 7.964 0 0 0-7.972-7.992h-.028a7.896 7.896 0 0 0-5.632 2.262 7.898 7.898 0 0 0-2.368 5.593l-.085 28c-.024 4.442 3.535 8.079 7.976 8.145zm0 0" fill="#000000" data-original="#000000" />
<path d="m144.371 326.836 19.7-19.7c3.124-3.124 3.124-8.187 0-11.312s-8.192-3.125-11.313 0l-19.703 19.7a8.004 8.004 0 0 0 0 11.312 8.002 8.002 0 0 0 11.316 0zM90.316 321.742c3.125-3.12 3.125-8.187 0-11.312l-19.699-19.7a7.996 7.996 0 0 0-11.25.063 8 8 0 0 0-.062 11.25l19.699 19.7a7.997 7.997 0 0 0 11.312 0zM241.91 311a7.827 7.827 0 0 0 8-7.773l.047-27.567a7.709 7.709 0 0 0-7.988-7.66h-.016a7.794 7.794 0 0 0-8 7.738l-.043 27.586a7.71 7.71 0 0 0 7.988 7.676zM294.844 304.441a8.004 8.004 0 0 0-.063-11.25 8.004 8.004 0 0 0-11.25-.062L263.79 312.87a8.002 8.002 0 1 0 11.316 11.317zM217.883 323.922a8 8 0 0 0 5.656-13.656l-19.7-19.7a7.998 7.998 0 0 0-11.28.036 8 8 0 0 0-.036 11.277l19.704 19.7a7.955 7.955 0 0 0 5.656 2.343zm0 0" fill="#000000" data-original="#000000" />

</svg>