<svg width="40" height="40" viewBox="0 0 40 40" fill="none" xmlns="http://www.w3.org/2000/svg">
<g clip-path="url(#clip0_66_1759)">
<path d="M14.5448 16.363C15.5489 16.363 16.363 15.5489 16.363 14.5448C16.363 13.5406 15.5489 12.7266 14.5448 12.7266C13.5406 12.7266 12.7266 13.5406 12.7266 14.5448C12.7266 15.5489 13.5406 16.363 14.5448 16.363Z" fill="white"/>
<path d="M16.3629 17.2734H12.7266V27.2734H16.3629V17.2734Z" fill="white"/>
<path d="M20 0C8.9543 0 0 8.9543 0 20C0 31.0457 8.9543 40 20 40C31.0457 40 40 31.0457 40 20C40 8.9543 31.0457 0 20 0ZM20 38.1818C9.95844 38.1818 1.8182 30.0416 1.8182 20C1.8182 9.95844 9.95844 1.8182 20 1.8182C30.0416 1.8182 38.1818 9.95844 38.1818 20C38.1818 30.0416 30.0416 38.1818 20 38.1818Z" fill="white"/>
<path d="M24.8745 17.2734C22.1472 17.2734 21.8199 18.8916 21.8199 18.8916V17.2734H18.1836V27.2734H21.8199V21.8189C21.8199 21.8189 21.8199 20.0007 23.3654 20.0007C24.2745 20.0007 24.5472 20.8098 24.5472 21.8189V27.2734H28.1835V21.8189C28.1835 18.9734 26.9472 17.2734 24.8745 17.2734Z" fill="white"/>
</g>
<defs>
<clipPath id="clip0_66_1759">
<rect width="40" height="40" fill="white"/>
</clipPath>
</defs>
</svg>
