<svg xmlns="http://www.w3.org/2000/svg" viewBox="0 0 309.14 299"><defs><style>.cls-1{fill:#fff;}.cls-1,.cls-3{stroke:#293fcc;stroke-miterlimit:10;stroke-width:5px;}.cls-2{fill:#293fcc;}.cls-3{fill:none;}</style></defs><title>Asset 1</title><g id="Layer_2" data-name="Layer 2"><g id="Layer_1-2" data-name="Layer 1"><ellipse class="cls-1" cx="154.57" cy="149.5" rx="152.07" ry="147"/><path class="cls-2" d="M245.57,68V217a8.45,8.45,0,0,1-8.46,8.45h-22.2a8.45,8.45,0,0,1-8.45-8.45V105.61A8.46,8.46,0,0,0,198,97.15h0a8.45,8.45,0,0,1-6.92-13.3l14.46-20.66a8.47,8.47,0,0,1,6.93-3.6h24.64A8.45,8.45,0,0,1,245.57,68Z"/><path class="cls-3" d="M137.74,166.31h1a8.45,8.45,0,0,1,8.45,8.45v28.88a8.45,8.45,0,0,1-8.45,8.45H117.52a8.46,8.46,0,0,1-6.93-13.3l20.22-28.88A8.48,8.48,0,0,1,137.74,166.31Z"/><path class="cls-3" d="M199.79,112.27V217a8.45,8.45,0,0,1-8.46,8.45H162.47A8.45,8.45,0,0,1,154,217v-4.87h-.12V166.31H154V139.44a8.41,8.41,0,0,1,1.53-4.85l19-27.17a8.47,8.47,0,0,1,6.93-3.6h9.83A8.45,8.45,0,0,1,199.79,112.27Z"/><path class="cls-2" d="M190.48,72.89,86.21,221.81a8.45,8.45,0,0,1-6.92,3.6H44a8.46,8.46,0,0,1-6.93-13.3L141.39,63.19a8.47,8.47,0,0,1,6.93-3.6h35.23A8.46,8.46,0,0,1,190.48,72.89Z"/></g></g></svg>