<svg xmlns="http://www.w3.org/2000/svg" viewBox="0 0 1560.29 983.34"><defs><style>.cls-1{fill:#eaeaea;}.cls-2{fill:#fff;}.cls-3{fill:#d5d6da;}.cls-4{fill:#00a3fe;}.cls-5{fill:#016eb9;}.cls-6{fill:#131f2d;}.cls-7{fill:#364154;}.cls-8{fill:#ff7955;}.cls-9{fill:#657285;}.cls-10{fill:#080435;}.cls-11{opacity:0.3;}.cls-12{fill:#020202;}.cls-13{fill:#b05638;}.cls-14{opacity:0.4;}.cls-15{opacity:0.6;}.cls-16{fill:#e9845c;}.cls-17{fill:#daebe8;}</style></defs><title>Asset 1</title><g id="Layer_2" data-name="Layer 2"><g id="_Layer_" data-name="&lt;Layer&gt;"><path class="cls-1" d="M1228.92,659.21c57.33-91.34,141.41-202.82,195.1-172.69,64.69,36.31-53.89,125.43-139.46,208.91C1253.86,725.38,1192.39,717.43,1228.92,659.21Z"/><path class="cls-1" d="M1224.66,772.43s238.8-254.18,321-182.08S1339.34,722.64,1272.7,799Z"/><path class="cls-2" d="M1251.4,787.53c45.07-53.57,112.07-95.83,160.34-121.84,52.33-28.21,94.51-43.92,94.93-44.08l-1-2.62c-.42.16-42.78,15.94-95.28,44.23-48.48,26.14-115.8,68.6-161.15,122.51Z"/><path class="cls-1" d="M276,117c-6.31,9.83-11.31,10.75-15.17,8.27s-5.1-7.41,1.22-17.24c11.51-17.91,24-22.08,24-22.08S287.69,98.87,276,117Z"/><path class="cls-1" d="M309.78,184.81c-2.79,11.35-7.23,13.84-11.68,12.74s-7.22-5.36-4.42-16.7c5.09-20.67,15.6-28.68,15.6-28.68S315,163.84,309.78,184.81Z"/><path class="cls-1" d="M394.68,362.71l-2.05.82c-.13-.31-13.11-32.08-46-71.59-30.36-36.45-84.37-87.13-169.3-121.57l.83-2.05C263.55,203,317.86,253.93,348.38,290.6,381.48,330.36,394.55,362.39,394.68,362.71Z"/><path class="cls-1" d="M270.46,219.36l-2.21-.22c8.08-79.91-52.31-141.38-52.93-142l1.57-1.56C217.51,76.21,278.64,138.39,270.46,219.36Z"/><path class="cls-1" d="M224.53,202.4a78.33,78.33,0,0,1-40.5,7.76l.27-2.19c.26,0,26.17,3,47.9-12.85l1.3,1.79A65.68,65.68,0,0,1,224.53,202.4Z"/><path class="cls-1" d="M170.43,160c15.21,4.13,18.76,8.94,17.56,13.36s-6.69,6.78-21.9,2.65c-27.7-7.52-38.92-19.16-38.92-19.16S142.33,152.41,170.43,160Z"/><path class="cls-1" d="M186.09,201.1c15.75-.65,20.58,2.87,20.77,7.44s-4.34,8.48-20.09,9.13c-28.68,1.19-42.88-6.53-42.88-6.53S157,202.3,186.09,201.1Z"/><path class="cls-1" d="M228.79,160.75c7.52,8.94,6.91,14,3.4,16.94s-8.58,2.68-16.1-6.27c-13.7-16.29-14-29.5-14-29.5S214.89,144.22,228.79,160.75Z"/><path class="cls-1" d="M217,65.49c10.2,12,10.4,18,6.91,21s-9.35,1.8-19.55-10.21C185.77,54.35,183.11,38.4,183.11,38.4S198.15,43.29,217,65.49Z"/><path class="cls-3" d="M433,730.87S281.09,422.59,199,467,346.54,651,387.92,742.12Z"/><path class="cls-1" d="M354.93,683.8S142.28,414.5,55.61,478.24s191.1,147.08,250,227.55Z"/><path class="cls-2" d="M327.44,696.35C287.79,640,225.67,593,180.55,563.39c-48.92-32.06-88.93-51-89.33-51.21l1.17-2.49c.4.19,40.59,19.23,89.67,51.4,45.32,29.7,107.73,77,147.63,133.67Z"/><path class="cls-3" d="M377.13,837.18c-34.58-.66-75,0-116.32,1.09a57.74,57.74,0,0,1-6.94-12.47c-25.91-26.72-21.4-22.74-79.63-12.4-41.77,7.4-46.67-29.39-64.4-56-.32-.49-.65-1-1-1.45-6.84-9.86-15.63-18.15-29-22a170.86,170.86,0,0,1-41.32-18c-1.05-.64-2.09-1.29-3.12-2C10.31,697.69-6.62,675.31,2.5,652.16c.22-.55.44-1.1.69-1.64A48.83,48.83,0,0,1,10.58,639c33.73-40,67.93-25.78,107.4-19.62,21.82,3.41,53-24.36,83.54-37.57l1.32-.55c24.28-10.15,48.12-10.69,66.58,21.32h0l1.12,1.93c41.24,70.48,61.65,45.11,119.72,58.17,10.8,2.43,20.53,5.13,26.95,10.87C477.09,727.09,436.89,801.16,377.13,837.18Z"/><path class="cls-2" d="M382.13,768.38l2.08-2.68C383,764.78,263,673.88,2.65,650.47l-.3,3.38C261.68,677.18,381,767.47,382.13,768.38Z"/><path class="cls-2" d="M226.61,656.92c36.45-28.66,44.13-52.83,44.44-53.84l-3.24-1c-.08.24-7.78,24.24-43.3,52.17Z"/><path class="cls-2" d="M218.23,693c10.79-16.39,11.51-41,2.07-71.14a226.07,226.07,0,0,0-17.55-40.78l-2.93,1.69c.41.71,40.39,70.69,15.58,108.36Z"/><path class="cls-2" d="M150,682.59c4.32-3.16,6.68-5.24,6.79-5.33l-2.27-2.53c-.49.45-50.24,44.18-118.93,37.53l-.32,3.38C90.63,721,133.91,694.33,150,682.59Z"/><path class="cls-2" d="M111,758.57c16.87-16.48,22.52-33.7,24.28-45.23,1.93-12.56-.16-21.14-.25-21.5l-3.29.82c.08.33,7.78,33.31-23.11,63.49Z"/><path class="cls-3" d="M28.52,577.48C17.74,573,16,568.2,17.74,564s6.41-6.31,17.19-1.79C54.56,570.41,60.85,582,60.85,582S48.44,585.83,28.52,577.48Z"/><polygon class="cls-4" points="948.93 722.86 369.88 722.86 157.68 296.78 223.38 242.63 709.76 242.63 948.93 722.86"/><polygon class="cls-5" points="650.88 270.37 236.97 269.45 466.92 723.75 876.6 722.7 650.88 270.37"/><path class="cls-6" d="M837.53,658.46a1,1,0,0,1-.9-.56L650.26,271.37,237,270.44a1,1,0,0,1,0-2h0l413.91.92a1,1,0,0,1,.9.57L838.42,657a1,1,0,0,1-.46,1.33A1,1,0,0,1,837.53,658.46Z"/><path class="cls-6" d="M650.88,271.37a1,1,0,0,1-.42-1.9l58.87-27.74a1,1,0,0,1,1.32.47,1,1,0,0,1-.47,1.33l-58.87,27.74A1,1,0,0,1,650.88,271.37Z"/><path class="cls-6" d="M460.63,712a1,1,0,0,1-.89-.54L222.49,243.08a1,1,0,1,1,1.78-.9L461.52,710.55a1,1,0,0,1-.44,1.34A1,1,0,0,1,460.63,712Z"/><ellipse class="cls-1" cx="833.81" cy="877.89" rx="704.77" ry="105.45"/><rect class="cls-5" x="696.25" y="722.86" width="757.44" height="121.59"/><rect class="cls-4" x="369.88" y="722.86" width="757.44" height="121.59"/><path class="cls-3" d="M1075.69,453.34,944.31,496.6s-7.57-25.88-51.75-15.11c0,0-108.62-48.09-144,57.6,0,0-27.93-8.26-38.85,8.06,0,0-19.33-42.32-72.79-26.61,0,0-36.34-31.54-79.35-23.94s-86.3,49.28-83.07,109.34c0,0-51.89-.33-49.81,31.75l42.89,85,920.57.13s12.3-34.24-15.93-44.75c0,0,1.72-82.31-90.75-87,0,0-34.21-85.64-105.09-80.59s-85.31,30.91-85.31,30.91-7.41-29.66-32.24-27.65c0,0,26.44-45.77,28.84-53.27S1088.09,449.8,1075.69,453.34Z"/><path class="cls-7" d="M1340.45,294.9l-65,81.9L1354,439.12a16.21,16.21,0,0,0,22.77-2.62l7.89-9.95a16.21,16.21,0,0,0,2.34-16.13Z"/><path class="cls-4" d="M1265.86,391.76l-195.2-154.87,91.1-114.81a183,183,0,0,1,190.92-63l5,1.33a23.84,23.84,0,0,1,14.8,11.74h0A190.8,190.8,0,0,1,1353.76,281Z"/><path class="cls-5" d="M1310.34,135.25c-39-31-77.16-52.15-99.13-56.5a183,183,0,0,1,141.47-19.64l5,1.33a23.84,23.84,0,0,1,14.8,11.74,190.88,190.88,0,0,1,14.63,145C1377,196.68,1348.27,165.35,1310.34,135.25Z"/><ellipse class="cls-6" cx="1167.51" cy="315.28" rx="30.18" ry="124.58" transform="translate(194.88 1033.94) rotate(-51.57)"/><path class="cls-5" d="M1134.3,438.89s3.65-18.76,39.33-50.67,9.06-94.26-38.91-82.62c-30.88,7.49-44.64,36.1-52.27,83.68-3.78,23.52-35,48.89-35,48.89s26.7,8.13,48.34-1.63c23.45-10.57,33.63-27,33.63-27C1119.21,426,1134.3,438.89,1134.3,438.89Z"/><path class="cls-4" d="M1111.49,393.07s10.92-25.91,15.25-42.94,28.19-32,37.78-10.26S1111.49,393.07,1111.49,393.07Z"/><path class="cls-6" d="M1251.23,257.62A53.41,53.41,0,0,1,1209.5,171h0a53.39,53.39,0,1,1,47.94,86.23A54.14,54.14,0,0,1,1251.23,257.62Zm-40.86-85.9a52.29,52.29,0,1,0,73.46-8.47,52.35,52.35,0,0,0-73.46,8.47Z"/><path class="cls-6" d="M1282.52,229a39.65,39.65,0,1,1,7.25-14.35A39.82,39.82,0,0,1,1282.52,229Z"/><path class="cls-7" d="M1289.76,193.84l-73.15-9.1a39.81,39.81,0,0,1,73.15,9.1Z"/><path class="cls-7" d="M1289.77,214.61l-75.31,4.61a40,40,0,0,1-2.87-12.6l79.55-2.41A39.93,39.93,0,0,1,1289.77,214.61Z"/><path class="cls-7" d="M1146.64,141.13l-65,81.9-78.55-62.32a16.2,16.2,0,0,1-2.62-22.76l7.89-9.95a16.21,16.21,0,0,1,15.18-5.94Z"/><path class="cls-6" d="M1303.75,139.21a2.7,2.7,0,1,1,.44,3.79A2.69,2.69,0,0,1,1303.75,139.21Z"/><path class="cls-6" d="M1271,115a2.7,2.7,0,1,1,.44,3.79A2.7,2.7,0,0,1,1271,115Z"/><path class="cls-6" d="M1339.06,169a2.7,2.7,0,1,1,.43,3.79A2.7,2.7,0,0,1,1339.06,169Z"/><path class="cls-6" d="M1234.7,94.78a2.7,2.7,0,1,1,.44,3.8A2.7,2.7,0,0,1,1234.7,94.78Z"/><path class="cls-6" d="M1354.63,189.92a2.7,2.7,0,1,1,.44,3.8A2.71,2.71,0,0,1,1354.63,189.92Z"/><path class="cls-6" d="M1193.21,269.36a2.7,2.7,0,1,1,.43,3.8A2.69,2.69,0,0,1,1193.21,269.36Z"/><path class="cls-6" d="M1160.49,245.13a2.7,2.7,0,1,1,.44,3.8A2.7,2.7,0,0,1,1160.49,245.13Z"/><path class="cls-6" d="M1228.52,299.1a2.7,2.7,0,1,1,.43,3.8A2.69,2.69,0,0,1,1228.52,299.1Z"/><path class="cls-6" d="M1124.16,224.93a2.7,2.7,0,1,1,.44,3.8A2.71,2.71,0,0,1,1124.16,224.93Z"/><path class="cls-6" d="M1244.09,320.08a2.7,2.7,0,1,1,.43,3.79A2.69,2.69,0,0,1,1244.09,320.08Z"/><path class="cls-6" d="M1293.07,357.13a322.32,322.32,0,0,0-59.15-73.38,380.45,380.45,0,0,0-63.81-47.68c-39.76-23.8-71.6-33.45-71.91-33.55l.31-1.06c.32.1,32.29,9.79,72.17,33.66a381.27,381.27,0,0,1,64,47.82A323.41,323.41,0,0,1,1294,356.58Z"/><path class="cls-8" d="M1392.17,679.17c-.5,3-.2,9.17-.65,12.15-.2,1.29-.56,5.72.67,6.21,1.06.43,3-2.79,3.68-4.45,4.47,10.21,13.88,21.92,5.86,1.12h0c.82,1.74,6.42,14.69,8.76,12.81,1.72-1.38-3.19-11.91-4.51-14.79l.07,0c1.58,2.83,5.89,11.59,7.6,10.36,2.25-1.62-3.65-12.75-3.65-12.75s4.68,9.34,6.35,6.54c.94-1.59-2-7-3.87-10.4h0l-1-1.79a5.19,5.19,0,0,0-.68-1,50.45,50.45,0,0,0-6.5-8.44s-3-4.12-7.72-2.08C1393.63,673.92,1392.39,677.88,1392.17,679.17Z"/><path class="cls-8" d="M1207.35,545.66c-.32-3-2.29-8.86-2.67-11.85-.17-1.3-1-5.65-2.33-5.77-1.14-.1-2.09,3.53-2.33,5.33-7.06-8.52-19.29-17-5.94.61l0,0c-1.26-1.43-10.15-12.26-11.9-9.78-1.27,1.82,6.3,10.52,8.35,12.9l0,.06c-2.28-2.26-8.8-9.43-10.11-7.76-1.73,2.2,7,11.19,7,11.19s-7-7.63-7.88-4.45c-.48,1.79,3.82,6.17,6.54,8.87h0c.57.56,1.07,1.05,1.44,1.43a6.05,6.05,0,0,0,.92.76,49.83,49.83,0,0,0,8.54,6.23s4,3.07,8-.23C1207.37,551.12,1207.49,547,1207.35,545.66Z"/><path class="cls-6" d="M1305.72,855.93s.24,6.83-4.41,9-18.36,4.7-12.92,8.79c3.11,2.35,17-.06,20.92-.28s7.74,1.23,10.51-1.48c3-3-1-16.78-1-16.78a16.22,16.22,0,0,1-6.36,2A12.88,12.88,0,0,1,1305.72,855.93Z"/><path class="cls-6" d="M1374.26,831.23s10.12,26.88,8.07,31.7-10.66,16.08-3.95,15.41c3.84-.39,12.63-11.69,15.43-14.55s6.58-4.39,6.89-8.32c.34-4.31-13.08-18.08-13.08-18.08s-1.3-19.6-3.53-17.43C1380.88,823.09,1374.26,831.23,1374.26,831.23Z"/><path class="cls-6" d="M1308.63,530.45s.79-11.77,11.51-10.79,6.92,8.23,8.46,10.56-4.37,7.21-9.58,7S1308.63,530.45,1308.63,530.45Z"/><path class="cls-7" d="M1269.37,686.91c1.93-21.63,46.37,3.41,46.37,3.41s15.56,149.1,6.44,169.77c-1.8,4.08-9.14,3.84-12.57,3.38-24.27-3.29-28.62-77.73-34.22-110.53C1272.58,736.48,1268.21,700,1269.37,686.91Z"/><path class="cls-6" d="M1356,688.51c-1.4,5.3-21.92,10.41-46.2,4.22s-43.18-12.63-41.78-17.92,22.58-7.44,46.85-1.25S1357.44,683.22,1356,688.51Z"/><path class="cls-9" d="M1279.39,604.48a76.69,76.69,0,0,1-11.33-6.8s13.38-21.93,40.38-19.84c3.73.29,20.57,3.65,24.19,4.37,46.35,9.31,23.62,104.25,23.41,106.3-46.58-21.59-88-13.7-88-13.7C1268.54,638.44,1278.61,606.28,1279.39,604.48Z"/><path class="cls-7" d="M1347.63,689.43s-40.72-13.73-74.69-12.43a3,3,0,0,0-3,2.74s-1,12.17-.74,16.22c.46,9,81,7.52,81,7.52Z"/><path class="cls-8" d="M1328,581.26c-4.23,4.54-8.89,5.93-14.92,5.79-9.14-.21-4.67-9.21-4.67-9.21,2.24,0,3.49-1.07,3.73-3.23l.28-2.65.14-1.32.46-4.2.41-3.78,1.67-15.47,3.85,15.88.66,2.7,2.26,9.31a8.6,8.6,0,0,0,6.09,6.17Z"/><path class="cls-6" d="M1319.64,565.77s-2.8,4.52-7.05,4.87l.46-4.2C1315.7,566,1319.64,565.77,1319.64,565.77Z"/><path class="cls-6" d="M1335.94,552.66s-1.64,2.06-2.45,7.43c-1.19,7.85-10.76,7-12,4.11-.15-.36,5.66-12,5.66-12l3.33-.32Z"/><path class="cls-8" d="M1302.88,543.3c4.18-9,13.72-13.57,21.31-10.15s10.36,13.51,6.18,22.54-13.72,13.57-21.31,10.15S1298.7,552.33,1302.88,543.3Z"/><path class="cls-6" d="M1317,534.49c.15.68-5.91,8.11,9.32,17.4s14.27-14,2.55-19.79c-16.94-8.37-24.61,1.66-24.81,6.43S1317,534.49,1317,534.49Z"/><path class="cls-6" d="M1325.77,548.41s3.5,9.69-2,15.52c0,0,5.7-2.31,6.48-3.78a62.26,62.26,0,0,0,2.28-7.36Z"/><path class="cls-8" d="M1327.39,557.32c-2.22.74-4.47-.1-5-1.86s.81-3.78,3-4.51,4.47.1,5,1.86S1329.61,556.59,1327.39,557.32Z"/><path class="cls-10" d="M1315.22,549.05a.3.3,0,0,1-.12-.27.32.32,0,0,1,.35-.31,3.77,3.77,0,0,1,3.64,2.69.33.33,0,0,1-.2.42.38.38,0,0,1-.44-.21,6,6,0,0,0-3-2.24A.32.32,0,0,1,1315.22,549.05Z"/><path class="cls-10" d="M1316.16,553.48a1.12,1.12,0,1,1-.43-1.73A1.27,1.27,0,0,1,1316.16,553.48Z"/><path class="cls-10" d="M1303.33,545.6a.38.38,0,0,1-.22-.21.33.33,0,0,1,.2-.42,3.8,3.8,0,0,1,4.41,1.16.32.32,0,0,1,0,.46.37.37,0,0,1-.48,0,6,6,0,0,0-3.66-1A.41.41,0,0,1,1303.33,545.6Z"/><path class="cls-10" d="M1305.93,549.37c0,.8-.47,1.43-1.07,1.42s-1.07-.65-1.07-1.45.47-1.43,1.07-1.42S1305.93,548.58,1305.93,549.37Z"/><g class="cls-11"><path class="cls-2" d="M1323.27,551.84c-.54,4.44-3.7,8.28-7.06,8.57s-5.64-3.08-5.1-7.52,3.7-8.29,7.05-8.58S1323.81,547.39,1323.27,551.84Z"/></g><g class="cls-11"><path class="cls-2" d="M1308.44,548.07c-1,4.27-4.29,7.85-7.29,8s-4.59-3.19-3.56-7.46,4.29-7.85,7.29-8S1309.47,543.8,1308.44,548.07Z"/></g><path class="cls-6" d="M1323.26,553.63a11.35,11.35,0,0,0,.42-1.72c0-.21.07-.41.09-.61s.07-.69.08-1a7.74,7.74,0,0,0-2-5.75,5,5,0,0,0-4.8-1.29c-2.41.6-4.63,2.77-5.86,5.59a8.23,8.23,0,0,0-.37,1,11.6,11.6,0,0,0-.56,2.43,11.38,11.38,0,0,0,0,2.33,7.23,7.23,0,0,0,1.92,4.44,5.14,5.14,0,0,0,1.46,1l.49.2a4.85,4.85,0,0,0,1.95.22,5.88,5.88,0,0,0,2.09-.57,9.81,9.81,0,0,0,4.25-4.3c.11-.2.22-.4.31-.61A12,12,0,0,0,1323.26,553.63Zm-11.75,3.43a7.8,7.8,0,0,1-.68-2.53,9.72,9.72,0,0,1,0-2.22,11.59,11.59,0,0,1,.48-2.21c.11-.34.24-.67.38-1,1.17-2.75,3.32-4.87,5.65-5.37a5.06,5.06,0,0,1,.68-.1,4.22,4.22,0,0,1,1.71.2,4.12,4.12,0,0,1,1.72,1.07,6.16,6.16,0,0,1,1.5,2.72,8.19,8.19,0,0,1,.25,1.36v.08a.09.09,0,0,1,0,0,6,6,0,0,1,0,.74,9.14,9.14,0,0,1-.06,1.37,10.18,10.18,0,0,1-.28,1.48,9.72,9.72,0,0,1-.29,1,10.28,10.28,0,0,1-.38,1h0a9.53,9.53,0,0,1-4.09,4.6,5.46,5.46,0,0,1-2.15.65,4.31,4.31,0,0,1-2.18-.38,4.15,4.15,0,0,1-1.25-.89,5.5,5.5,0,0,1-1.07-1.54A0,0,0,0,0,1311.51,557.06Z"/><path class="cls-6" d="M1307.88,549.83c.09-.22.17-.44.24-.67l-.22,0a12.67,12.67,0,0,1-1.48,3.32h0l.22-.33a.09.09,0,0,0,0,0,4.37,4.37,0,0,0,.25-.4c.12-.2.25-.41.36-.62s.21-.42.32-.64S1307.79,550,1307.88,549.83Zm0,0c.09-.22.17-.44.24-.67l-.22,0a12.67,12.67,0,0,1-1.48,3.32h0l.22-.33a.09.09,0,0,0,0,0,4.37,4.37,0,0,0,.25-.4c.12-.2.25-.41.36-.62s.21-.42.32-.64S1307.79,550,1307.88,549.83Zm0,0c.09-.22.17-.44.24-.67l-.22,0a12.67,12.67,0,0,1-1.48,3.32h0l.22-.33a.09.09,0,0,0,0,0,4.37,4.37,0,0,0,.25-.4c.12-.2.25-.41.36-.62s.21-.42.32-.64S1307.79,550,1307.88,549.83Zm0,0c.09-.22.17-.44.24-.67l-.22,0a12.67,12.67,0,0,1-1.48,3.32h0l.22-.33a.09.09,0,0,0,0,0,4.37,4.37,0,0,0,.25-.4c.12-.2.25-.41.36-.62s.21-.42.32-.64S1307.79,550,1307.88,549.83Zm0,0c.09-.22.17-.44.24-.67l-.22,0a12.67,12.67,0,0,1-1.48,3.32h0l.22-.33a.09.09,0,0,0,0,0,4.37,4.37,0,0,0,.25-.4c.12-.2.25-.41.36-.62s.21-.42.32-.64S1307.79,550,1307.88,549.83Zm0,0c.09-.22.17-.44.24-.67l-.22,0a12.67,12.67,0,0,1-1.48,3.32h0l.22-.33a.09.09,0,0,0,0,0,4.37,4.37,0,0,0,.25-.4c.12-.2.25-.41.36-.62s.21-.42.32-.64S1307.79,550,1307.88,549.83Zm0,0c.09-.22.17-.44.24-.67l-.22,0a12.67,12.67,0,0,1-1.48,3.32h0l.22-.33a.09.09,0,0,0,0,0,4.37,4.37,0,0,0,.25-.4c.12-.2.25-.41.36-.62s.21-.42.32-.64S1307.79,550,1307.88,549.83Zm0,0c.09-.22.17-.44.24-.67l-.22,0a12.67,12.67,0,0,1-1.48,3.32h0l.22-.33a.09.09,0,0,0,0,0,4.37,4.37,0,0,0,.25-.4c.12-.2.25-.41.36-.62s.21-.42.32-.64S1307.79,550,1307.88,549.83Zm.62-.68c.09-.33.17-.67.24-1l.09-.56c.42-2.86-.18-5.44-1.6-6.89a4.22,4.22,0,0,0-1.1-.81,3.65,3.65,0,0,0-1-.33,4.06,4.06,0,0,0-.79,0h-.21c-3.21.28-6.39,4.3-7.07,9-.41,2.86.18,5.43,1.61,6.89a4,4,0,0,0,1.2.86,3.82,3.82,0,0,0,1.68.32h.24a5.83,5.83,0,0,0,3.36-1.63h0a11.53,11.53,0,0,0,2.61-3.65A13.56,13.56,0,0,0,1308.5,549.15Zm-2.17,3.49a9.17,9.17,0,0,1-2.18,2.35,5,5,0,0,1-2.09.94s0,0,0,0a0,0,0,0,1,0,0H1302l-.26,0h-.31a3.17,3.17,0,0,1-2.34-1c-1.29-1.31-1.83-3.66-1.47-6.31v-.11c.65-4.43,3.6-8.24,6.58-8.5a2.62,2.62,0,0,1,.56,0,3,3,0,0,1,1.06.26,3.59,3.59,0,0,1,1,.73l.07.08a5.71,5.71,0,0,1,1.29,2.63,10.19,10.19,0,0,1,.09,3.72c0,.21-.07.42-.11.63s-.16.72-.26,1.07a12.67,12.67,0,0,1-1.48,3.32A.51.51,0,0,0,1306.33,552.64Zm1.55-2.81c.09-.22.17-.44.24-.67l-.22,0a12.67,12.67,0,0,1-1.48,3.32h0l.22-.33a.09.09,0,0,0,0,0,4.37,4.37,0,0,0,.25-.4c.12-.2.25-.41.36-.62s.21-.42.32-.64S1307.79,550,1307.88,549.83Zm0,0c.09-.22.17-.44.24-.67l-.22,0a12.67,12.67,0,0,1-1.48,3.32h0l.22-.33a.09.09,0,0,0,0,0,4.37,4.37,0,0,0,.25-.4c.12-.2.25-.41.36-.62s.21-.42.32-.64S1307.79,550,1307.88,549.83Zm0,0c.09-.22.17-.44.24-.67l-.22,0a12.67,12.67,0,0,1-1.48,3.32h0l.22-.33a.09.09,0,0,0,0,0,4.37,4.37,0,0,0,.25-.4c.12-.2.25-.41.36-.62s.21-.42.32-.64S1307.79,550,1307.88,549.83Zm0,0c.09-.22.17-.44.24-.67l-.22,0a12.67,12.67,0,0,1-1.48,3.32h0l.22-.33a.09.09,0,0,0,0,0,4.37,4.37,0,0,0,.25-.4c.12-.2.25-.41.36-.62s.21-.42.32-.64S1307.79,550,1307.88,549.83Zm0,0c.09-.22.17-.44.24-.67l-.22,0a12.67,12.67,0,0,1-1.48,3.32h0l.22-.33a.09.09,0,0,0,0,0,4.37,4.37,0,0,0,.25-.4c.12-.2.25-.41.36-.62s.21-.42.32-.64S1307.79,550,1307.88,549.83Zm0,0c.09-.22.17-.44.24-.67l-.22,0a12.67,12.67,0,0,1-1.48,3.32h0l.22-.33a.09.09,0,0,0,0,0,4.37,4.37,0,0,0,.25-.4c.12-.2.25-.41.36-.62s.21-.42.32-.64S1307.79,550,1307.88,549.83Zm0,0c.09-.22.17-.44.24-.67l-.22,0a12.67,12.67,0,0,1-1.48,3.32h0l.22-.33a.09.09,0,0,0,0,0,4.37,4.37,0,0,0,.25-.4c.12-.2.25-.41.36-.62s.21-.42.32-.64S1307.79,550,1307.88,549.83Z"/><path class="cls-6" d="M1307.52,549.16a.53.53,0,0,1-.3-.35.5.5,0,0,1,.39-.62,6,6,0,0,1,4.61,1.28.5.5,0,0,1,.1.72.54.54,0,0,1-.74.09,4.86,4.86,0,0,0-3.72-1.08A.56.56,0,0,1,1307.52,549.16Z"/><path class="cls-6" d="M1331.27,536.79s6.22-10,15.4-4.44,4.73,10,2.65,13.06c-1.54,2.27-7.3,4.43-11.89,2S1331.27,536.79,1331.27,536.79Z"/><path class="cls-6" d="M1327.53,572.22a.31.31,0,0,1-.27-.15,14.34,14.34,0,0,0-5.92-4.7.33.33,0,1,1,.26-.6,14.6,14.6,0,0,1,6.2,5,.32.32,0,0,1-.09.45A.41.41,0,0,1,1327.53,572.22Z"/><path class="cls-12" d="M1310,560.69c-1.56,0-4-.32-4.87-2.17a.19.19,0,0,1,.09-.24.18.18,0,0,1,.23.09c1.22,2.54,5.85,1.9,5.89,1.89a.17.17,0,0,1,.2.15.18.18,0,0,1-.15.2A10.89,10.89,0,0,1,1310,560.69Z"/><path class="cls-6" d="M1308.44,577.84s-4,8.8,4.67,9.21c0,0-4.66,4.31-7.81,2.47s-.06-3.35-1.39-4.57-2.81-2.1-1.42-3.44.09-3.8.09-3.8S1306.37,577,1308.44,577.84Z"/><ellipse class="cls-6" cx="1303.54" cy="599.8" rx="1.32" ry="1.36" transform="translate(674.63 1889.55) rotate(-88.71)"/><path class="cls-6" d="M1298.21,642.07a1.37,1.37,0,1,0-1.39,1.28A1.33,1.33,0,0,0,1298.21,642.07Z"/><path class="cls-6" d="M1298.65,622.87a1.37,1.37,0,1,0-1.4,1.29A1.35,1.35,0,0,0,1298.65,622.87Z"/><path class="cls-9" d="M1274.46,613.19s-5.52,20.31-6.15,53.82l34.27-89.3a182.87,182.87,0,0,1-46-5.54c-15.65-3.9-43.55-27.54-46.48-29.24-3.15-1.83-14.39,11.7-14.39,11.7C1193.18,559,1232.6,603.18,1274.46,613.19Z"/><path class="cls-9" d="M1334.18,582.57s29.87.68,71.36,87.29a5.22,5.22,0,0,1-2.19,6.86l-9.64,5.14a9,9,0,0,1-11.85-3.14c-8.74-13.51-28.76-42.4-45.14-51C1315.1,616.49,1334.18,582.57,1334.18,582.57Z"/><path class="cls-6" d="M1328,581.26l6.15,1.31s1,3.13-2,4-3.65.91-4.67,3.15-4.8,2.25-6.1,1.44-3.7,2.08-5.84,2-3.34-3.76-2.44-6.18A40,40,0,0,0,1328,581.26Z"/><path class="cls-6" d="M1361.56,650.88a.23.23,0,0,1-.19-.13c-4.57-10-16.09-18.13-16.21-18.21a.21.21,0,0,1-.05-.29.2.2,0,0,1,.29,0c.12.08,11.74,8.3,16.36,18.38a.21.21,0,0,1-.11.28Z"/><path class="cls-6" d="M1274.46,613.4h-.06a.21.21,0,0,1-.14-.26l2.12-6.8a.21.21,0,0,1,.26-.14.22.22,0,0,1,.14.26l-2.12,6.81A.2.2,0,0,1,1274.46,613.4Z"/><path class="cls-7" d="M1294.42,688.52s26.3,116.7,72.52,158.44a14.39,14.39,0,0,0,16.25,2.12l8.46-4.31a12.08,12.08,0,0,0,5.2-16.06c-12-24.29-40.37-85.79-49.22-139.28Z"/><path class="cls-6" d="M1322.75,777.25c-.12-.31-11.84-31.27-15.77-48.78a35.18,35.18,0,0,0-17.71-23.76l.24-.54a35.86,35.86,0,0,1,18,24.17c3.92,17.47,15.63,48.39,15.74,48.7Z"/><path class="cls-8" d="M915.58,356.7c-.58-3.11-.39-9.53-.92-12.64-.23-1.36-1.08-7.56.2-8,1.1-.39,3.54,4.64,4.33,6.4,6.4-20.54,19.5,4.87,17.6,8.27h0c-.4.72-.76,1.34-1,1.81a5.71,5.71,0,0,1-.69,1,47.86,47.86,0,0,1-6.66,8.43,6.53,6.53,0,0,1-8,1.76C917.22,362.21,915.84,358,915.58,356.7Z"/><path class="cls-6" d="M965.14,446.65l-1.47.58a2.75,2.75,0,0,1-3.57-1.55l-77.46-195.5a2.75,2.75,0,0,1,1.55-3.57l1.47-.58a2.75,2.75,0,0,1,3.57,1.55l77.45,195.5A2.75,2.75,0,0,1,965.14,446.65Z"/><path class="cls-13" d="M812.06,454.85s3.19-18.76,36.5-21.49c25.66-2.1,51.67,13,54.75,36,4.27,31.81,5,48.82,1.59,64.84,0,0-70.6-12.8-92.45,2.63,0,0,7.5-29.51-.92-71.15A21.36,21.36,0,0,1,812.06,454.85Z"/><path class="cls-13" d="M779.15,374.2c7.07,23.75,45.37,60.06,59.19,60.64,3,.13-25.56,36.94-26,35.38-2.4-7.84-4.7-11.26-9.8-17-16.67-18.69-39.45-43.77-43.29-66.83Z"/><path class="cls-13" d="M855.17,433.62s49.1-19.91,55.65-72.09a5.34,5.34,0,0,1,6.4-4.65l9.6,2.14a4,4,0,0,1,3.06,3.8c.21,9.81-1.08,41.6-23,82.31-2.25,4.17-6.74,10.64-3.62,24.21Z"/><path class="cls-6" d="M812.38,536.82c0,4.57,20.73,6.92,46.35,6.52s46.14-4.59,46.1-9.16-21.29-12.33-46.92-11.93S812.33,532.24,812.38,536.82Z"/><path class="cls-8" d="M849,428.78l.79-8.86.24-2.58,1.36-15.17,3.47,14,2.09,8.43.66,2.67c.45,1.81,1.61,2,3.25,3.26.67.53,4.88,3.68,1.37,6.29-4.38,3.24-14.09,1.88-18.41-1.72C843.85,435.12,848.75,431.64,849,428.78Z"/><path class="cls-6" d="M861.33,394.42a19.63,19.63,0,0,1,1.6,7.77c0,4.51-6.45-5.18-6.45-5.18Z"/><path class="cls-8" d="M863.69,403.32c-2.78-8.12-10.35-12.78-16.9-10.41s-9.6,10.89-6.81,19,10.35,12.78,16.9,10.41S866.47,411.44,863.69,403.32Z"/><path class="cls-6" d="M838.77,407.62l5.83-1.93a4.49,4.49,0,0,0,2.8-2.7c.81-2.23,2.08-3.56,7.67-4.55,7.09-1.26,10.85-6.59,10.83-10.54s-4.16-5.86-7.31-3.25-2.57-2.24-6.06-2c-6.53.48-6.69,5.78-11.92,6.74-6.86,1.27-18,9.25-9.64,20.33Z"/><path class="cls-10" d="M852.35,406.84a.24.24,0,0,0,.08-.22.27.27,0,0,0-.29-.23,2.79,2.79,0,0,0-2.53,2.31.27.27,0,0,0,.19.32c.13,0,.24-.06.31-.19a4.44,4.44,0,0,1,2.09-1.92A.21.21,0,0,0,852.35,406.84Z"/><path class="cls-10" d="M852,410.37c.27.55.82.84,1.21.63a1,1,0,0,0,.21-1.38c-.28-.56-.82-.84-1.22-.64A1,1,0,0,0,852,410.37Z"/><path class="cls-10" d="M861.42,404.07a.22.22,0,0,0,.11-.15.34.34,0,0,0-.17-.33,1.76,1.76,0,0,0-2.48.85.31.31,0,0,0,.07.36.19.19,0,0,0,.28,0,2.62,2.62,0,0,1,2.06-.71A.15.15,0,0,0,861.42,404.07Z"/><path class="cls-10" d="M859.68,407.2c.06.62.45,1.09.89,1.06s.76-.58.71-1.2-.45-1.1-.89-1.06S859.63,406.57,859.68,407.2Z"/><path class="cls-6" d="M831,409.74s6,8.23,12,7.64c0,0-6.15-5.93,2.92-12.34C845.85,405,836.42,405.55,831,409.74Z"/><path class="cls-8" d="M840.23,413a2.56,2.56,0,0,0,3.41-1.37,2.69,2.69,0,0,0-1.7-3.34,2.58,2.58,0,0,0-3.42,1.37A2.69,2.69,0,0,0,840.23,413Z"/><path class="cls-6" d="M845.85,405s.78,7.84,2.59,9,11.95-.44,16.23-3.31h0a10.29,10.29,0,0,1-5.93,11.82,14.1,14.1,0,0,1-4.78,1h0c-3.39.12-6.86-.58-8.85-3.4-.6-.86-.61-7-.61-7s-.26-3.53-2.56-4.89C841.94,408.28,843.75,405.73,845.85,405Z"/><path class="cls-2" d="M862.78,414a25.3,25.3,0,0,1-7.89,2.39,3.93,3.93,0,0,0,5.51,2.14C862.77,417.52,862.78,414,862.78,414Z"/><path class="cls-6" d="M857.14,384.27a1.88,1.88,0,0,1-1.78-1.28l.33-.1a1.57,1.57,0,0,0,2,.95l.08.34A2.82,2.82,0,0,1,857.14,384.27Z"/><path class="cls-2" d="M856.65,396l-.08-.15c.07,0,7.08-3.95,6.58-8-.15-1.15-.49-1.86-1-2.16-.87-.48-2.15.13-3.27.67l-.51.24-.07-.15.51-.24c1.16-.56,2.47-1.2,3.43-.68a2.81,2.81,0,0,1,1.13,2.3c.21,1.72-.87,3.68-3.15,5.66A22.71,22.71,0,0,1,856.65,396Z"/><path class="cls-2" d="M838,391.47v-.17a13.83,13.83,0,0,0,7.94-3,9.78,9.78,0,0,0,2.25-2.59l.15.08A9.55,9.55,0,0,1,846,388.4,13.91,13.91,0,0,1,838,391.47Z"/><path class="cls-7" d="M854.66,435.51s5.72-2.31,7.38-1,1,8-1.66,8.82S852.11,437.31,854.66,435.51Z"/><path class="cls-6" d="M772.11,385.84c-6.68,5.3-11.45,3.37-12.9.57s1.95-7.6,7.62-10.72,10.87-4.3,12.32-1.49S777.2,381.8,772.11,385.84Z"/><path class="cls-6" d="M872,510.67a1.9,1.9,0,0,1-2.2,1.56,1.94,1.94,0,0,1-1.51-2.26c.19-1.06,1-1.93,2-1.74A2,2,0,0,1,872,510.67Z"/><path class="cls-6" d="M870.07,493.33a1.89,1.89,0,0,1-2.2,1.55,1.93,1.93,0,0,1-1.51-2.26c.19-1.05,1-1.93,2-1.73A2,2,0,0,1,870.07,493.33Z"/><path class="cls-6" d="M867.73,473.69a1.89,1.89,0,0,1-2.19,1.56A1.94,1.94,0,0,1,864,473c.18-1.06,1-1.93,2-1.74A2,2,0,0,1,867.73,473.69Z"/><path class="cls-6" d="M858.08,706s-.18,7.06,4.75,9.32,19.43,4.86,13.74,9.09c-3.26,2.43-17.92-.06-22.08-.29s-8.16,1.28-11.11-1.53c-3.25-3.09.9-17.35.9-17.35a17.42,17.42,0,0,0,6.73,2.07C855.67,707.43,858.08,706,858.08,706Z"/><path class="cls-7" d="M883.51,531.25c15.58,3.72,18.39,5.46,17.41,15A472,472,0,0,1,892,600.43c-9.29,40.46-19.9,81.16-25.08,100.67a16,16,0,0,1-15.83,11.68l-4-.07a13.33,13.33,0,0,1-13.24-14.77l17-133,1.23-28.14Z"/><path class="cls-6" d="M796.84,706s-.17,7.06,4.76,9.32,19.42,4.86,13.74,9.09c-3.26,2.43-17.92-.06-22.08-.29s-8.16,1.28-11.12-1.53c-3.25-3.09.9-17.35.9-17.35a17.42,17.42,0,0,0,6.74,2.07C794.44,707.43,796.84,706,796.84,706Z"/><path class="cls-7" d="M883.51,531.25l-74.09,170.4a17.89,17.89,0,0,1-17.48,11.23l-3.37-.13c-8-.31-13.68-7.61-11.84-15.1l42-160.83C819.79,533.21,849.81,524.61,883.51,531.25Z"/><path class="cls-12" d="M843.4,623.88l-.11,0a.39.39,0,0,1-.25-.49l15.3-48.62c.46-1.13.9-2.3,1.36-3.53,2.75-7.32,6.17-16.44,15.95-22.7a.39.39,0,0,1,.53.12.37.37,0,0,1-.11.53c-9.56,6.13-12.94,15.1-15.65,22.32-.46,1.24-.9,2.41-1.36,3.53l-15.29,48.59A.39.39,0,0,1,843.4,623.88Z"/><path class="cls-8" d="M773.78,374.75c.46-3.14,0-9.56.42-12.71.18-1.36.46-6-.83-6.38-1.12-.33-3,3.23-3.74,5-4.88-10.12-15-21.26-6.15-.51h0c-.89-1.72-7-14.57-9.41-12.36-1.76,1.63,3.58,12,5,14.88l-.07.05c-1.7-2.76-6.39-11.39-8.15-9.93-2.31,1.93,4.09,12.86,4.09,12.86s-5.09-9.21-6.77-6.1c-.95,1.75,2.23,7.09,4.26,10.39h0l1.08,1.75a4.92,4.92,0,0,0,.72.95,46.72,46.72,0,0,0,7,8.06,6.42,6.42,0,0,0,8.09,1.31C772.37,380.37,773.58,376.11,773.78,374.75Z"/><path class="cls-7" d="M856.74,442.55c-1.71,8.57-11.2,42.06-56.67,59.42a19.06,19.06,0,0,0-7.62,5.32l-8.25,9.52a3.43,3.43,0,0,0,1.14,5.35l12.12,5.42a17.38,17.38,0,0,0,13.1.5c14.75-5.39,52.67-33.17,52.65-88.18,0-2.35-1.87-.52-4.08.07h0A3.32,3.32,0,0,0,856.74,442.55Z"/><path class="cls-6" d="M858,433.69s-7.85-2.2-9.54-4.86-9.14,4.36-8.86,6.26,15.29,11.46,16.13,10S860,435.37,858,433.69Z"/><path class="cls-6" d="M858,433.69s.93-3,.26-4.55c0,0-.46-1.36.71-1.36s7.84,4.08,8.49,5.43,1.23,7.85-.79,8.49-7.46-6-8.09-6.64A1.94,1.94,0,0,1,858,433.69Z"/><path class="cls-6" d="M860.12,443.51a5.3,5.3,0,0,1-3.13-1.39l.19-.21a4.93,4.93,0,0,0,3.19,1.3c1.58-.15,2.7-3.32,2.71-3.36l.27.1c-.05.14-1.2,3.38-3,3.54Z"/><path class="cls-8" d="M930.57,335.53s-1.05-4.38-4.75-2.57c-4.71,2.31-6.17,6.23-5.17,7.75.85,1.29,5.93-2.24,5.93-2.24s-6.94,5.74-4.8,7.42,8-3.91,8-3.91-6,6.08-4.32,7.95,7.43-4,7.43-4-6.41,5.23-4.12,7.07c1,.81,5.87-1.93,7.67-3.62s.89-3.26-.75-5.26a4.08,4.08,0,0,0-2.09-3.69c-.56-.3-.35-1.82-.6-2.23A9.27,9.27,0,0,0,930.57,335.53Z"/><path class="cls-7" d="M785,302.41c8,21-28.38,23.23-46.9,16.89s-30.41,9.35-30.41,9.35c-1.71-17.25,6.53-35.94,6.53-35.94-3.1-11.33-18.68-20.66-18.68-20.66,13.07-24.64,57.92,13.55,64.15-16.53,5.31-25.74,93-23.55,118-20.2,7.13,1,8.54,4.51,10,8.31L908,294.86S779.16,287.18,785,302.41Z"/><path class="cls-2" d="M780.66,274.82a12.52,12.52,0,0,0,5.61.73c2.26-.26,3.35-1.33,3.18-2.75s-1.27-2-4-2.62c-3.76-.88-6.38-2.61-6.74-5.77-.43-3.71,2.39-6.88,7.49-7.46a14.79,14.79,0,0,1,3.91,0,1.83,1.83,0,0,1,1.5,2.1l-.07.43a1.83,1.83,0,0,1-2.11,1.51,10.51,10.51,0,0,0-2.84-.06c-2.13.24-3.05,1.36-2.93,2.46.16,1.39,1.43,1.86,4.39,2.61,4,1,6,2.78,6.36,5.84.41,3.65-2,7.07-8,7.75a16.12,16.12,0,0,1-4.67-.18,1.84,1.84,0,0,1-1.45-2Z"/><path class="cls-2" d="M798.92,260l-2.25.26a1.84,1.84,0,0,1-2-1.61l-.06-.5a1.82,1.82,0,0,1,1.61-2l13.1-1.5a1.84,1.84,0,0,1,2,1.61l0,.51a1.81,1.81,0,0,1-1.6,2l-2.32.27a1.82,1.82,0,0,0-1.6,2l1.59,14a1.82,1.82,0,0,1-1.6,2l-1.28.15a1.82,1.82,0,0,1-2-1.61l-1.6-14A1.83,1.83,0,0,0,798.92,260Z"/><path class="cls-2" d="M818.11,271.37l-.48,3a1.84,1.84,0,0,1-1.6,1.53l-1.24.14a1.82,1.82,0,0,1-2-2.14l3.45-18.77a1.81,1.81,0,0,1,1.58-1.48l3.78-.43a1.83,1.83,0,0,1,1.88,1.08l7.72,17.49a1.83,1.83,0,0,1-1.47,2.55l-1.51.17a1.81,1.81,0,0,1-1.88-1.09l-1.25-2.91a1.82,1.82,0,0,0-1.88-1.09l-3.51.4A1.82,1.82,0,0,0,818.11,271.37ZM821,266a1.83,1.83,0,0,0,1.48-2.52l-.94-2.21c-.53-1.25-1.1-2.82-1.57-4.08h-.07c-.17,1.33-.31,3-.52,4.31l-.38,2.39a1.81,1.81,0,0,0,2,2.1Z"/><path class="cls-2" d="M832.81,253.87a1.83,1.83,0,0,1,1.41-2c1.38-.3,3.06-.59,4.91-.8,3.23-.37,5.55-.14,7.24.91a5.53,5.53,0,0,1,2.55,4.35,5.79,5.79,0,0,1-3.23,5.76v.1c1.59.44,2.59,1.77,3.37,3.7.5,1.28,1,2.65,1.46,3.78a1.81,1.81,0,0,1-1.49,2.47l-1.31.15a1.82,1.82,0,0,1-1.87-1.05c-.39-.87-.89-2.11-1.45-3.7-.92-2.68-1.94-3.28-4-3.08l-1.45.16.77,6.75a1.84,1.84,0,0,1-1.61,2l-1.25.14a1.84,1.84,0,0,1-2-1.61Zm5.76,7.21,1.94-.22c2.45-.28,3.77-1.67,3.55-3.57s-1.7-2.85-4-2.59a9.58,9.58,0,0,0-2.21.41Z"/><path class="cls-2" d="M854.64,253.66l-2.25.26a1.83,1.83,0,0,1-2-1.61l-.06-.51a1.84,1.84,0,0,1,1.61-2l13.1-1.49a1.83,1.83,0,0,1,2,1.61l.05.5a1.82,1.82,0,0,1-1.6,2l-2.32.27a1.81,1.81,0,0,0-1.6,2l1.59,14a1.82,1.82,0,0,1-1.6,2l-1.29.14a1.81,1.81,0,0,1-2-1.6l-1.6-14A1.82,1.82,0,0,0,854.64,253.66Z"/><path class="cls-13" d="M1029.1,699s1.68,30.48-6.25,89.27c-5.72,42.44-12.67,85.23-16.09,105.75a15.68,15.68,0,0,1-14.12,13.34l-3.8.26c-7.64.53-14-6.06-13.68-14.11l6-138.35,1.18-45.51Z"/><path class="cls-6" d="M1068.18,732.48c-20.24,7.92-58-3.27-86.55,3.82l-.43-8.39,40.08-12.21,32.37.82,9.94,2.18,7,11.15S1070.6,731.53,1068.18,732.48Z"/><path class="cls-8" d="M1117.14,555.49c-.33-3.11.37-9.53.1-12.65-.12-1.35-.22-6,1.08-6.39,1.13-.38,2.9,3.08,3.54,4.85,5.28-10.3,15.79-21.83,6.16-.77h0c1-1.75,7.59-14.82,9.9-12.72,1.7,1.54-4.06,12.15-5.61,15l.07,0c1.81-2.82,6.84-11.63,8.54-10.24,2.23,1.82-4.6,13-4.6,13s5.45-9.38,7-6.36c.87,1.7-2.52,7.16-4.68,10.53h0c-.45.71-.85,1.33-1.14,1.8a6.29,6.29,0,0,1-.76,1,52.7,52.7,0,0,1-7.29,8.33s-3.4,4.07-8.13,1.64C1118.33,561,1117.29,556.84,1117.14,555.49Z"/><path class="cls-8" d="M961.8,542.21c1.6-2.66,3.65-8.77,5.2-11.47.67-1.17,2.68-5.29,1.69-6.25s-3.91,1.5-5.22,2.82c-.47-11.63-5.14-26.69-5.24-3.42h0c-.13-2-.66-16.74-3.63-15.86-2.17.64-1.4,12.77-1.21,16.07h-.08c-.46-3.36-1.32-13.53-3.43-13-2.78.66-1.28,13.76-1.28,13.76s-1-10.89-3.66-8.85c-1.51,1.15-.73,7.58-.18,11.58h0c.11.84.21,1.58.28,2.13a5.77,5.77,0,0,0,.28,1.22,54.37,54.37,0,0,0,3.1,10.74s1.37,5.18,6.66,5.08C958.41,546.68,961.1,543.36,961.8,542.21Z"/><path class="cls-6" d="M1038.19,902.88s.35,6.75,4.84,8.54,17.43,3.14,12.73,7.62c-2.7,2.57-15.76,1.32-19.44,1.43s-7.08,1.84-9.88-.61c-3.07-2.7-.43-16.64-.43-16.64a14.28,14.28,0,0,0,6.06,1.45A11.46,11.46,0,0,0,1038.19,902.88Z"/><path class="cls-13" d="M1068.18,732.48c-.06,14-.21,32.34-3.22,54.6-5.72,42.44-12.67,85.24-16.09,105.76a15.67,15.67,0,0,1-14.12,13.33l-3.8.26c-7.64.53-14-6.06-13.68-14.11l6-138.35L981.63,736.3C1000.63,727.41,1068.21,724.23,1068.18,732.48Z"/><path class="cls-6" d="M996.08,904.05s.34,6.75,4.84,8.54,17.43,3.14,12.73,7.62c-2.7,2.57-15.76,1.32-19.44,1.42s-7.08,1.85-9.88-.6c-3.08-2.71-.43-16.64-.43-16.64a14.28,14.28,0,0,0,6.06,1.45A11.46,11.46,0,0,0,996.08,904.05Z"/><path class="cls-6" d="M1021,800.21c0-.25-3.28-25.19-5.71-34.13s-13.61-16.54-13.72-16.61l.33-.48c.11.07,11.48,7.89,14,16.94s5.69,34,5.72,34.21Z"/><path class="cls-8" d="M1020.82,605.28l3-9.13.86-2.65,5.07-15.61.66,15.53.4,9.32.13,3c.08,2,1.36,2.42,2.92,4.16.63.71,4.66,5,.08,6.92-5.7,2.4-16.36-1.24-20.41-6C1013.52,610.75,1019.87,608.22,1020.82,605.28Z"/><path class="cls-8" d="M1040.3,577c-3.4-8.57-12.21-13.1-19.69-10.13s-10.77,12.33-7.37,20.89,12.22,13.1,19.69,10.13S1043.71,585.51,1040.3,577Z"/><path class="cls-6" d="M1033.31,574.62c8.13-1.81,10.94-7.26,10-11.39-1.17-5.3-5.79-9.07-9.35-6.06s-3-2.24-7-1.74c-7.51.94-7.66,6.23-13.54,8-7.77,2.35-13.65,17.16-4.83,24.57C1008.59,588,1026.9,576,1033.31,574.62Z"/><path class="cls-6" d="M1039.18,567.44s-6.66,10.15-4.43,14.31,2.37,6-2.07,9.65.94,6.39-5.69,8.41-16.68-3.41-19.73-15.84a18.9,18.9,0,0,1,1.35-12.54Z"/><path class="cls-8" d="M1039,580.42a3.07,3.07,0,0,0-4.22.16,2.79,2.79,0,0,0,.49,4,3.07,3.07,0,0,0,4.22-.16A2.79,2.79,0,0,0,1039,580.42Z"/><path class="cls-6" d="M1006.15,592.29a.21.21,0,0,1-.21-.21,5.3,5.3,0,0,1,1.56-3.49.21.21,0,1,1,.29.3,5,5,0,0,0-1.43,3.18.22.22,0,0,1-.21.22Z"/><path class="cls-6" d="M1006.66,588.05a2.7,2.7,0,0,1-2.61-1.41.22.22,0,0,1,.1-.28.22.22,0,0,1,.28.1c.71,1.53,2.92,1.11,2.94,1.11a.21.21,0,0,1,.08.41A4,4,0,0,1,1006.66,588.05Z"/><path class="cls-6" d="M1032.34,557.22a1.34,1.34,0,0,1-.48-.08c-1.22-.45-2-2.49-2-2.58a.2.2,0,0,1,.13-.26.19.19,0,0,1,.26.12s.71,2,1.74,2.32a1,1,0,0,0,.89-.1,5.53,5.53,0,0,0,1.34-1.18,3.87,3.87,0,0,1,3.54-1.6.21.21,0,1,1,0,.42,3.46,3.46,0,0,0-3.21,1.46,6,6,0,0,1-1.44,1.26A1.47,1.47,0,0,1,1032.34,557.22Z"/><path class="cls-6" d="M1012.92,562.8a.21.21,0,0,1,0-.41c3.2-.33,5.26-3.36,5.28-3.39a.21.21,0,0,1,.35.23c-.09.13-2.19,3.23-5.59,3.57Z"/><path class="cls-6" d="M1037.33,585.54a3.43,3.43,0,0,1-2.56-1.33.11.11,0,0,1,.16-.14c1.8,2,3.42,1,3.49,1a.1.1,0,0,1,.14,0,.1.1,0,0,1,0,.13A2.37,2.37,0,0,1,1037.33,585.54Z"/><path class="cls-7" d="M987,630.48S992.28,607,1024.71,607c56.52,0,40.66,47.43,45.89,122.82,0,0-24.88-16.68-89.16,2.69,0,0-2.8-40.45,1.5-75.35C984.64,643.33,984.37,638.41,987,630.48Z"/><path class="cls-7" d="M959.92,539.11a7.66,7.66,0,0,1,7.82,5.52c10.56,34.87,29.47,60.29,57,62.4,3.32.26-42.85,60.46-42.68,58.72,1.44-15.36-3.14-34.44-10.79-45.74-14.42-21.29-25.57-45.84-26.92-73.81a6,6,0,0,1,5.49-6.39Z"/><path class="cls-7" d="M1023.84,607s65.06-1.8,87.69-51.87a5.68,5.68,0,0,1,8.18-2.34l9.53,5.64a4.44,4.44,0,0,1,2.1,4.93c-2.73,10-14.68,37-50.17,70-3.64,3.38-11.44,17.17-12.21,31.95Z"/><g class="cls-14"><path class="cls-1" d="M754.2,21.19S741.76-2.74,710.28.26s-27.73,27-42.71,24.73-36,0-40.47,15-24.74,6.74-25.48,19.48,23.23,21.74,51,10.5,41.22,8.73,80.19,5.11,43.79-8.11,66.86-5.86,22.52-13.55,12-24S758.69,35.68,754.2,21.19Z"/></g><g class="cls-15"><path class="cls-1" d="M874.64,90.52s-8.16-15.69-28.81-13.73-18.18,17.7-28,16.22-23.6,0-26.54,9.83-16.23,4.43-16.72,12.78S789.8,129.88,808,122.5s27,5.73,52.59,3.36,28.73-5.32,43.85-3.85,14.77-8.88,7.89-15.76S877.59,100,874.64,90.52Z"/></g><g class="cls-15"><path class="cls-1" d="M1118.44,26.89s-8.16-15.69-28.8-13.73-18.19,17.7-28,16.22-23.59,0-26.54,9.84-16.22,4.42-16.72,12.78,15.24,14.25,33.43,6.88,27,5.72,52.59,3.35,28.73-5.32,43.86-3.85,14.76-8.88,7.88-15.76S1121.39,36.39,1118.44,26.89Z"/></g><path class="cls-8" d="M520.53,118.68a100.62,100.62,0,0,0,8.18-10.26c2.61-3.94,3-8.08-3.51-12.25a21.43,21.43,0,0,0-9.45-2.83c-6-.55-11.7,12.49-11.7,12.49Z"/><path class="cls-8" d="M415.92,132.42,428.6,112l-6.34,10.24,6.32-10.25c8.35,5.14,33.61,17.74,50.08,14.4,12.81-2.6,23.38-17.81,26.07-22.94l21.32,11.19a85.32,85.32,0,0,1-10.79,15.3c-9.5,10.83-20.5,17.76-31.82,20.05-12.64,2.57-28,.31-45.57-6.7A153.65,153.65,0,0,1,415.92,132.42Z"/><path class="cls-6" d="M483,321.43s1.87,12.22,6.86,18.45c3.29,4.11,12.35,12.24,5.9,14.95-5.14,2.16-15.06-7.47-18.28-9.87s-8.07-6.93-7-10.8c2.23-8,1.49-18.08,1.49-18.08Z"/><path class="cls-6" d="M458.14,312s-2.5,12.11,0,19.69c1.66,5,7.33,15.77.34,16.07-5.58.23-11.53-12.25-13.71-15.61s-5.16-9.31-2.8-12.56c4.87-6.74,7.68-16.43,7.68-16.43Z"/><path class="cls-7" d="M461.63,320.51c66.83-44.58,63.53-83.64,54.27-98.91-10.76-17.74-27.79-31.76-53.89-38a145.06,145.06,0,0,0-19.12-3.19A13.37,13.37,0,0,0,428.19,194l.59,22.75h0c11.15-.24,45,3.16,53.85,21.19,1.84,3.75-43.15,56.59-41.47,66.07C443,314.78,455.09,324.87,461.63,320.51Z"/><path class="cls-7" d="M487.54,327.19a13.32,13.32,0,0,0,13.37-14.09c-1-17.06-4.18-46.09-14.11-68-5.64-12.44-14.59-23.75-26.63-33.62a148.52,148.52,0,0,0-32.27-19.76c-20.52-9.44-35.31-8.12-35.31-8.12l-20.95,17.88c.15,0-3.47,25,22.61,39.58,26.7,14.89,47.08,3.82,57.91,25,7.72,15.12,10.67,35.16,11.66,49.17a12.83,12.83,0,0,0,12.75,11.93Z"/><path class="cls-12" d="M498.37,289.57A188,188,0,0,0,492.59,257c-4.34-15.87-12.76-36.74-28.19-46l.22-.35c15.54,9.3,24,30.27,28.37,46.22a188.28,188.28,0,0,1,5.79,32.68Z"/><path class="cls-12" d="M464.3,318.56a120.47,120.47,0,0,0-8-42.11l.38-.16a121.05,121.05,0,0,1,8,42.27Z"/><path class="cls-9" d="M381.08,120.76s7-18.63,33.08-17.23,44.07,7.3,47.85,80.05c0,0-21.94,21.69-76.18,25-8,.49-17.74,3.26-18.18-4.77C366.77,187.82,370.06,157.3,381.08,120.76Z"/><path class="cls-9" d="M362.52,127l18.56,4.2s47.42,5.55,60.07,3.52,16.25-12,16.25-12a68.28,68.28,0,0,0-36-19.79,65.28,65.28,0,0,0-6.67-1,58.65,58.65,0,0,0-11.38-.29C366.31,105.57,362.52,127,362.52,127Z"/><path class="cls-8" d="M403.39,101.68c2.31,4.57,9.95,9.36,14.81,8.36,3.91-.79,1.53-5,1.16-5.64-.89-1.68-1.82-2.24-1.53-3.89l.42-2.37v0l.69-3.9.66-3.76,2.25-12.76-6.72,11.85-1.14,2L413,93.39l-2.88,5.07C408.81,100.7,403.42,101.68,403.39,101.68Z"/><path class="cls-8" d="M502.9,106.48l4.28-1a3,3,0,0,0,3.76-1.83s4.16-8.23,3.79-14.63c-.46-7.8-6-8.75-6.77-4.42C506.08,95.41,502.9,93.76,502.9,106.48Z"/><path class="cls-8" d="M531.67,108.55s1.13,6.57-4.87,7.56c-7.65,1.26-25.38-6.09-5.59-7.62.49,0-12.7-.21-11.32-3.48s12.82-2.46,12.82-2.46-13.92-1.32-11.62-4,11.27-2.84,11.27-2.84-11.75-.56-9-3.59,10.53-.52,14.06-.21c3.34.29,4.23,2.54,3.72,5.74,0,0,1.35,3.49.48,5.49-.33.77.36,1.63.37,2.22A20.73,20.73,0,0,1,531.67,108.55Z"/><path class="cls-16" d="M524.85,116.57c-4.6,0-10.94-1.92-12.59-4a1.51,1.51,0,0,1-.3-1.62c.46-1.05,2.35-1.83,5.63-2.33-4.52-.42-7.18-1.22-7.9-2.37a1.35,1.35,0,0,1-.09-1.32c.81-1.92,4.67-2.53,8-2.69-3.09-.54-6.5-1.41-7-2.66a1.07,1.07,0,0,1,.26-1.17c1.38-1.59,4.9-2.33,7.69-2.67-2.48-.35-5.32-1-5.83-2.23a1.4,1.4,0,0,1,.41-1.53c2.23-2.45,7.25-1.54,11.28-.8,1.15.21,2.23.41,3.05.48a.31.31,0,0,1,.29.35.32.32,0,0,1-.35.29c-.84-.07-1.89-.26-3.11-.49-3.67-.67-8.7-1.58-10.68.6-.44.49-.33.76-.29.85.54,1.31,5.85,2,9.06,2.2a.32.32,0,0,1,0,.64c-.09,0-8.85.21-11,2.73-.22.25-.2.4-.16.51.56,1.4,7.39,2.54,11.56,2.94a.32.32,0,0,1,0,.64c-3.12-.22-11.44-.24-12.5,2.27a.74.74,0,0,0,0,.72c.43.68,2.38,1.89,10.63,2.29.46,0,.68,0,.68.34a.33.33,0,0,1-.31.32c-6.89.54-8.4,1.7-8.68,2.35a.9.9,0,0,0,.22,1c1.62,2.09,9.39,4.42,14,3.67a.32.32,0,0,1,.37.26.31.31,0,0,1-.27.37A11.38,11.38,0,0,1,524.85,116.57Z"/><path class="cls-8" d="M431.87,207.76s13.18.52,18.08,6.48,6.66,17.28,2.84,14.23a50.72,50.72,0,0,1-7.64-8.3s7.61,11.59,4.13,12.2-10-9.54-10-9.54,8,14.52,4.48,14-9.44-11.56-9.44-11.56,6.87,13.8,2.84,13.14-5.6-11.44-9.08-10.84-17.51,1.84-20.38-7.63Z"/><path class="cls-16" d="M444.89,220.29s-1.63-3.49-3.84-3.85l.09-.56c2.51.41,4.2,4,4.27,4.17Z"/><path class="cls-16" d="M439,223s-1.56-3.46-4.68-4.64l.2-.54a10.06,10.06,0,0,1,5,4.95Z"/><path class="cls-16" d="M434.06,225.41s-1.93-4.15-4.31-4.33l.05-.57c2.7.21,4.7,4.48,4.78,4.66Z"/><path class="cls-6" d="M396.75,131.75c-.34,2.42-8.27,3.32-17.72,2s-16.84-4.34-16.51-6.76,8.27-3.32,17.72-2S397.08,129.33,396.75,131.75Z"/><path class="cls-8" d="M409.36,223.4c-28-15.58-38.76-36.69-42.67-54.53-5.06-23.09-.47-39.56-.24-40.38,0,0,1.94-2.4,13.88-.22,10.63,1.94,11.24,4.46,11.24,4.46a66.29,66.29,0,0,0-.47,31.68c5.12,22,19.67,36.6,45.62,45.19C436.72,209.6,415.44,226.78,409.36,223.4Z"/><path class="cls-6" d="M396.75,131.91h0a.16.16,0,0,1-.12-.18c0-.08,1.82-7.79.89-13.34a.16.16,0,0,1,.13-.18.15.15,0,0,1,.18.12c.94,5.62-.87,13.39-.89,13.47A.16.16,0,0,1,396.75,131.91Z"/><path class="cls-16" d="M380,188.73c-1.15,0-2.68-1.23-3.8-3.16-1.35-2.34-1.51-4.7-.35-5.37s3.12.64,4.48,3h0c1.35,2.34,1.5,4.7.35,5.37A1.32,1.32,0,0,1,380,188.73Zm-3.46-8.06a.75.75,0,0,0-.37.09c-.71.41-.64,2.35.59,4.49s2.88,3.16,3.6,2.75.64-2.36-.59-4.49h0C378.71,181.69,377.35,180.67,376.53,180.67Z"/><path class="cls-6" d="M413,93.39s1.88,3.63,5.3,4.75v0l.69-3.9Z"/><path class="cls-6" d="M433,75.11a17.08,17.08,0,0,1-1.52,6.94c-1.64,3.68-3.49-6.66-3.49-6.66Z"/><ellipse class="cls-8" cx="420.22" cy="82.28" rx="13.95" ry="11.56" transform="translate(302.65 494.03) rotate(-85.14)"/><path class="cls-6" d="M409.27,77.34l5.59.63a4.07,4.07,0,0,0,3.35-1.14c1.5-1.51,3.05-2.12,8.11-.81,6.4,1.66,11.51-1.26,12.95-4.49s-1.33-6.35-4.93-5.42S433,63.32,430,62.21c-5.66-2.08-7.73,2.18-12.47,1-6.22-1.56-18.47.74-15.56,12.92Z"/><path class="cls-10" d="M420.94,81.84a.22.22,0,0,0,.15-.15.24.24,0,0,0-.16-.29,2.55,2.55,0,0,0-3,.92.24.24,0,0,0,0,.33.25.25,0,0,0,.33,0,4,4,0,0,1,2.46-.77A.25.25,0,0,0,420.94,81.84Z"/><path class="cls-10" d="M419.31,84.56c0,.56.38,1,.78,1s.71-.49.68-1.05-.38-1-.78-1S419.28,84,419.31,84.56Z"/><path class="cls-10" d="M429.56,83a.18.18,0,0,0,.15-.09.27.27,0,0,0,0-.33,1.63,1.63,0,0,0-2.39-.24.27.27,0,0,0-.08.31.17.17,0,0,0,.25.09,2.47,2.47,0,0,1,2,.21A.16.16,0,0,0,429.56,83Z"/><path class="cls-10" d="M427,84.91a.91.91,0,0,0,.36,1.2c.38.13.84-.19,1-.71s0-1.07-.36-1.2S427.15,84.38,427,84.91Z"/><path class="cls-6" d="M402,76.12s2,9,7.22,10.75c0,0-3-7.16,7-9C416.15,77.92,408.06,74.77,402,76.12Z"/><path class="cls-8" d="M408.51,82.27a2.26,2.26,0,1,0-.2-3.37A2.39,2.39,0,0,0,408.51,82.27Z"/><path class="cls-2" d="M427.06,89.7a23.87,23.87,0,0,1-7.5-1,3.64,3.64,0,0,0,3.84,3.82C425.75,92.58,427.06,89.7,427.06,89.7Z"/><path class="cls-6" d="M433.85,65.44a1.77,1.77,0,0,1-1.62-1.9l.32,0a1.43,1.43,0,0,0,1.36,1.55Z"/><path class="cls-2" d="M428.54,74.61v-.16c.08,0,7.39-.54,8.45-4a2.39,2.39,0,0,0-.06-2.14c-.56-.74-1.86-.72-3-.71h-.52v-.16h.52c1.19,0,2.53,0,3.13.76a2.49,2.49,0,0,1,.09,2.28c-.45,1.49-2.08,2.68-4.72,3.43A20.72,20.72,0,0,1,428.54,74.61Z"/><path class="cls-2" d="M419.47,64.8a14.31,14.31,0,0,1-4.92-.92l.05-.15a12.9,12.9,0,0,0,7.77.54A8.45,8.45,0,0,0,425.21,63l.09.13a8.48,8.48,0,0,1-2.88,1.28A11.26,11.26,0,0,1,419.47,64.8Z"/><path class="cls-1" d="M1505,508.41c9.19-5.09,14.14-2.6,16.88,2.35s2.22,10.46-7,15.55c-16.74,9.27-29.79,4.81-29.79,4.81S1488,517.82,1505,508.41Z"/><path class="cls-6" d="M532,724.75H466.92a1,1,0,0,1-.89-.55l-11.8-23.63a1,1,0,0,1,1.79-.89l11.51,23.08H532a1,1,0,0,1,0,2Z"/><path class="cls-6" d="M495.92,881s-6.13,12.32-4.1,16.82,10.42,14.72,4,14.58c-3.68-.07-12.23-10.31-14.95-12.86s-6.35-3.74-6.7-7.51c-.39-4.14,17.23-19.58,17.23-19.58s1.48-.62,3.63,1.3C498.15,876.57,495.92,881,495.92,881Z"/><path class="cls-7" d="M569.31,740.52s5.26,85-60.35,140c-4.54,3.82-11.6,8.66-16.45,5.26l-4.73-3.25c-5.36-3.76-8.85-11.7-1.53-20.47,16.41-19.63,40.78-78,36.13-128.43Z"/><path class="cls-6" d="M609,729.85c-20.25,7.93-85,4.77-86.59,3.82-2.7-1.6-2.69-3.76-2.69-3.76l42.36-16.84,32.38.82,10,2.18,7,11.15S611.4,728.9,609,729.85Z"/><path class="cls-8" d="M658,552.77c-.34-3.11.36-9.54.09-12.66-.12-1.35-.22-6,1.08-6.4,1.14-.37,2.9,3.09,3.54,4.86,5.29-10.3,15.8-21.84,6.16-.77h0c1-1.75,7.59-14.83,9.9-12.73,1.7,1.55-4.06,12.16-5.61,15.06l.07,0c1.81-2.82,6.84-11.63,8.54-10.25,2.23,1.83-4.6,13-4.6,13s5.45-9.4,7-6.37c.88,1.7-2.52,7.16-4.67,10.54h0c-.45.7-.85,1.32-1.14,1.79a5.74,5.74,0,0,1-.76,1,52.54,52.54,0,0,1-7.29,8.34s-3.41,4.07-8.14,1.64C659.15,558.31,658.11,554.12,658,552.77Z"/><path class="cls-8" d="M503.51,539.48c1.6-2.67,3.65-8.78,5.2-11.47.67-1.17,2.69-5.3,1.69-6.26s-3.91,1.5-5.22,2.82c-.47-11.64-5.14-26.71-5.24-3.42h0c-.14-2-.66-16.75-3.63-15.87-2.18.64-1.41,12.77-1.22,16.07l-.08,0c-.45-3.36-1.32-13.54-3.43-13-2.78.66-1.27,13.76-1.27,13.76s-1-10.89-3.67-8.85c-1.51,1.15-.73,7.58-.18,11.58h0c.11.84.21,1.58.28,2.13a5.77,5.77,0,0,0,.28,1.22,54.35,54.35,0,0,0,3.1,10.75s1.37,5.18,6.66,5.09C500.12,544,502.81,540.63,503.51,539.48Z"/><path class="cls-6" d="M579,900.35s.34,6.75,4.84,8.54,17.44,3.15,12.73,7.63c-2.69,2.57-15.76,1.32-19.44,1.42s-7.09,1.85-9.88-.61c-3.08-2.7-.44-16.65-.44-16.65a14.29,14.29,0,0,0,6.07,1.46A11.46,11.46,0,0,0,579,900.35Z"/><path class="cls-7" d="M609,729.85c-.05,14.06-.21,32.36-3.21,54.63C600,827,593.08,869.77,589.65,890.3a15.66,15.66,0,0,1-14.12,13.34l-3.8.26c-7.65.53-14-6.06-13.69-14.12l6-138.42-41.64-17.69C541.38,724.78,609,721.6,609,729.85Z"/><path class="cls-6" d="M561.76,797.62c0-.25-3.27-25.21-5.71-34.14s-13.61-16.55-13.72-16.63l.33-.48c.11.08,11.48,7.89,14,17s5.7,34,5.73,34.23Z"/><path class="cls-8" d="M561.59,602.58l3-9.13.86-2.65,5.07-15.62.67,15.53.4,9.33.12,3c.09,2,1.37,2.43,2.92,4.17.63.71,4.67,5,.09,6.92-5.71,2.4-16.37-1.24-20.42-6C554.29,608.06,560.64,605.53,561.59,602.58Z"/><path class="cls-8" d="M581.08,574.24c-3.4-8.57-12.22-13.11-19.7-10.13S550.6,576.44,554,585s12.22,13.1,19.7,10.13S584.49,582.81,581.08,574.24Z"/><path class="cls-13" d="M527.72,627.8s5.31-23.46,37.76-23.46c56.55,0,40.69,47.45,45.92,122.88,0,0-4.57-5.67-23-8.27-18.68-2.64-45.65,1.42-68.74,11,0,0-.3-40.46,4-75.39C525.39,640.65,525.12,635.73,527.72,627.8Z"/><path class="cls-13" d="M500.65,536.38a7.66,7.66,0,0,1,7.83,5.52c10.57,34.89,29.49,60.32,57,62.44,3.32.25-42.87,60.49-42.7,58.75,1.43-15.38-3.14-34.47-10.8-45.76-14.42-21.31-25.58-45.88-26.93-73.86a6,6,0,0,1,5.49-6.39Z"/><path class="cls-13" d="M672.17,560.68c-2.66,9.7-14.09,35.68-47.53,67.49h0c-.87.83-1.76,1.66-2.66,2.5-3.65,3.39-11.45,17.18-12.22,32l-45.15-58.31s24.92-.68,49.29-13.08c15-7.64,29.81-19.72,38.44-38.82a5.69,5.69,0,0,1,8.19-2.34l9.54,5.65A4.44,4.44,0,0,1,672.17,560.68Z"/><path class="cls-17" d="M614.37,643.43c-27.64-8.25-26.2-42.46-26.18-42.8l.48,0c0,.34-1.44,34.18,25.84,42.32Z"/><path class="cls-17" d="M590.15,614.94l-.43-.2c1.23-2.62,8.37-5.1,15.92-7.72,8.09-2.81,16.45-5.72,18.85-9.06,1.63-2.27,5.45-5.09,9.87-8.36,8.47-6.25,19-14,19.47-22,.71-12.14,6.47-17.64,6.53-17.7l.33.35c-.06.06-5.68,5.44-6.38,17.38-.48,8.16-11.12,16-19.67,22.34-4.38,3.24-8.17,6-9.76,8.25-2.49,3.46-10.93,6.4-19.08,9.23C598.34,610.06,591.3,612.51,590.15,614.94Z"/><path class="cls-17" d="M595,627.55l-.45-.19c1.75-4.24,9-7.2,16.59-10.33s15.73-6.45,18.1-11.2c2-4,7-8.66,12.38-13.59,7.49-6.91,15.22-14,16-20.49a49.24,49.24,0,0,1,6.9-19.3l.4.27a48.65,48.65,0,0,0-6.82,19.09c-.84,6.62-8.65,13.82-16.19,20.79-5.31,4.9-10.32,9.52-12.28,13.45-2.45,4.9-10.53,8.22-18.34,11.42C603.76,620.57,596.64,623.49,595,627.55Z"/><path class="cls-17" d="M604,638.06l-.4-.27c.07-.1,7.24-10.17,15.73-13.81,6.28-2.69,11.63-9.75,16.35-16,1.64-2.16,3.19-4.2,4.66-5.9.78-.91,1.76-2,2.87-3.29,6.56-7.49,18.79-21.44,19.59-25.37.94-4.61,6.77-17.26,7-17.8l.44.21c-.06.13-6,13.13-7,17.69-.83,4.05-12.64,17.53-19.7,25.59l-2.87,3.28c-1.46,1.7-3,3.73-4.63,5.88-4.76,6.28-10.16,13.39-16.55,16.13C611.19,628,604.11,638,604,638.06Z"/><path class="cls-17" d="M588.48,604.8l-.1-.47c.25-.05,24.6-5.3,28.53-10,1.59-1.91,6.14-4.88,11.41-8.32,7.87-5.14,17.65-11.52,18.56-15.46,1.4-6.14,5.28-17.57,10.87-21.47l.28.39c-5.48,3.82-9.29,15.11-10.69,21.19-.94,4.12-10.41,10.3-18.75,15.75-5,3.28-9.77,6.37-11.31,8.23C613.25,599.47,589.49,604.59,588.48,604.8Z"/><path class="cls-17" d="M591.24,719.47c0-.28-4.67-28.18-.2-43.9,4.31-15.18-.71-33.34-6.18-49.1-5-14.31,0-25,0-25.14l.43.2c0,.11-4.89,10.67,0,24.78,5.5,15.84,10.54,34.09,6.19,49.39-4.44,15.62.17,43.41.22,43.69Z"/><path class="cls-17" d="M602.18,722.27c0-.14-4.49-13.93-2.15-33.74,1.14-9.58.26-19.07-.59-28.26-.89-9.63-1.73-18.74.18-25.95l.46.12c-1.89,7.13-1.05,16.2-.16,25.79.85,9.21,1.73,18.73.59,28.36-2.33,19.7,2.08,33.39,2.13,33.53Z"/><path class="cls-17" d="M571.48,718.29c0-.2-3.37-20.95,3.21-40.08,3.41-9.92,2.6-22,1.33-30.39a112.29,112.29,0,0,0-3.63-16l.46-.15c.09.27,8.88,27.54,2.29,46.68S571.92,718,572,718.22Z"/><path class="cls-17" d="M557.38,719.5c-.07-.25-7.08-24.77-3.36-39.29s1.72-29.5,1.7-29.65l.47-.07c0,.16,2,15.33-1.7,29.84s3.29,38.79,3.36,39Z"/><path class="cls-17" d="M543.57,722.37l-.47-.12c0-.17,4.49-16.79-.41-31.27s-1-42.4-1-42.68l.47.07c0,.27-4,28,.94,42.45S543.61,722.21,543.57,722.37Z"/><path class="cls-17" d="M531.77,725.57c-2.3-4-2-11.44-1.66-20,.16-3.94.32-8,.25-12.09-.24-12.79,3.28-46.5,3.32-46.84l.48,0c0,.34-3.56,34-3.32,46.78.07,4.09-.09,8.17-.25,12.12-.34,8.53-.63,15.89,1.6,19.78Z"/><path class="cls-17" d="M519.45,617.39c0-.16-1.76-16.9-11.32-29.86S492.37,537.35,492.31,537l.47-.08c.06.38,6.16,37.37,15.73,50.34s11.4,29.94,11.41,30.11Z"/><path class="cls-17" d="M528.94,614.88c0-.23-3.9-23-14-37.85S498,536.67,498,536.42l.46-.12c.07.25,6.91,25.56,17,40.47s14,37.8,14,38Z"/><path class="cls-6" d="M564.16,558.71s9.8-2.93,15.92,3.71,2.1,13.46-4.5,14.11-8.57,11.86,0,13.81,10.9,15.44,3.67,19.51,16.29,27.79,7,46.64-73.48,10.26-88-7.15c-14.85-17.8-7.19-32.69,19-33.64,16.52-.6,8.53-26.91,15.48-41.33S554.44,551.93,564.16,558.71Z"/><path class="cls-6" d="M486.66,634.51a15.61,15.61,0,0,1,4.69-16.6c5.15-4.6,12.6-6,18.54-3.51,4.84,2,8.89,2.29,12,.74s5.2-4.69,6.39-9.27c.6-2.32.19-6.27-.29-10.84-1.19-11.43-2.83-27.09,9-35.43,8.61-6.06,15.61-6.09,20-5a17.12,17.12,0,0,1,7.53,3.8l-.68.69a16.3,16.3,0,0,0-7.12-3.57c-6-1.41-12.59.29-19.14,4.91-11.36,8-9.75,23.35-8.58,34.54.48,4.67.9,8.69.26,11.19-1.26,4.85-3.64,8.27-6.89,9.88s-7.72,1.44-12.84-.72c-5.6-2.36-12.64-1-17.52,3.35a14.69,14.69,0,0,0-4.41,15.61Z"/><path class="cls-8" d="M573.19,578.93a3.07,3.07,0,0,0-4.22.16,2.78,2.78,0,0,0,.48,4,3.07,3.07,0,0,0,4.22-.16A2.78,2.78,0,0,0,573.19,578.93Z"/><path class="cls-6" d="M571.48,584.05a3.43,3.43,0,0,1-2.56-1.33.1.1,0,0,1,.15-.14c1.81,2,3.43,1,3.5,1a.1.1,0,0,1,.14,0,.1.1,0,0,1,0,.14A2.49,2.49,0,0,1,571.48,584.05Z"/><path class="cls-9" d="M684,682.76c-4.31-14.33-3.52-27,2.36-37.75,9.3-17,28.56-23.5,31.26-24.35-5.79-14-6.53-25.94-2.19-35.37a29.72,29.72,0,0,1,16.11-14.93l.18.56A29.06,29.06,0,0,0,716,585.54c-4.3,9.34-3.51,21.19,2.33,35.2l.13.3-.32.09c-.22.06-21.39,6.22-31.22,24.16-5.8,10.58-6.58,23.13-2.32,37.3Z"/><path class="cls-9" d="M761,582.56c-12.27-10-15.06-21.3-15.24-29A36.58,36.58,0,0,1,748.33,539l.53.24c-.11.24-10.62,24.07,12.5,42.89Z"/><path class="cls-9" d="M770.34,602.67c-5.67-4.55-8.79-10-9.3-16.19-1-12.51,9.16-24,9.26-24.08l.44.39c-.1.11-10.11,11.39-9.11,23.65.49,6,3.54,11.33,9.07,15.77Z"/><path class="cls-9" d="M1137,655.78a27.29,27.29,0,0,1-12-2.58c-7.4-3.7-10.4-10.63-8.24-19l.57.15c-2.86,11.08,3.74,16.24,7.93,18.33,9.38,4.69,25.28,3.09,33.1-6.68a46.43,46.43,0,0,0,8.86-41l-.06-.18.14-.13c16.53-15.49.14-36.07,0-36.28l.45-.37c.18.21,16.81,21.1.11,37a47.06,47.06,0,0,1-9,41.38C1153.67,652.81,1145.05,655.78,1137,655.78Z"/><path class="cls-9" d="M1123,690.53l-.06-.58c.24,0,23.69-2.73,32.81-20.3A32.7,32.7,0,0,0,1159.6,653a22.46,22.46,0,0,0-1.27-6.76l.54-.22c.05.1,4.27,10.6-2.62,23.86C1147,687.77,1123.22,690.51,1123,690.53Z"/><path class="cls-9" d="M609.81,552.66l-.57-.14c.06-.25,6.29-24.78,27.62-32.26l.19.55C616,528.19,609.87,552.41,609.81,552.66Z"/><path class="cls-9" d="M932.94,662.88c-10.14-7.65-15.59-16.37-16.19-25.92-.88-13.9,9-25.39,11.39-28-6.85.36-12.15-1.21-15.75-4.69-5.14-5-4.92-12.15-4.92-12.22l.59,0c0,.07-.21,7,4.74,11.79,3.61,3.48,9,5,16.06,4.46l.8-.06-.58.57c-.12.12-12.73,12.59-11.75,28.07.59,9.37,6,18,16,25.49Z"/><path class="cls-9" d="M942.86,683.36c-6.47-5.38-9.84-11.32-10-17.64-.3-9.94,7.54-17.42,7.62-17.5l.4.43c-.07.07-7.73,7.38-7.44,17.06.18,6.14,3.49,11.93,9.81,17.2Z"/><path class="cls-9" d="M1217.72,651l-.11-.57c8.44-1.56,19.39-5.91,23.67-17.72a29.88,29.88,0,0,0,1.49-13.62l.58-.1C1243.39,619.21,1247.5,645.44,1217.72,651Z"/></g></g></svg>