<svg width="22" height="22" viewBox="0 0 22 22" fill="none" xmlns="http://www.w3.org/2000/svg">
<g clip-path="url(#clip0_66_1722)">
<path d="M18.9573 15.3121C17.6283 14.1754 16.2795 13.4869 14.9668 14.6219L14.183 15.3078C13.6095 15.8058 12.5432 18.1324 8.42048 13.3899C4.29865 8.65332 6.75149 7.91583 7.32585 7.42217L8.11398 6.73534C9.41982 5.59778 8.92702 4.16574 7.9852 2.69164L7.41685 1.79876C6.47074 0.328086 5.4405 -0.637768 4.13123 0.498076L3.4238 1.11622C2.84514 1.53776 1.22766 2.90799 0.835311 5.51107C0.363115 8.63443 1.85268 12.2111 5.26536 16.1355C8.67375 20.0616 12.0109 22.0336 15.172 21.9993C17.7991 21.9709 19.3857 20.5612 19.8819 20.0487L20.592 19.4297C21.8978 18.2947 21.0865 17.1391 19.7566 15.9998L18.9573 15.3121Z" fill="white"/>
</g>
<defs>
<clipPath id="clip0_66_1722">
<rect width="22" height="22" fill="white"/>
</clipPath>
</defs>
</svg>
