<svg width="41" height="40" viewBox="0 0 41 40" fill="none" xmlns="http://www.w3.org/2000/svg">
<g clip-path="url(#clip0_66_1753)">
<path d="M30.237 13.0008C29.4848 13.4357 28.6625 13.743 27.805 13.9099C27.0763 13.1642 26.0655 12.7435 25.0095 12.7462C22.9294 12.731 21.2248 14.3533 21.1891 16.3825C21.19 16.6642 21.2243 16.9449 21.2916 17.2189C18.228 17.0778 15.3667 15.6854 13.4084 13.3826C13.0734 13.9333 12.8934 14.5605 12.8866 15.2008C12.8867 16.4354 13.5288 17.5856 14.5919 18.2553C13.9848 18.236 13.3909 18.0772 12.8586 17.7917C12.8586 17.7917 12.8586 17.7917 12.8586 17.8371C12.8526 19.6103 14.1397 21.1372 15.9244 21.4735C15.3618 21.6198 14.7728 21.6415 14.2005 21.5371C14.715 23.0392 16.1463 24.0599 17.7694 24.0826C16.4181 25.1078 14.7567 25.6672 13.0451 25.6735C12.7336 25.6732 12.4225 25.655 12.1133 25.619C13.8668 26.7012 15.8995 27.275 17.9744 27.2735C23.8917 27.379 28.7762 22.7846 28.8843 17.0117C28.8854 16.9505 28.886 16.8893 28.886 16.8281C28.886 16.6705 28.886 16.5129 28.886 16.3553C29.6164 15.8332 30.2471 15.1901 30.7497 14.4553C30.0501 14.7542 29.3091 14.9502 28.5506 15.0371C29.3483 14.5816 29.948 13.8574 30.237 13.0008Z" fill="white"/>
<path d="M20.5 0C9.17815 0 0 8.9543 0 20C0 31.0457 9.17815 40 20.5 40C31.8218 40 41 31.0457 41 20C41 8.9543 31.8218 0 20.5 0ZM20.5 38.1818C10.2074 38.1818 1.86366 30.0416 1.86366 20C1.86366 9.95844 10.2074 1.8182 20.5 1.8182C30.7926 1.8182 39.1363 9.95844 39.1363 20C39.1363 30.0416 30.7926 38.1818 20.5 38.1818Z" fill="white"/>
</g>
<defs>
<clipPath id="clip0_66_1753">
<rect width="41" height="40" fill="white"/>
</clipPath>
</defs>
</svg>
