<svg xmlns="http://www.w3.org/2000/svg" viewBox="0 0 498.5 94.5"><defs><style>.cls-1{fill:#fff;}</style></defs><title>Asset 3</title><g id="Layer_2" data-name="Layer 2"><g id="Layer_1-2" data-name="Layer 1"><path class="cls-1" d="M122.23,2V92.47a2,2,0,0,1-2,2H102a2,2,0,0,1-2-2v-69a2,2,0,0,0-2-2H89.78a2,2,0,0,1-1.67-3.2L100.26.87A2,2,0,0,1,101.92,0H120.2A2,2,0,0,1,122.23,2Z"/><path class="cls-1" d="M59.33,60.82h4.83a2,2,0,0,1,2,2v22a2,2,0,0,1-2,2H43.91a2,2,0,0,1-1.66-3.2l15.42-22A2,2,0,0,1,59.33,60.82Z"/><path class="cls-1" d="M96.14,27.24V92.47a2,2,0,0,1-2,2h-22a2,2,0,0,1-2-2V86.91H70V60.82h.07V44.63a2,2,0,0,1,.37-1.17L82.61,26.07a2,2,0,0,1,1.66-.86h9.84A2,2,0,0,1,96.14,27.24Z"/><path class="cls-1" d="M93.91,3.2,30.59,93.63a2,2,0,0,1-1.67.87H2A2,2,0,0,1,.37,91.3L63.7.87A2,2,0,0,1,65.36,0H92.24A2,2,0,0,1,93.91,3.2Z"/><path class="cls-1" d="M146.33,92.16,160,1.73A2,2,0,0,1,162,0h13.47a2,2,0,0,1,2,1.73l13.66,90.43a2,2,0,0,1-2,2.34h-9.36a2,2,0,0,1-2-1.76L175.65,77a2,2,0,0,0-2-1.77h-9.81a2,2,0,0,0-2,1.77l-2.1,15.76a2,2,0,0,1-2,1.76h-9.36A2,2,0,0,1,146.33,92.16Zm23.18-61.43-.39-2.45h-.77L168,30.73l-3.68,27.53a2,2,0,0,0,2,2.3h4.87a2,2,0,0,0,2-2.3Z"/><path class="cls-1" d="M194.32,18.41V13.17a2,2,0,0,1,1.5-1.95A21.4,21.4,0,0,0,206,5l.14-.16A22.32,22.32,0,0,0,208.59,1a2,2,0,0,1,1.77-1h5.07a2,2,0,0,1,2,2V92.47a2,2,0,0,1-2,2h-9.82a2,2,0,0,1-2-2v-70a2,2,0,0,0-2-2h-5.19A2,2,0,0,1,194.32,18.41Z"/><path class="cls-1" d="M249.58,0h9.82a2,2,0,0,1,2,2V92.47a2,2,0,0,1-2,2h-9.82a2,2,0,0,1-2-2V2A2,2,0,0,1,249.58,0Z"/><path class="cls-1" d="M269.4,12.24V2a2,2,0,0,1,2-2h36.05a2,2,0,0,1,2,2V12.24a2,2,0,0,1-2,2h-9.05a2,2,0,0,0-2,2V92.47a2,2,0,0,1-2,2h-9.83a2,2,0,0,1-2-2V16.3a2,2,0,0,0-2-2h-9.05A2,2,0,0,1,269.4,12.24Z"/><path class="cls-1" d="M365.72,14.27H350.63a2,2,0,0,0-2,2V37.05a2,2,0,0,0,2,2h8.79a2,2,0,0,1,2,2v10.2a2,2,0,0,1-2,2h-8.79a2,2,0,0,0-2,2V92.47a2,2,0,0,1-2,2h-9.82a2,2,0,0,1-2-2V2a2,2,0,0,1,2-2h29a2,2,0,0,1,2,2V12.24A2,2,0,0,1,365.72,14.27Z"/><path class="cls-1" d="M378,0h9.82a2,2,0,0,1,2,2V92.47a2,2,0,0,1-2,2H378a2,2,0,0,1-2-2V2A2,2,0,0,1,378,0Z"/><path class="cls-1" d="M424.66,92.83l-6.6-36.52a2,2,0,0,0-2-1.67h0a2,2,0,0,0-2,2v35.8a2,2,0,0,1-2,2h-9.82a2,2,0,0,1-2-2V2a2,2,0,0,1,2-2H414c16.59,0,23.66,9.39,23.66,27.26,0,8.82-2.16,16.85-6.8,20.77a2.06,2.06,0,0,0-.68,1.93l8.17,42.12a2,2,0,0,1-2,2.42h-9.73A2,2,0,0,1,424.66,92.83Zm-4.07-77.14a7.79,7.79,0,0,0-4.27-1.81,2,2,0,0,0-2.29,2V39.6a2,2,0,0,0,2.34,2,8.25,8.25,0,0,0,4.22-1.89c2.06-1.8,3.73-5.27,3.73-12S422.65,17.49,420.59,15.69Z"/><path class="cls-1" d="M471.33,94.5a2,2,0,0,1-2-1.73L460.7,35.1l-.51-4h-.77V92.47a2,2,0,0,1-2,2h-8.8a2,2,0,0,1-2-2V2a2,2,0,0,1,2-2h13.26a2,2,0,0,1,2,1.65l7.9,41.49s0,.08,0,.12l.63,5h.26l.64-5a.5.5,0,0,1,0-.12l7.9-41.49a2,2,0,0,1,2-1.65h13.26a2,2,0,0,1,2,2V92.47a2,2,0,0,1-2,2h-8.79a2,2,0,0,1-2-2V31.11h-.77l-.52,4-8.61,57.67a2,2,0,0,1-2,1.73Z"/></g></g></svg>