<svg width="656" height="476" viewBox="0 0 656 476" fill="none" xmlns="http://www.w3.org/2000/svg">
<path d="M88.94 403.28H34.38C31.4988 403.278 28.7366 402.131 26.7002 400.093C24.6639 398.055 23.52 395.292 23.52 392.41V392.41C23.52 389.53 24.6642 386.768 26.7008 384.731C28.7375 382.695 31.4998 381.55 34.38 381.55H88.94C91.8212 381.55 94.5845 382.694 96.6227 384.731C98.661 386.767 99.8074 389.529 99.81 392.41V392.41C99.81 393.838 99.5289 395.251 98.9826 396.57C98.4363 397.889 97.6356 399.087 96.6263 400.097C95.6169 401.106 94.4186 401.907 93.0998 402.453C91.781 402.999 90.3675 403.28 88.94 403.28V403.28Z" stroke="#DDDDDD" stroke-miterlimit="10"/>
<path d="M229.52 166.52H199.83C192.004 166.52 185.66 172.864 185.66 180.69V180.7C185.66 188.526 192.004 194.87 199.83 194.87H229.52C237.346 194.87 243.69 188.526 243.69 180.7V180.69C243.69 172.864 237.346 166.52 229.52 166.52Z" stroke="#DDDDDD" stroke-miterlimit="10"/>
<path d="M340.64 51.3304H286.08C283.2 51.3304 280.437 50.1862 278.401 48.1496C276.364 46.1129 275.22 43.3506 275.22 40.4704V40.4704C275.219 39.0434 275.499 37.6301 276.044 36.3114C276.589 34.9926 277.389 33.7942 278.397 32.7847C279.406 31.7752 280.603 30.9744 281.922 30.428C283.24 29.8816 284.653 29.6004 286.08 29.6004H340.64C342.068 29.5991 343.483 29.8793 344.803 30.4249C346.123 30.9706 347.322 31.7711 348.333 32.7806C349.343 33.7901 350.145 34.9888 350.692 36.3083C351.238 37.6278 351.52 39.0421 351.52 40.4704V40.4704C351.519 41.8978 351.236 43.3111 350.689 44.6294C350.141 45.9477 349.339 47.1453 348.329 48.1537C347.319 49.1621 346.12 49.9617 344.8 50.5068C343.481 51.0518 342.067 51.3317 340.64 51.3304V51.3304Z" stroke="#DDDDDD" stroke-miterlimit="10"/>
<path d="M509.76 347.31H465.76C464.453 347.31 463.199 346.791 462.274 345.866C461.349 344.942 460.83 343.688 460.83 342.38V342.38C460.83 341.073 461.349 339.819 462.274 338.894C463.199 337.97 464.453 337.45 465.76 337.45H509.76C511.068 337.45 512.322 337.97 513.246 338.894C514.171 339.819 514.69 341.073 514.69 342.38V342.38C514.69 343.688 514.171 344.942 513.246 345.866C512.322 346.791 511.068 347.31 509.76 347.31V347.31Z" stroke="#DDDDDD" stroke-miterlimit="10"/>
<path d="M146.72 91.3504H102.72C101.413 91.3504 100.159 90.831 99.234 89.9064C98.3094 88.9819 97.79 87.7279 97.79 86.4204V86.4204C97.79 85.773 97.9176 85.1319 98.1653 84.5338C98.4131 83.9356 98.7762 83.3921 99.234 82.9343C99.6918 82.4765 100.235 82.1134 100.833 81.8656C101.432 81.6179 102.073 81.4904 102.72 81.4904H146.72C147.367 81.4904 148.009 81.6179 148.607 81.8656C149.205 82.1134 149.748 82.4765 150.206 82.9343C150.664 83.3921 151.027 83.9356 151.275 84.5338C151.523 85.1319 151.65 85.773 151.65 86.4204V86.4204C151.65 87.7279 151.131 88.9819 150.206 89.9064C149.282 90.831 148.028 91.3504 146.72 91.3504V91.3504Z" stroke="#DDDDDD" stroke-miterlimit="10"/>
<path d="M581.36 13.0604C594.72 19.4504 603.53 12.0604 611.27 8.36037C614.526 6.79071 618.226 6.40124 621.738 7.25859C625.249 8.11594 628.354 10.1668 630.52 13.0604L629.92 41.8404C629.92 41.8404 618.99 37.9604 612.77 41.8404C606.55 45.7204 599.11 55.2804 581.34 42.3704L581.36 13.0604Z" fill="#DDDDDD" stroke="#DDDDDD" stroke-width="2" stroke-linecap="round" stroke-linejoin="round"/>
<path d="M632.79 132.47C632.052 132.47 631.344 132.178 630.821 131.657C630.298 131.136 630.003 130.429 630 129.69V7.90038C630 7.53446 630.072 7.17214 630.213 6.8342C630.353 6.49626 630.559 6.18936 630.818 5.93108C631.077 5.6728 631.385 5.46824 631.723 5.32912C632.062 5.19 632.424 5.11906 632.79 5.12038C633.156 5.11906 633.518 5.19 633.857 5.32912C634.195 5.46824 634.503 5.6728 634.762 5.93108C635.021 6.18936 635.227 6.49626 635.367 6.8342C635.508 7.17214 635.58 7.53446 635.58 7.90038V129.69C635.577 130.429 635.282 131.136 634.759 131.657C634.236 132.178 633.528 132.47 632.79 132.47Z" fill="#F9F9F9" stroke="#DDDDDD" stroke-width="2" stroke-linecap="round" stroke-linejoin="round"/>
<path d="M611.76 133.39H654.04" stroke="#DDDDDD" stroke-width="2" stroke-linecap="round" stroke-linejoin="round"/>
<path d="M578.92 180.69H561.93V216.81H518.69V258.49" stroke="#DDDDDD" stroke-width="2" stroke-linecap="round" stroke-linejoin="round"/>
<path d="M240.16 415.44H196.91V451.28H132.62V474.79H1" stroke="#DDDDDD" stroke-width="2" stroke-linecap="round" stroke-linejoin="round"/>
<path d="M410.96 293.53V323.36H356.7V355.5H302.57V387.72H248.58V415.44" stroke="#DDDDDD" stroke-width="2" stroke-linecap="round" stroke-linejoin="round"/>
<path d="M506.46 259.12H461.19V293.53H426.99" stroke="#DDDDDD" stroke-width="2" stroke-linecap="round" stroke-linejoin="round"/>
<path d="M88.94 403.28H34.38C31.4988 403.278 28.7366 402.131 26.7002 400.093C24.6639 398.055 23.52 395.292 23.52 392.41V392.41C23.52 389.53 24.6642 386.768 26.7008 384.731C28.7375 382.695 31.4998 381.55 34.38 381.55H88.94C91.8212 381.55 94.5845 382.694 96.6227 384.731C98.661 386.767 99.8074 389.529 99.81 392.41V392.41C99.81 393.838 99.5289 395.251 98.9826 396.57C98.4363 397.889 97.6356 399.087 96.6263 400.097C95.6169 401.106 94.4186 401.907 93.0998 402.453C91.781 402.999 90.3675 403.28 88.94 403.28V403.28Z" stroke="#DDDDDD" stroke-miterlimit="10"/>
<path d="M229.52 166.52H199.83C192.004 166.52 185.66 172.864 185.66 180.69V180.7C185.66 188.526 192.004 194.87 199.83 194.87H229.52C237.346 194.87 243.69 188.526 243.69 180.7V180.69C243.69 172.864 237.346 166.52 229.52 166.52Z" stroke="#DDDDDD" stroke-miterlimit="10"/>
<path d="M340.64 51.3304H286.08C283.2 51.3304 280.437 50.1862 278.401 48.1496C276.364 46.1129 275.22 43.3506 275.22 40.4704V40.4704C275.219 39.0434 275.499 37.6301 276.044 36.3114C276.589 34.9926 277.389 33.7942 278.397 32.7847C279.406 31.7752 280.603 30.9744 281.922 30.428C283.24 29.8816 284.653 29.6004 286.08 29.6004H340.64C342.068 29.5991 343.483 29.8793 344.803 30.4249C346.123 30.9706 347.322 31.7711 348.333 32.7806C349.343 33.7901 350.145 34.9888 350.692 36.3083C351.238 37.6278 351.52 39.0421 351.52 40.4704V40.4704C351.519 41.8978 351.236 43.3111 350.689 44.6294C350.141 45.9477 349.339 47.1453 348.329 48.1537C347.319 49.1621 346.12 49.9617 344.8 50.5068C343.481 51.0518 342.067 51.3317 340.64 51.3304V51.3304Z" stroke="#DDDDDD" stroke-miterlimit="10"/>
<path d="M509.76 347.31H465.76C464.453 347.31 463.199 346.791 462.274 345.866C461.349 344.942 460.83 343.688 460.83 342.38V342.38C460.83 341.073 461.349 339.819 462.274 338.894C463.199 337.97 464.453 337.45 465.76 337.45H509.76C511.068 337.45 512.322 337.97 513.246 338.894C514.171 339.819 514.69 341.073 514.69 342.38V342.38C514.69 343.688 514.171 344.942 513.246 345.866C512.322 346.791 511.068 347.31 509.76 347.31V347.31Z" stroke="#DDDDDD" stroke-miterlimit="10"/>
<path d="M146.72 91.3504H102.72C101.413 91.3504 100.159 90.831 99.234 89.9064C98.3094 88.9819 97.79 87.7279 97.79 86.4204V86.4204C97.79 85.773 97.9176 85.1319 98.1653 84.5338C98.4131 83.9356 98.7762 83.3921 99.234 82.9343C99.6918 82.4765 100.235 82.1134 100.833 81.8656C101.432 81.6179 102.073 81.4904 102.72 81.4904H146.72C147.367 81.4904 148.009 81.6179 148.607 81.8656C149.205 82.1134 149.748 82.4765 150.206 82.9343C150.664 83.3921 151.027 83.9356 151.275 84.5338C151.523 85.1319 151.65 85.773 151.65 86.4204V86.4204C151.65 87.7279 151.131 88.9819 150.206 89.9064C149.282 90.831 148.028 91.3504 146.72 91.3504V91.3504Z" stroke="#DDDDDD" stroke-miterlimit="10"/>
<path d="M581.36 13.0604C594.72 19.4504 603.53 12.0604 611.27 8.36037C614.526 6.79071 618.226 6.40124 621.738 7.25859C625.249 8.11594 628.354 10.1668 630.52 13.0604L629.92 41.8404C629.92 41.8404 618.99 37.9604 612.77 41.8404C606.55 45.7204 599.11 55.2804 581.34 42.3704L581.36 13.0604Z" fill="#DDDDDD" stroke="#DDDDDD" stroke-width="2" stroke-linecap="round" stroke-linejoin="round"/>
<path d="M632.79 132.47C632.052 132.47 631.344 132.178 630.821 131.657C630.298 131.136 630.003 130.429 630 129.69V7.90038C630 7.53446 630.072 7.17214 630.213 6.8342C630.353 6.49626 630.559 6.18936 630.818 5.93108C631.077 5.6728 631.385 5.46824 631.723 5.32912C632.062 5.19 632.424 5.11906 632.79 5.12038C633.156 5.11906 633.518 5.19 633.857 5.32912C634.195 5.46824 634.503 5.6728 634.762 5.93108C635.021 6.18936 635.227 6.49626 635.367 6.8342C635.508 7.17214 635.58 7.53446 635.58 7.90038V129.69C635.577 130.429 635.282 131.136 634.759 131.657C634.236 132.178 633.528 132.47 632.79 132.47Z" fill="#F9F9F9" stroke="#DDDDDD" stroke-width="2" stroke-linecap="round" stroke-linejoin="round"/>
<path d="M611.76 133.39H654.04" stroke="#DDDDDD" stroke-width="2" stroke-linecap="round" stroke-linejoin="round"/>
<path d="M578.92 180.69H561.93V216.81H518.69V258.49" stroke="#DDDDDD" stroke-width="2" stroke-linecap="round" stroke-linejoin="round"/>
<path d="M240.16 415.44H196.91V451.28H132.62V474.79H1" stroke="#DDDDDD" stroke-width="2" stroke-linecap="round" stroke-linejoin="round"/>
<path d="M410.96 293.53V323.36H356.7V355.5H302.57V387.72H248.58V415.44" stroke="#DDDDDD" stroke-width="2" stroke-linecap="round" stroke-linejoin="round"/>
<path d="M506.46 259.12H461.19V293.53H426.99" stroke="#DDDDDD" stroke-width="2" stroke-linecap="round" stroke-linejoin="round"/>
<path d="M472.5 15.5228C466.5 16.7228 464.333 22.6894 464 25.5228H468.5C474.667 29.1894 487.7 35.5228 490.5 31.5228C494 26.5228 488.5 18.0228 483.5 15.5228C478.5 13.0228 480 14.0228 472.5 15.5228Z" fill="#7F542D"/>
<path d="M485.15 31.0104C485.15 31.0104 484.95 31.4704 484.59 32.2504C484.23 33.0304 483.88 33.7204 483.36 34.7004C483.01 35.3804 482.62 36.1104 482.18 36.8804C481.92 37.3504 481.64 37.8804 481.34 38.3304L481.05 38.8004C480.39 39.8904 479.66 41.0204 478.86 42.1304C478.3 42.9104 477.71 43.6904 477.09 44.4404C472.23 50.3304 468.15 47.8604 468.15 47.8604C467.011 48.8514 466.065 50.0449 465.36 51.3804C464.372 53.2097 463.658 55.1739 463.24 57.2104C451.77 65.5704 444.49 54.5504 447.9 44.7504C452.54 40.3802 456.679 35.5068 460.24 30.2204C456.54 25.3004 462.7 21.0104 465.53 23.8304L471.66 20.9904C484.58 17.5704 485.15 31.0104 485.15 31.0104Z" fill="#FEBD9D"/>
<path d="M466 29.5C466.4 27.5 465.167 24.3333 464.5 23L469 20.5L475 18.5C471.833 23 465.6 31.5 466 29.5Z" fill="#7F542D"/>
<path d="M461.89 25.0704C463.51 25.0704 464.89 25.7304 464.58 28.2204" stroke="#F4A789" stroke-width="0.75" stroke-linecap="round" stroke-linejoin="round"/>
<path d="M463.52 29.4004C461.17 27.9404 463.23 26.0204 464.52 27.2304" stroke="#F4A789" stroke-width="0.75" stroke-linecap="round" stroke-linejoin="round"/>
<path d="M475.02 41.8404C473.33 41.3104 472.6 39.1704 473.02 37.3204C468.52 40.4604 471.88 44.1804 475.02 41.8404Z" fill="white" stroke="#F4A789" stroke-width="0.75" stroke-linecap="round" stroke-linejoin="round"/>
<path d="M476.18 39.2304C477.7 39.2304 479.03 39.4904 479.39 36.6204C479.479 35.8032 479.765 35.0197 480.223 34.3371C480.681 33.6544 481.298 33.0928 482.02 32.7004" stroke="#F4A789" stroke-width="0.75" stroke-linecap="round" stroke-linejoin="round"/>
<path d="M460.24 30.2204C460.792 30.993 461.566 31.5791 462.46 31.9004" stroke="#F4A789" stroke-width="0.75" stroke-linecap="round" stroke-linejoin="round"/>
<path d="M476.06 33.9004C476.06 34.0982 476.119 34.2915 476.229 34.456C476.339 34.6204 476.495 34.7486 476.677 34.8243C476.86 34.9 477.061 34.9198 477.255 34.8812C477.449 34.8426 477.627 34.7474 477.767 34.6075C477.907 34.4676 478.002 34.2895 478.041 34.0955C478.079 33.9015 478.06 33.7004 477.984 33.5177C477.908 33.335 477.78 33.1788 477.616 33.0689C477.451 32.959 477.258 32.9004 477.06 32.9004C476.795 32.9004 476.541 33.0057 476.353 33.1933C476.165 33.3808 476.06 33.6352 476.06 33.9004Z" fill="#683F1D"/>
<path d="M482.18 36.9004C481.92 37.3704 481.64 37.9004 481.34 38.3504H481.27C481.005 38.3504 480.75 38.245 480.563 38.0575C480.375 37.8699 480.27 37.6156 480.27 37.3504C480.27 37.0851 480.375 36.8308 480.563 36.6433C480.75 36.4557 481.005 36.3504 481.27 36.3504C481.458 36.3472 481.643 36.3971 481.804 36.4944C481.965 36.5917 482.095 36.7324 482.18 36.9004Z" fill="#683F1D"/>
<path d="M475.68 28.9004C475.2 30.3504 479.68 31.9004 480.35 30.4004C481.02 28.9004 476.29 27.0104 475.68 28.9004Z" fill="#683F1D"/>
<path d="M484.59 32.2504C484.29 32.8804 483.88 33.7204 483.36 34.7004C482.47 33.7004 481.65 32.3804 481.94 31.8704C482.4 31.0604 483.65 31.6304 484.59 32.2504Z" fill="#683F1D"/>
<path d="M468.15 47.9004C467.011 48.8914 466.065 50.0849 465.36 51.4204C459.56 47.0504 463.25 42.0704 463.25 42.0704C464.261 44.4612 465.969 46.4926 468.15 47.9004Z" fill="#F4A789"/>
<path d="M491.08 30.0604C491 31.6904 489.5 33.3204 486.97 33.3604C484.62 33.3604 482.89 30.7104 483.28 28.1004C483.28 28.1004 479.28 29.0304 478.61 23.8204C478.61 23.8204 475.35 26.4804 473.61 22.1604C471.64 23.9005 469.839 25.8224 468.23 27.9004C466.23 30.7004 465.23 30.3104 465.17 29.1204C465.11 27.9304 466.36 25.9604 466.51 25.7204C467.808 24.9264 468.892 23.828 469.67 22.5204C472.21 18.7304 474.82 16.3904 477.07 19.1904C479.32 21.9904 481.92 19.1904 482.91 22.5804C483.85 25.8304 485.97 30.8404 491.08 30.0604Z" fill="#683F1D"/>
<path d="M476.52 14.4904C476.65 17.4204 474.06 20.9404 474.06 20.9404" stroke="#7F542D" stroke-width="0.75" stroke-linecap="round" stroke-linejoin="round"/>
<path d="M479.42 22.6904C479.952 21.7189 480.691 20.876 481.584 20.2211C482.477 19.5663 483.503 19.1154 484.59 18.9004" stroke="#7F542D" stroke-width="0.75" stroke-linecap="round" stroke-linejoin="round"/>
<path d="M483.78 27.2204C485.227 26.3372 486.908 25.9152 488.6 26.0104" stroke="#7F542D" stroke-width="0.75" stroke-linecap="round" stroke-linejoin="round"/>
<path d="M467.97 21.9004C468.509 22.1346 468.981 22.498 469.346 22.9585C469.71 23.419 469.956 23.9624 470.06 24.5404" stroke="#7F542D" stroke-width="0.75" stroke-linecap="round" stroke-linejoin="round"/>
<path d="M472.22 35.4704C470.89 35.8404 469.44 34.7404 468.97 33.0304C468.5 31.3204 469.2 29.6304 470.53 29.2704C471.86 28.9104 473.32 30.0004 473.78 31.7104C474.24 33.4204 473.52 35.1104 472.22 35.4704Z" fill="#F4A789"/>
<path d="M481.05 38.8004C480.39 39.8904 479.66 41.0204 478.86 42.1304C478.772 41.9511 478.715 41.7585 478.69 41.5604C478.691 40.8949 478.929 40.2517 479.362 39.7459C479.794 39.2402 480.393 38.905 481.05 38.8004Z" fill="#F4A789"/>
<path d="M500.11 166.45C498.64 179.94 488.62 173.45 474.63 171.59L466.87 171.28L415.26 169.28L410.95 169.11L425.95 126.81C459.12 136.65 501.97 149.27 500.11 166.45Z" fill="#FED81D"/>
<path d="M466.87 171.28L415.26 169.28L416.8 158L423.85 139.9C423.85 139.9 435.75 139.18 432.13 149.59C428.51 160 429.96 167.38 448.76 162.47C460.12 159.48 464.88 165.81 466.87 171.28Z" fill="#FCC71F"/>
<path d="M439.03 110.9C430.24 122.35 425.48 147.16 424.38 162.05C423.59 172.77 421.98 200.38 417.95 223.47C404.04 253.3 384.87 239.21 385.95 218.19V218.08C387.82 202.68 386.95 189.5 385.24 183.99C382.92 176.67 377.19 152.27 376.24 142.26C374.1 120.26 379.05 101.5 386.24 90.7904L439.03 110.9Z" fill="#FED81D"/>
<path d="M423.85 169.59C424.06 166.59 424.24 164.06 424.38 162.09C425.082 153.478 426.467 144.934 428.52 136.54" stroke="#FCC71F" stroke-width="0.75" stroke-linecap="round" stroke-linejoin="round"/>
<path d="M391.52 106.71C383.42 161.19 399 181.71 396.63 212.23C395.776 220.642 394.234 228.97 392.02 237.13" stroke="#FCC71F" stroke-width="0.75" stroke-linecap="round" stroke-linejoin="round"/>
<path d="M389.23 132.47C395.16 126.18 398.603 117.95 398.92 109.31" stroke="#FCC71F" stroke-width="0.75" stroke-linecap="round" stroke-linejoin="round"/>
<path d="M424.63 119.13C424.63 119.13 422.09 130.83 421.07 134.13C421.07 134.13 424.63 134.7 425.9 132.46C427.17 130.22 429.55 120.46 429.55 120.46" stroke="#FCC71F" stroke-width="0.75" stroke-linecap="round" stroke-linejoin="round"/>
<path d="M483.79 96.1704L478.69 117.87C477.29 125.04 476.91 130.87 476.12 135.11C475.03 141.03 473.12 144.03 466.71 143.69L466.45 143.62L465.53 143.37L464.92 143.19L464.12 142.92C463.77 142.79 463.43 142.66 463.12 142.52C462.54 142.287 461.972 142.023 461.42 141.73L460.82 141.4C459.932 140.902 459.091 140.323 458.31 139.67C458.156 139.552 458.009 139.425 457.87 139.29C456.712 138.278 455.718 137.095 454.92 135.78C454.698 135.425 454.494 135.057 454.31 134.68C453.824 133.724 453.442 132.718 453.17 131.68C453.12 131.5 453.08 131.33 453.04 131.16C453 130.99 452.95 130.76 452.92 130.57C452.89 130.38 452.86 130.23 452.83 130.06C452.691 129.184 452.654 128.295 452.72 127.41C453.06 123.75 457.59 85.9904 457.59 85.9904L459.25 81.8904L461.47 76.4004L483.79 96.1704Z" fill="#A7CAF0"/>
<path d="M476.12 135.11C475.03 141.03 473.12 144.03 466.71 143.69L466.43 143.62L465.51 143.37L464.9 143.19L464.1 142.92C463.75 142.79 463.41 142.66 463.1 142.52C462.52 142.287 461.952 142.023 461.4 141.73L460.8 141.4C459.912 140.902 459.071 140.323 458.29 139.67C458.136 139.552 457.989 139.425 457.85 139.29C456.693 138.278 455.698 137.095 454.9 135.78C454.678 135.425 454.474 135.057 454.29 134.68C453.804 133.724 453.422 132.718 453.15 131.68C453.1 131.5 453.06 131.33 453.02 131.16C452.98 130.99 452.93 130.76 452.9 130.57C452.87 130.38 452.84 130.23 452.81 130.06C452.671 129.184 452.634 128.295 452.7 127.41C453.04 123.75 457.57 85.9904 457.57 85.9904L459.23 81.8904C462.82 88.7604 467.07 99.8904 462.12 107.46C454.5 119.12 455.62 138.04 470.73 135.58C472.512 135.285 474.314 135.128 476.12 135.11Z" fill="#A7CAF0"/>
<path d="M468.98 78.9804C467.647 80.0204 466.313 81.1404 464.98 82.3404C452.22 93.9304 440.63 112.34 437.36 114.34C432.65 117.16 421.61 115.54 411.02 112.85C403.051 110.869 395.242 108.292 387.66 105.14C381.25 102.14 379.66 100.29 380.73 97.9104C381.8 95.5304 388.17 80.6604 388.17 80.6604L386.6 79.1104L369.23 61.9904C379.52 54.2304 392.99 45.5604 405.36 40.7404C413.75 37.4804 421.62 36.0004 427.65 37.7404L468.98 78.9804Z" fill="#A7CAF0"/>
<path d="M468.98 78.9804C467.647 80.0204 466.313 81.1404 464.98 82.3404C451.56 82.5604 438.76 91.7004 427.45 81.8804C413.45 69.7304 426.12 60.7304 417.45 48.8804C414.393 44.9498 410.172 42.0866 405.39 40.7004C413.78 37.4404 421.65 35.9604 427.68 37.7004L468.98 78.9804Z" fill="#A7CAF0"/>
<path d="M411.03 112.83C403.061 110.849 395.252 108.272 387.67 105.12C381.26 102.12 379.67 100.27 380.74 97.8904C381.81 95.5104 388.18 80.6404 388.18 80.6404L386.61 79.0904C391.61 73.8304 398.54 66.5304 398.92 66.0904C399.53 65.3704 414.16 70.2504 414.16 70.2504C414.16 70.2504 413.67 86.6204 400.28 88.1804C386.89 89.7404 389.28 100.4 401.15 101.85C408.78 102.76 410.66 108.68 411.03 112.83Z" fill="#A7CAF0"/>
<path d="M370.19 61.2604C348.98 73.5704 366.97 115.62 413.72 73.6304C418.65 50.0004 392.09 47.0304 370.19 61.2604Z" fill="#A7CAF0"/>
<path d="M468.98 78.9804C465.099 82.0666 461.492 85.4826 458.2 89.1904" stroke="#83ADDF" stroke-width="0.75" stroke-linecap="round" stroke-linejoin="round"/>
<path d="M366.52 302.08C366.52 302.08 357.52 313.83 358.8 323.36H401.66C401.66 323.36 382.6 312.22 381.61 304.06L366.52 302.08Z" fill="#683F1D"/>
<path d="M418.38 220.95C418.24 221.81 418.1 222.66 417.95 223.5C416.39 232.5 414.46 240.76 412.07 247.11C403.52 269.81 389.07 305.32 389.07 305.32L361.52 303.03C363.52 297.66 373.52 274.85 383.11 233.96C384.335 228.743 385.267 223.462 385.9 218.14C385.95 217.76 385.99 217.37 386.03 216.99C388.1 204.6 414.33 192.67 418.38 220.95Z" fill="#FED81D"/>
<path d="M396.88 205C396.88 207.36 396.83 209.76 396.64 212.23C394.26 242.77 370.14 302.56 369.95 303.74" stroke="#FCC71F" stroke-width="0.75" stroke-linecap="round" stroke-linejoin="round"/>
<path d="M471.32 237.83C471.32 237.83 467.24 249.59 468.47 259.12H506.47C506.47 259.12 487.42 247.98 486.47 239.81L471.32 237.83Z" fill="#683F1D"/>
<path d="M500.43 174.47C497.3 197.89 491.31 241.15 491.31 241.15H466.42L474.63 171.59C474.74 159.48 482.96 146.59 491.36 152.23C502.93 160.05 501.04 169.9 500.43 174.47Z" fill="#FED81D"/>
<path d="M519.78 145.12C519.78 145.12 509.78 145.48 498.05 145.48C488.38 145.48 477.55 145.24 470.28 144.34C469.72 144.27 469.18 144.19 468.65 144.09C468.41 144.09 468.17 144.01 467.94 143.96C467.71 143.91 467.54 143.89 467.34 143.84C466.99 143.77 466.65 143.68 466.34 143.6L465.34 143.31L465.11 143.24L464.26 142.95L464.11 142.9L463.11 142.52C463.073 142.512 463.039 142.495 463.01 142.47C451.67 135.25 451.33 127.32 457.52 122.47C461.87 119.01 469.46 117.07 478.73 117.92L518.05 125.79L519.78 145.12Z" fill="#A7CAF0"/>
<path d="M498.05 145.48C488.38 145.48 477.55 145.24 470.28 144.34C469.72 144.27 469.18 144.19 468.65 144.09C468.41 144.09 468.17 144.01 467.94 143.96C467.71 143.91 467.54 143.89 467.34 143.84C466.99 143.77 466.65 143.68 466.34 143.6L465.34 143.31L465.11 143.24L464.26 142.95L464.11 142.9L463.11 142.52C463.073 142.512 463.039 142.495 463.01 142.47C451.67 135.25 451.33 127.32 457.52 122.47C457.42 130.47 461.41 137.14 470.74 135.62C483.52 133.48 494.57 138.56 498.05 145.48Z" fill="#A7CAF0"/>
<path d="M478.7 117.9C476.051 117.456 473.381 117.145 470.7 116.97" stroke="#83ADDF" stroke-width="0.75" stroke-linecap="round" stroke-linejoin="round"/>
<path d="M578.92 180.69L567.43 176.18L550.05 169.34C550.05 169.34 461.95 82.1304 419.75 40.2404C408.14 28.7104 400 20.6204 398.13 18.7204C391.91 12.3804 406.64 -4.27962 414.51 2.66038C415.12 3.21038 423.29 11.1304 435.57 23.0804C477.76 64.0804 568.57 152.64 568.57 152.64L574.65 169.08L578.92 180.69Z" fill="#F9F9F9" stroke="#DDDDDD" stroke-width="2" stroke-linecap="round" stroke-linejoin="round"/>
<path d="M442.82 41.1904L556.08 150.76" stroke="#DDDDDD" stroke-linecap="round" stroke-linejoin="round"/>
<path d="M437.99 48.6004L550.25 157.21" stroke="#DDDDDD" stroke-linecap="round" stroke-linejoin="round"/>
<path d="M574.62 169.08C571.474 170.544 568.933 173.053 567.43 176.18L550.05 169.34C550.05 169.34 550.53 163.55 556.95 164.44C555.57 160.69 558.34 156.44 563.08 159.5C563.08 159.5 562.08 153.39 568.54 152.64L574.62 169.08Z" fill="#F9F9F9" stroke="#DDDDDD" stroke-width="2" stroke-linecap="round" stroke-linejoin="round"/>
<path d="M578.92 180.69L567.43 176.18C568.933 173.053 571.474 170.544 574.62 169.08L578.92 180.69Z" fill="#DDDDDD" stroke="#DDDDDD" stroke-width="2" stroke-linecap="round" stroke-linejoin="round"/>
<path d="M435.57 23.0804C430.3 28.7904 424.52 35.0804 419.75 40.2404C408.14 28.7104 400 20.6204 398.13 18.7204C391.91 12.3804 406.64 -4.27962 414.51 2.66038C415.12 3.21038 423.29 11.1304 435.57 23.0804Z" stroke="#DDDDDD" stroke-width="2" stroke-linecap="round" stroke-linejoin="round"/>
<path d="M429.79 17.4604L413.6 34.1404" stroke="#DDDDDD" stroke-width="2" stroke-linecap="round" stroke-linejoin="round"/>
<path d="M510.81 132.47C519.54 125.15 521.52 125.24 522.33 126.2C523.14 127.16 519.52 131.36 518.33 132.47C518.33 132.47 525.72 126.93 527.86 128.26C530 129.59 527.19 132.47 527.19 132.47C527.19 132.47 531.31 132.4 528.66 136.83C528.66 136.83 530.8 136.83 529.55 139.04C528.3 141.25 520.62 146.52 517.82 145.18C515.02 143.84 506.59 136.02 510.81 132.47Z" fill="#FEBD9D"/>
<path d="M514.6 129.43C520.16 125.2 521.6 125.43 522.33 126.2C523.06 126.97 519.52 131.36 518.33 132.47C518.33 132.47 525.72 126.93 527.86 128.26C530 129.59 527.19 132.47 527.19 132.47C527.19 132.47 531.31 132.4 528.66 136.83C528.66 136.83 530.8 136.83 529.55 139.04" stroke="#F4A789" stroke-width="0.75" stroke-linecap="round" stroke-linejoin="round"/>
<path d="M527.2 132.47L519.4 137.51" stroke="#F4A789" stroke-width="0.75" stroke-linecap="round" stroke-linejoin="round"/>
<path d="M521.47 141.31L528.67 136.83" stroke="#F4A789" stroke-width="0.75" stroke-linecap="round" stroke-linejoin="round"/>
<path d="M518.34 132.47L516.08 134.32" stroke="#F4A789" stroke-width="0.75" stroke-linecap="round" stroke-linejoin="round"/>
<path d="M426.84 70.1904C427.785 66.1336 427.675 61.9025 426.52 57.9004L417.71 62.1004C417.71 62.1004 420.92 70.9004 426.84 70.1904Z" fill="#A7CAF0"/>
<path d="M417.59 46.7104C420.064 46.462 422.519 46.0545 424.94 45.4904C425.47 45.1904 429.27 42.1504 430.94 41.0504C432.61 39.9504 439.4 35.5604 440.04 35.9704C440.68 36.3804 440.91 38.3704 439.69 39.8304C439.69 39.8304 447.1 36.6804 450.3 36.3004C452.91 35.9904 452.4 38.4504 450.65 39.5804C453.45 38.3404 456.78 39.5804 452.99 42.2804C455.55 41.8404 456.88 43.8104 452.87 46.7104C455.09 45.4904 456.6 47.1504 454.56 49.2204C451.24 52.6004 444.41 55.2204 442.25 56.0404C440.09 56.8604 426.4 59.9004 421.09 62.9004C421.09 62.9004 416.52 54.6904 417.59 46.7104Z" fill="#FEBD9D"/>
<path d="M430.95 41.0504C432.64 39.9504 439.41 35.5604 440.05 35.9704C440.69 36.3804 440.92 38.3704 439.7 39.8304C439.7 39.8304 447.11 36.6804 450.31 36.3004C452.92 35.9904 452.41 38.4504 450.66 39.5804C453.46 38.3404 456.79 39.5804 453 42.2804C455.56 41.8404 456.89 43.8104 452.88 46.7104C455.1 45.4904 456.61 47.1504 454.57 49.2204" stroke="#F4A789" stroke-width="0.75" stroke-linecap="round" stroke-linejoin="round"/>
<path d="M439.7 39.8304L435.87 41.7104" stroke="#F4A789" stroke-width="0.75" stroke-linecap="round" stroke-linejoin="round"/>
<path d="M450.66 39.5804L442.82 43.2204" stroke="#F4A789" stroke-width="0.75" stroke-linecap="round" stroke-linejoin="round"/>
<path d="M453 42.2804L444.49 46.7104" stroke="#F4A789" stroke-width="0.75" stroke-linecap="round" stroke-linejoin="round"/>
<path d="M452.88 46.7104L446.21 50.5004" stroke="#F4A789" stroke-width="0.75" stroke-linecap="round" stroke-linejoin="round"/>
<path d="M421.52 43.9804C407.83 45.3704 383.13 49.4704 364.61 62.8704C357.44 68.0504 357.55 89.8704 377.12 88.0604C396.69 86.2504 426.87 70.1904 426.87 70.1904C426.87 70.1904 419.11 68.4804 421.52 43.9804Z" fill="#A7CAF0"/>
<path d="M389.23 85.6604C407.12 80.6604 426.84 70.1904 426.84 70.1904C426.84 70.1904 419.11 68.4804 421.49 43.9804C411.019 44.9936 400.678 47.0744 390.63 50.1904" stroke="#83ADDF" stroke-width="0.75" stroke-linecap="round" stroke-linejoin="round"/>
<path d="M290.2 260.12C290.2 260.12 261.83 323.99 247.76 350.38C224.32 366.9 220.67 349.9 224.4 336.22C226.02 332.84 230.78 317.74 235.76 300.69C239.98 286.23 244.35 270.38 247.1 259.12L279.19 259.86L290.2 260.12Z" fill="#83ADDF"/>
<path d="M280.05 263.9C277.23 284.12 252.53 272.42 250.14 284.12C248.95 289.97 244.42 295.82 235.76 300.73C239.98 286.27 244.35 270.42 247.1 259.16L279.19 259.9C279.984 261.072 280.293 262.506 280.05 263.9Z" fill="#83ADDF"/>
<path d="M259.17 274.18C256.56 275.38 258.17 276.85 258.91 279.03C259.65 281.21 255.78 280.68 255.91 283.63C256.04 286.58 257.47 284.93 255.91 289.37C254.4 293.66 237.28 336.76 231.41 346.18" stroke="#A7CAF0" stroke-width="0.75" stroke-linecap="round" stroke-linejoin="round"/>
<path d="M325 260.49C325 260.49 290 267.69 266.22 269.91C251.69 271.28 241.93 266.51 237.17 259.34C235.663 257.047 234.622 254.48 234.107 251.784C233.592 249.088 233.614 246.318 234.17 243.63C245.99 229.63 259.78 225.491 271.25 225.041C279.381 224.732 287.485 226.146 295.03 229.19C323.85 226.74 339.95 227.96 348.62 231.7C363.52 249.5 345.75 256.05 325 260.49Z" fill="#83ADDF"/>
<path d="M250.86 232.95C250.32 242.95 254.4 246.42 275.92 246.11C299.6 245.77 332.63 243.61 334.4 243.92C338.01 244.55 330.99 250.27 333.47 250.36C336.74 250.49 340.27 250.97 338.47 253.21C336.67 255.45 334.73 256.36 336.06 257.75" stroke="#A7CAF0" stroke-width="0.75" stroke-linecap="round" stroke-linejoin="round"/>
<path d="M244.89 266.35C250.16 269.27 257.29 270.75 266.22 269.92C275.75 269.03 287.07 267.34 297.22 265.63" stroke="#83ADDF" stroke-width="0.75" stroke-linecap="round" stroke-linejoin="round"/>
<path d="M332.95 216.9C332.26 219.66 330.34 222.25 326.54 224.34C326.09 224.48 325.63 224.61 325.17 224.73C324.71 224.85 324.32 224.92 323.89 225L323.09 225.11L322.54 225.17H322.27C321.81 225.17 321.35 225.22 320.89 225.22C313.46 225.22 305.44 220.47 299.43 207.55C299.43 207.55 295.65 214.73 294.61 219.34C294.456 219.953 294.366 220.58 294.34 221.21C294.296 223.896 294.544 226.579 295.08 229.21C295.08 229.21 280.27 229.37 270.4 232.27C260.53 235.17 249.46 240.54 234.22 243.65C234.22 243.65 234.97 236.65 237.55 233.03C236.58 232.676 235.757 232.007 235.213 231.129C234.67 230.251 234.436 229.217 234.55 228.19C234.89 225.33 237.73 224.05 241.33 218.5C242.494 216.689 243.53 214.797 244.43 212.84C250.11 200.61 248.82 197.49 248.08 196.31L241.27 203.63C229.04 216.76 204.46 243.11 202.78 244.72C200.52 246.87 197 247.72 195.72 246.86C194.94 246.34 189.72 250.5 185.72 253.86C183.11 256.06 181.01 257.92 181.01 257.92L166.09 248.92C166.09 248.92 170.29 245.44 174.63 241.75C179.22 237.86 183.97 233.75 184.12 233.25C184.44 232.25 183.47 229.78 185.61 227.54C187.52 225.54 223.89 184.68 236.47 170.2C238.1 168.32 239.34 166.89 240.04 166.04C246.17 158.65 249.86 155.04 258.68 152.85L301.75 153.78C301.75 153.78 314.14 151.51 316.75 159.27C317.12 160.41 317.51 161.97 317.91 163.82C320.23 174.68 322.64 195.34 322.64 195.34C322.64 195.34 335.35 207.16 332.95 216.9Z" fill="#FED81D"/>
<path d="M185.66 253.9C183.05 256.1 180.95 257.96 180.95 257.96L166.03 248.96C166.03 248.96 170.23 245.48 174.57 241.79C179.105 244.971 182.89 249.104 185.66 253.9Z" fill="#B25E47"/>
<path d="M258.98 184.44C258.98 189.55 256.34 196.88 253.26 199.62C249.5 202.94 255.16 214.99 248.87 218.46C247.736 219.173 246.424 219.552 245.085 219.552C243.746 219.552 242.434 219.173 241.3 218.46C242.464 216.649 243.5 214.757 244.4 212.8C250.08 200.57 248.79 197.45 248.05 196.27C252.34 191.84 256.35 187.39 258.98 184.44Z" fill="#FCC71F"/>
<path d="M332.95 216.9C332.26 219.66 330.34 222.25 326.54 224.34C326.09 224.48 325.63 224.61 325.17 224.73C324.71 224.85 324.32 224.92 323.89 225L323.09 225.11L322.54 225.17H322.27C321.81 225.17 321.35 225.22 320.89 225.22C313.46 225.22 305.44 220.47 299.43 207.55C306.08 193.05 306.38 185.83 304.83 178.95C306.436 179.33 307.91 180.136 309.096 181.284C310.283 182.431 311.137 183.878 311.57 185.47C314.18 194.24 301.42 204.84 308.18 211.33C314.18 217.04 324.73 208.15 328.53 214.76C328.924 215.558 329.572 216.201 330.373 216.589C331.173 216.976 332.08 217.086 332.95 216.9Z" fill="#FCC71F"/>
<path d="M317.82 163.79C313.71 163.46 308.48 164.33 305.58 169.79C300.31 179.79 282.8 192.79 270.53 177.4C260.94 165.4 252.27 164.52 236.41 170.13C238.04 168.25 239.28 166.82 239.98 165.97C246.11 158.58 249.8 154.97 258.62 152.78L301.69 153.71C301.69 153.71 314.08 151.44 316.69 159.2C317.03 160.38 317.42 161.9 317.82 163.79Z" fill="#FED81D"/>
<path d="M177.88 244.31L186.94 236.74" stroke="#FCC71F" stroke-width="0.75" stroke-linecap="round" stroke-linejoin="round"/>
<path d="M181.2 247.65L189.95 240.19" stroke="#FCC71F" stroke-width="0.75" stroke-linecap="round" stroke-linejoin="round"/>
<path d="M183.82 250.95L191.64 245.07" stroke="#FCC71F" stroke-width="0.75" stroke-linecap="round" stroke-linejoin="round"/>
<path d="M239.01 242.54L241.3 233.56" stroke="#FCC71F" stroke-width="0.75" stroke-linecap="round" stroke-linejoin="round"/>
<path d="M243.15 241.45L245.24 232.2" stroke="#FCC71F" stroke-width="0.75" stroke-linecap="round" stroke-linejoin="round"/>
<path d="M247.1 240.27L248.87 232.2" stroke="#FCC71F" stroke-width="0.75" stroke-linecap="round" stroke-linejoin="round"/>
<path d="M251.8 238.73L253.25 231.59" stroke="#FCC71F" stroke-width="0.75" stroke-linecap="round" stroke-linejoin="round"/>
<path d="M256.4 237.11L257.34 230.68" stroke="#FCC71F" stroke-width="0.75" stroke-linecap="round" stroke-linejoin="round"/>
<path d="M260.59 235.58L260.97 231.29" stroke="#FCC71F" stroke-width="0.75" stroke-linecap="round" stroke-linejoin="round"/>
<path d="M262.03 180.9C262.03 180.9 260.87 182.25 258.98 184.4C256.35 187.4 252.34 191.8 248.05 196.25" stroke="#FCC71F" stroke-width="0.75" stroke-linecap="round" stroke-linejoin="round"/>
<path d="M299.41 207.54C306.06 193.04 306.36 185.82 304.81 178.94C304.17 176.01 303.18 173.16 302.22 169.83" stroke="#FCC71F" stroke-width="0.75" stroke-linecap="round" stroke-linejoin="round"/>
<path d="M255.41 160.26L262.03 155.82" stroke="#FCC71F" stroke-width="0.75" stroke-linecap="round" stroke-linejoin="round"/>
<path d="M262.6 164.1L266.17 158.21" stroke="#FCC71F" stroke-width="0.75" stroke-linecap="round" stroke-linejoin="round"/>
<path d="M268.82 165.58L270.53 159.88" stroke="#FCC71F" stroke-width="0.75" stroke-linecap="round" stroke-linejoin="round"/>
<path d="M272.97 166.17L274.2 160.76" stroke="#FCC71F" stroke-width="0.75" stroke-linecap="round" stroke-linejoin="round"/>
<path d="M277.05 167.05L277.79 161.3" stroke="#FCC71F" stroke-width="0.75" stroke-linecap="round" stroke-linejoin="round"/>
<path d="M283.91 167.05V161.7" stroke="#FCC71F" stroke-width="0.75" stroke-linecap="round" stroke-linejoin="round"/>
<path d="M289.12 161.7L289.91 167.05" stroke="#FCC71F" stroke-width="0.75" stroke-linecap="round" stroke-linejoin="round"/>
<path d="M292.82 161.04L294.16 167.05" stroke="#FCC71F" stroke-width="0.75" stroke-linecap="round" stroke-linejoin="round"/>
<path d="M296.16 160.26L298.01 165.14" stroke="#FCC71F" stroke-width="0.75" stroke-linecap="round" stroke-linejoin="round"/>
<path d="M298.85 158.92L301.27 164.1" stroke="#FCC71F" stroke-width="0.75" stroke-linecap="round" stroke-linejoin="round"/>
<path d="M301.86 158.92L304.9 161.3" stroke="#FCC71F" stroke-width="0.75" stroke-linecap="round" stroke-linejoin="round"/>
<path d="M303.38 156.17L307.12 158.04" stroke="#FCC71F" stroke-width="0.75" stroke-linecap="round" stroke-linejoin="round"/>
<path d="M293.45 148.75C292.71 148.41 291.9 148.06 291.03 147.75C288.922 146.964 286.679 146.604 284.43 146.69C276.71 146.78 258.62 152.87 258.62 152.87C259.01 153.41 263.74 158.66 273.38 160.65C283.02 162.64 292.9 161.65 297.13 159.97C298.367 159.436 299.44 158.583 300.241 157.499C301.042 156.416 301.542 155.14 301.69 153.8C301.69 153.8 299.68 151.59 293.45 148.75Z" fill="#B25E47"/>
<path d="M339.57 338.71C344.94 334.86 349.93 340.36 337.57 343.56" stroke="#83ADDF" stroke-width="0.75" stroke-linecap="round" stroke-linejoin="round"/>
<path d="M334.52 341.9C337.05 335.78 340.77 330.64 342.52 331.96C344.66 333.59 336.46 342.4 336.46 342.4" stroke="#83ADDF" stroke-width="0.75" stroke-linecap="round" stroke-linejoin="round"/>
<path d="M346.18 355.5H312.42C312.29 350.89 317.49 340.57 318.06 337.21C318.06 337.14 318.06 337.07 318.06 336.98C318.69 333.25 320.46 319.47 320.46 319.47L338.57 320.61L333.7 337.14C335.428 339.665 337.368 342.037 339.5 344.23C343.36 348.3 350.95 348.88 351.66 351.74C352.37 354.6 348.25 355.5 346.18 355.5Z" fill="#A7CAF0"/>
<path d="M338.6 320.61L333.73 337.14C333.73 337.14 323.91 337.06 318.09 336.98C318.72 333.25 320.49 319.47 320.49 319.47L338.6 320.61Z" fill="#B25E47"/>
<path d="M357.57 249.81C355.51 265.37 341.29 323.36 341.29 323.36H317.97L324.97 260.62C324.983 260.578 324.983 260.533 324.97 260.49C324.84 259.68 320.62 233.22 343.41 229.99C345.187 230.417 346.927 230.989 348.61 231.7C357.52 235.52 358.6 241.96 357.57 249.81Z" fill="#83ADDF"/>
<path d="M326.2 244.16C330.85 243.94 333.9 243.83 334.4 243.92C338.01 244.55 330.99 250.27 333.47 250.36C336.74 250.49 340.27 250.97 338.47 253.21C336.47 255.63 334.6 256.42 336.22 257.91C339.29 260.72 334.05 263.39 333.69 266.62C333.33 269.85 327.45 318.46 327.45 318.46" stroke="#A7CAF0" stroke-width="0.75" stroke-linecap="round" stroke-linejoin="round"/>
<path d="M352.66 160.24C351.18 164.24 349.59 167.77 349.59 167.77L349.43 168.4L346.43 180.59C346.43 180.59 348.79 181.22 348.73 183.29C348.67 185.36 344.31 202.36 340.1 211.95C339.92 212.38 339.7 212.8 339.48 213.23C339.26 213.66 339.15 213.85 338.97 214.15C338.597 214.777 338.197 215.387 337.77 215.98C337.57 216.26 337.37 216.53 337.16 216.79C336.95 217.05 336.7 217.36 336.45 217.63C336.2 217.9 335.98 218.16 335.74 218.42C335.23 218.95 334.74 219.42 334.13 219.94L333.28 220.64C331.863 221.766 330.315 222.716 328.67 223.47H328.6L327.6 223.89C327.26 224.02 326.92 224.15 326.6 224.26C319.69 222.49 317.42 217.96 317.26 213C316.99 204.74 322.62 195.28 322.62 195.28C322.616 195.264 322.616 195.247 322.62 195.23C322.95 194.29 328.38 179.15 329.49 177.9C330.6 176.65 332.8 177.47 332.8 177.47L336.69 165.1L337.54 162.39C337.54 162.39 337.23 161.74 336.81 160.79C335.901 158.842 335.229 156.79 334.81 154.68C334.58 152.27 336.81 150.76 338.61 150.48C338.61 150.48 338.78 146.34 340.16 144.66C340.375 144.322 340.681 144.052 341.043 143.88C341.405 143.708 341.808 143.643 342.205 143.691C342.603 143.739 342.979 143.899 343.289 144.152C343.6 144.405 343.833 144.741 343.96 145.12C344.39 143.68 347.54 143.48 347.62 146.32C347.741 145.827 348.045 145.398 348.471 145.12C348.897 144.843 349.413 144.738 349.913 144.827C350.414 144.916 350.862 145.193 351.166 145.6C351.47 146.007 351.607 146.515 351.55 147.02C351.55 147.02 353.86 144.78 355.06 149.02C355.61 151.24 354.2 156.04 352.66 160.24Z" fill="#FED81D"/>
<path d="M339.58 167.05C339.58 167.05 336.39 177.63 336.39 177.44" stroke="#FCC71F" stroke-width="0.75" stroke-linecap="round" stroke-linejoin="round"/>
<path d="M342.07 168.05L339.86 177.23" stroke="#FCC71F" stroke-width="0.75" stroke-linecap="round" stroke-linejoin="round"/>
<path d="M345.79 168.6L343.82 178.09" stroke="#FCC71F" stroke-width="0.75" stroke-linecap="round" stroke-linejoin="round"/>
<path d="M322.52 195.31C320.52 201.08 319.18 205.37 319.42 206.83" stroke="#FCC71F" stroke-width="0.75" stroke-linecap="round" stroke-linejoin="round"/>
<path d="M339.52 213.23C339.36 213.54 339.19 213.85 339.01 214.15C338.637 214.777 338.237 215.387 337.81 215.98C337.61 216.26 337.41 216.53 337.2 216.79C336.99 217.05 336.74 217.36 336.49 217.63C336.24 217.9 336.02 218.16 335.78 218.42C335.27 218.95 334.78 219.42 334.17 219.94L333.32 220.64C331.906 221.771 330.358 222.721 328.71 223.47H328.64L327.64 223.89C327.3 224.02 326.96 224.15 326.64 224.26C319.73 222.49 317.46 217.96 317.3 213C321.87 212.28 326.4 210.86 328.62 214.72C331.07 219.2 336.31 215.9 339.52 213.23Z" fill="#FCC71F"/>
<path d="M349.59 167.77L349.43 168.4C347.397 168.722 345.325 168.698 343.3 168.33C340.847 167.84 338.556 166.739 336.64 165.13L337.49 162.42C337.49 162.42 334.97 157.12 334.74 154.71C334.51 152.3 336.74 150.79 338.54 150.51C338.54 150.51 338.71 146.37 340.09 144.69C340.305 144.352 340.611 144.082 340.972 143.91C341.334 143.738 341.738 143.673 342.135 143.721C342.533 143.769 342.909 143.929 343.219 144.182C343.53 144.435 343.762 144.771 343.89 145.15C344.32 143.71 347.47 143.5 347.55 146.35C347.671 145.857 347.975 145.428 348.401 145.15C348.827 144.873 349.343 144.768 349.843 144.857C350.344 144.946 350.792 145.223 351.096 145.63C351.4 146.037 351.537 146.545 351.48 147.05C351.48 147.05 353.79 144.81 354.99 149.05C356.19 153.29 349.59 167.77 349.59 167.77Z" fill="#B25E47"/>
<path d="M336.39 159.9C335.633 158.233 335.079 156.48 334.74 154.68C334.51 152.26 336.74 150.76 338.54 150.48C338.54 150.48 338.71 146.34 340.09 144.66C340.305 144.322 340.611 144.052 340.972 143.88C341.334 143.708 341.738 143.643 342.135 143.691C342.533 143.739 342.909 143.899 343.219 144.152C343.53 144.405 343.762 144.741 343.89 145.12C344.32 143.68 347.47 143.47 347.55 146.32C347.671 145.827 347.975 145.398 348.401 145.12C348.827 144.843 349.343 144.738 349.843 144.827C350.344 144.916 350.792 145.193 351.096 145.6C351.4 146.007 351.537 146.515 351.48 147.02C351.48 147.02 353.79 144.78 354.99 149.02" stroke="#914839" stroke-width="0.75" stroke-linecap="round" stroke-linejoin="round"/>
<path d="M338.52 150.51C341.67 149.94 344.36 150.24 344.45 151.31C344.54 152.38 340.79 153.9 340.79 153.9C340.79 153.9 345.58 154.54 343.96 160.26" stroke="#914839" stroke-width="0.75" stroke-linecap="round" stroke-linejoin="round"/>
<path d="M343.82 144.95C343.82 144.95 343.14 149.44 342.82 150.32" stroke="#914839" stroke-width="0.75" stroke-linecap="round" stroke-linejoin="round"/>
<path d="M344.63 151.33C345.84 151.66 347 150.43 347.63 145.97" stroke="#914839" stroke-width="0.75" stroke-linecap="round" stroke-linejoin="round"/>
<path d="M346.12 150.76C346.228 151.304 346.53 151.789 346.97 152.126C347.41 152.463 347.957 152.628 348.51 152.59" stroke="#914839" stroke-width="0.75" stroke-linecap="round" stroke-linejoin="round"/>
<path d="M351.52 147.05C350.52 147.82 347.92 152.51 349.3 153.67C350.91 155.01 352.2 151.67 352.2 151.67" stroke="#914839" stroke-width="0.75" stroke-linecap="round" stroke-linejoin="round"/>
<path d="M171.85 427.82C176.49 424.87 180.85 424.31 181.85 425.03C183.26 426.13 178.98 429.09 175.49 429.56" stroke="#83ADDF" stroke-width="0.75" stroke-linecap="round" stroke-linejoin="round"/>
<path d="M167.72 430.67C174.66 428.06 181.72 430.67 180.93 433.02C180.04 435.73 169.08 431.82 169.08 431.82" stroke="#83ADDF" stroke-width="0.75" stroke-linecap="round" stroke-linejoin="round"/>
<path d="M170.75 441.9C172.8 443.95 176.75 448.37 176.2 449.65C175.65 450.93 173.56 451.32 173.56 451.32H158.76C158.76 451.32 156.38 449.9 156.29 448.54C156.2 447.18 151.53 419.86 152.29 417.48C152.94 415.48 162.23 411.79 166.62 409.34C167.234 409.01 167.82 408.629 168.37 408.2C171.09 405.91 179.43 397.39 179.43 397.39L189.82 410.16C183.82 413.51 177.1 418.07 173.99 422.16C173.155 423.158 172.572 424.341 172.29 425.61C171.52 430.2 168.71 439.82 170.75 441.9Z" fill="#A7CAF0"/>
<path d="M189.82 410.12C183.82 413.47 177.1 418.03 173.99 422.12L166.62 409.3C167.234 408.97 167.82 408.589 168.37 408.16C171.09 405.87 179.43 397.35 179.43 397.35L189.82 410.12Z" fill="#B25E47"/>
<path d="M247.76 350.38C246.117 353.592 244.297 356.71 242.31 359.72C232.52 373.49 189.21 414.41 189.21 414.41L174.64 395.64L224.41 336.21C232.94 325.23 255.22 327.84 247.76 350.38Z" fill="#83ADDF"/>
<path d="M228.32 350.25C217.26 363.51 180.55 403.25 180.55 403.25" stroke="#A7CAF0" stroke-width="0.75" stroke-linecap="round" stroke-linejoin="round"/>
<path d="M239.27 330.05C236.965 335.568 234.355 340.953 231.45 346.18" stroke="#A7CAF0" stroke-width="0.75" stroke-linecap="round" stroke-linejoin="round"/>
<path d="M306.91 145.59C303.45 144.59 303.38 147.29 305.01 148.39C306.64 149.49 305.81 152.92 301.75 153.39C301.38 153.44 300.42 153.58 299.26 153.7C297.09 153.92 294.26 154.1 293.42 153.63C292.58 153.16 292.53 151.85 292.83 150.47C292.88 150.19 292.97 149.91 293.05 149.61C293.517 148.152 294.116 146.74 294.84 145.39C296.766 145.349 298.647 144.797 300.29 143.79C304 141.32 304.1 136.37 302.6 131.21C302.224 129.921 301.77 128.655 301.24 127.42C300.83 126.42 300.37 125.42 299.88 124.49C295.36 115.68 288.95 115.69 288.95 115.69C291.79 120.55 289.09 123.85 287.43 124.69C285.77 125.53 283.96 126.1 284.05 129.44C284.14 132.78 282.64 133.28 281.64 133.11C278.49 132.53 276.25 134.92 277.64 137.54C279.03 140.16 282.93 139.34 284.09 138.1C284.09 138.1 286.4 139.65 286.53 141.5C286.66 143.35 283.09 145.57 284.78 148.45C285.101 148.957 285.276 149.542 285.286 150.141C285.296 150.741 285.141 151.331 284.837 151.848C284.533 152.365 284.093 152.788 283.564 153.071C283.035 153.353 282.439 153.485 281.84 153.45C280.377 153.276 278.893 153.504 277.55 154.11C277.227 154.268 276.919 154.456 276.63 154.67C276.425 154.823 276.232 154.99 276.05 155.17C274.53 156.71 273.4 158.6 269.78 157.77C266.16 156.94 265.52 151.9 265.52 151.9C260.39 152.13 256.96 152.75 256.63 148.57C256.36 145.25 260.08 144.06 262.05 143.7C262.436 143.649 262.799 143.485 263.094 143.23C263.388 142.974 263.602 142.638 263.708 142.263C263.814 141.888 263.808 141.491 263.692 141.119C263.575 140.747 263.352 140.417 263.05 140.17C261.14 138.71 262.57 136.45 265.36 135.49C268.15 134.53 267.11 128.33 267.36 125.31C267.75 119.91 272.75 115.21 279.46 114.89C279.46 114.89 282.93 107.38 291.33 108.67C299.73 109.96 303.54 118.08 303.15 121.82C302.76 125.56 302.71 129.54 306.76 129.73C310.81 129.92 313.09 132.41 311.63 134.9C310.17 137.39 309.13 139.26 312.2 141.31C315.27 143.36 310.37 146.56 306.91 145.59Z" fill="#683F1D"/>
<path d="M288.94 115.64C291.78 120.5 289.08 123.8 287.42 124.64C285.76 125.48 283.95 126.05 284.04 129.39C284.13 132.73 282.63 133.23 281.63 133.06C278.48 132.48 276.24 134.87 277.63 137.49C279.02 140.11 282.92 139.29 284.08 138.05C284.08 138.05 286.39 139.6 286.52 141.45C286.65 143.3 283.08 145.52 284.77 148.4C285.091 148.907 285.266 149.492 285.276 150.091C285.286 150.691 285.131 151.281 284.827 151.798C284.523 152.315 284.082 152.738 283.554 153.021C283.025 153.303 282.429 153.435 281.83 153.4C280.367 153.226 278.883 153.454 277.54 154.06C277.217 154.218 276.909 154.406 276.62 154.62C271.4 152.32 267.43 148.7 269.54 145.88C272.3 142.2 274.21 144.22 272.63 138.35C271.05 132.48 272.58 128.72 276.43 128.35C280.28 127.98 283.92 125.35 282 121.48C280.08 117.61 286.2 109.3 294 112.78C298.1 114.61 299.6 119.42 299.94 124.4C295.35 115.63 288.94 115.64 288.94 115.64Z" fill="#683F1D"/>
<path d="M300.29 143.76C299.9 146.7 298.08 149.57 292.83 150.45C292.88 150.17 292.97 149.89 293.05 149.59C293.517 148.132 294.116 146.72 294.84 145.37C296.767 145.326 298.648 144.77 300.29 143.76Z" fill="#683F1D"/>
<path d="M293.05 149.59C292.54 151.28 292.39 152.97 293.42 153.59C294.22 154.06 297.09 153.88 299.26 153.66C291.17 160.32 284.44 159.3 277.51 154.1C278.853 153.494 280.337 153.266 281.8 153.44C282.399 153.475 282.995 153.343 283.524 153.061C284.052 152.778 284.493 152.355 284.797 151.838C285.101 151.321 285.256 150.731 285.246 150.131C285.236 149.532 285.061 148.947 284.74 148.44C283.05 145.56 286.62 143.35 286.49 141.49C286.36 139.63 284.05 138.09 284.05 138.09C282.89 139.33 278.96 140.15 277.6 137.53C276.24 134.91 278.48 132.53 281.6 133.1C282.6 133.27 284.11 132.77 284.01 129.43C283.91 126.09 285.73 125.58 287.39 124.68C289.05 123.78 291.75 120.5 288.91 115.68C288.91 115.68 295.33 115.68 299.85 124.5C300.34 125.45 300.8 126.43 301.21 127.43C301.74 128.665 302.194 129.931 302.57 131.22C304.57 138.22 303.69 144.83 294.81 145.4C294.086 146.75 293.487 148.162 293.02 149.62L293.05 149.59Z" fill="#B25E47"/>
<path d="M302.6 131.18C302.22 131.319 301.809 131.345 301.415 131.254C301.02 131.164 300.661 130.961 300.38 130.67C299.72 129.82 300.1 128.38 301.24 127.38C301.768 128.619 302.222 129.888 302.6 131.18Z" fill="#914839"/>
<path d="M292.6 128.42C292.6 128.556 292.627 128.69 292.681 128.815C292.734 128.94 292.812 129.052 292.91 129.146C293.009 129.239 293.125 129.312 293.252 129.359C293.379 129.406 293.515 129.427 293.65 129.42C293.845 129.411 294.034 129.344 294.191 129.228C294.349 129.113 294.47 128.953 294.538 128.77C294.606 128.586 294.618 128.387 294.574 128.197C294.53 128.006 294.431 127.832 294.29 127.698C294.148 127.563 293.97 127.472 293.778 127.438C293.585 127.403 293.387 127.425 293.207 127.502C293.027 127.579 292.874 127.707 292.766 127.87C292.658 128.034 292.6 128.225 292.6 128.42Z" fill="#683F1D"/>
<path d="M297.07 126.25C297.07 126.516 297.175 126.77 297.363 126.958C297.551 127.145 297.805 127.25 298.07 127.25C298.206 127.251 298.34 127.223 298.465 127.17C298.589 127.117 298.702 127.038 298.796 126.94C298.889 126.842 298.962 126.726 299.009 126.599C299.056 126.471 299.077 126.336 299.07 126.2C299.07 125.935 298.965 125.681 298.777 125.493C298.59 125.306 298.335 125.2 298.07 125.2C297.934 125.2 297.8 125.228 297.676 125.281C297.551 125.334 297.438 125.413 297.345 125.511C297.251 125.609 297.179 125.725 297.131 125.852C297.084 125.98 297.063 126.115 297.07 126.25Z" fill="#683F1D"/>
<path d="M294.84 145.36C294.116 146.71 293.517 148.122 293.05 149.58C291.982 149.217 291.072 148.496 290.473 147.54C289.873 146.584 289.622 145.45 289.76 144.33C291.392 144.926 293.105 145.273 294.84 145.36Z" fill="#914839"/>
<path d="M279.46 136.43C280.15 134.65 282.46 134.98 283.46 136.02" stroke="#914839" stroke-width="0.75" stroke-linecap="round" stroke-linejoin="round"/>
<path d="M281.14 137.33C281.075 137.107 281.062 136.872 281.104 136.644C281.146 136.415 281.24 136.199 281.38 136.013C281.52 135.828 281.701 135.678 281.91 135.575C282.118 135.472 282.348 135.419 282.58 135.42" stroke="#914839" stroke-width="0.75" stroke-linecap="round" stroke-linejoin="round"/>
<path d="M284.06 138.09C284.407 137.663 284.656 137.164 284.79 136.63" stroke="#914839" stroke-width="0.75" stroke-linecap="round" stroke-linejoin="round"/>
<path d="M293.52 133.48C294.254 134.1 295.154 134.489 296.108 134.597C297.062 134.706 298.026 134.53 298.88 134.09" stroke="#914839" stroke-width="0.75" stroke-linecap="round" stroke-linejoin="round"/>
<path d="M299.87 131.05C300.33 129.57 300.03 128.51 298.32 128.23C297.496 128.043 296.766 127.569 296.259 126.893C295.752 126.217 295.501 125.384 295.55 124.54" stroke="#914839" stroke-width="0.75" stroke-linecap="round" stroke-linejoin="round"/>
<path d="M288.89 124.9C288.89 126.09 293.33 125.54 293.7 124.22C294 123.18 288.86 122.66 288.89 124.9Z" fill="#683F1D"/>
<path d="M297.59 119.46C296.51 118.95 295.03 123.24 296.37 123.57C297.03 123.74 300.12 120.67 297.59 119.46Z" fill="#683F1D"/>
<path d="M279.4 114.9C281.075 115.022 282.711 115.463 284.22 116.2" stroke="#7F542D" stroke-width="0.75" stroke-linecap="round" stroke-linejoin="round"/>
<path d="M282.22 122.63C278.9 123.86 274.91 125.94 274.79 129.93C274.67 133.92 276.38 137.54 271.1 140.14C265.82 142.74 270.82 149.4 270.82 149.4" stroke="#7F542D" stroke-width="0.75" stroke-linecap="round" stroke-linejoin="round"/>
<path d="M276.7 150.49C279.92 147.86 276.42 144.55 279.92 142.08" stroke="#7F542D" stroke-width="0.75" stroke-linecap="round" stroke-linejoin="round"/>
<path d="M285.7 119.74C280.3 117.61 274.06 120.29 272.7 122.57" stroke="#7F542D" stroke-width="0.75" stroke-linecap="round" stroke-linejoin="round"/>
<path d="M292.58 131.9C292.36 133.02 290.88 133.66 289.3 133.33C287.72 133 286.61 131.84 286.83 130.73C287.05 129.62 288.53 128.97 290.12 129.3C291.71 129.63 292.81 130.81 292.58 131.9Z" fill="#914839"/>
<path d="M36.6102 444.03C29.3802 451.79 27.6102 457.97 26.4502 462.03L42.6902 474.77H66.3702C66.3702 474.77 65.9502 469.05 61.3702 468.11C56.7902 467.17 54.0402 466.75 54.0402 466.75L49.5202 456.99L36.6102 444.03Z" fill="#FED81D"/>
<path d="M105.83 336.77C106.48 381.67 109.32 390.98 100.13 406.52C90.9403 422.06 49.5203 456.99 49.5203 456.99L32.0503 443.9C32.0503 443.9 53.0503 420.6 62.8603 408.18C72.6703 395.76 74.1203 390.71 73.8603 383.07C73.6003 375.43 66.3503 317.32 66.3503 317.32L105.83 336.77Z" fill="#683F1D"/>
<path d="M220.65 398.66C220.65 398.66 236.18 408.11 239.26 409.72C242.34 411.33 242.77 415.44 242.77 415.44H205.27C205.27 415.44 203.49 406.05 204.44 400.44L220.65 398.66Z" fill="#FED81D"/>
<path d="M220.65 398.66L201.7 402.41L177.52 337.49C171.89 322.43 165.83 309.02 178.24 304.29C192.15 304.77 198.78 309.2 204.46 325.11C210.42 341.9 220.65 398.66 220.65 398.66Z" fill="#683F1D"/>
<path d="M177.52 337.49C177.52 337.49 122.03 342.54 104.92 343.18C87.8103 343.82 71.1403 341.9 63.5203 315.03L107.17 299.84L112.76 304.24C137.71 304.64 160.36 304.16 175.9 304.24C176.71 304.24 177.49 304.24 178.25 304.29C200.93 308.07 192.35 332.95 177.52 337.49Z" fill="#683F1D"/>
<path d="M102.04 343.25C89.5204 343.47 77.5204 341.62 69.4004 328.9" stroke="#7F542D" stroke-width="0.75" stroke-linecap="round" stroke-linejoin="round"/>
<path d="M138.9 271.05L126.29 281.84L115.69 304.39C115.69 304.39 99.7603 303.83 90.2903 310.65C80.8203 317.47 67.0803 320.41 61.7703 320.32C61.3879 309.371 62.1487 298.412 64.0403 287.62C67.1703 270.38 74.8503 244.1 74.8503 244.1C74.7603 243.28 74.7203 242.46 74.6903 241.66C74.2603 227.94 81.5003 217.08 93.3203 217.79C105.83 218.56 118.62 223.19 118.62 223.19C118.62 223.19 132.46 225.38 139.75 229.45C143.06 231.3 145.32 234.45 145.83 239.88C146.45 246.4 144.52 256.22 138.9 271.05Z" fill="#A7CAF0"/>
<path d="M111.05 284.08L106.85 278.28C110.01 276.91 112.64 275.67 113.68 275.17C112.3 268.81 111.02 263.22 109.77 258.47C112.04 258.89 115.23 260.99 116.11 268.98C116.77 275.07 125.66 265.35 128.92 273.28C132.18 281.21 111.05 284.08 111.05 284.08Z" fill="#83ADDF"/>
<path d="M137.7 247.65C135.97 249.46 133.5 259.28 129.94 270.92" stroke="#83ADDF" stroke-width="0.75" stroke-linecap="round" stroke-linejoin="round"/>
<path d="M186.57 256.66C186.42 260.16 180.21 259.28 180.21 259.28C181.79 262.06 177.21 263.87 174.95 264C173.433 264.041 171.923 263.79 170.5 263.26C170.5 263.26 148.27 283.03 139.96 290.47C131.65 297.91 116.25 309.47 105.84 308.05C95.4304 306.63 92.5404 296.05 87.9104 284.05C90.3749 283.853 92.8136 283.411 95.1904 282.73C101.34 281.02 111.4 276.28 113.68 275.19C113.97 276.55 114.28 277.96 114.58 279.4C133.22 268.88 153.96 255.4 155.7 253.73C157.44 252.06 164.81 246.3 166.99 243.94C169.17 241.58 173.29 243.77 171.63 245.08C169.97 246.39 169.17 247.69 175.85 251.81C184.26 256.99 186.74 252.46 186.57 256.66Z" fill="#FEBD9D"/>
<path d="M145.83 239.9C142.37 237.72 138.13 236.82 133.83 240.3C123.63 248.52 113.83 248.13 100.02 232.22C86.5903 216.76 75.3403 240.32 74.7003 241.68C74.2703 227.96 81.5103 217.1 93.3303 217.81C105.84 218.58 118.63 223.21 118.63 223.21C118.63 223.21 132.47 225.4 139.76 229.47C143.06 231.3 145.32 234.45 145.83 239.9Z" fill="#A7CAF0"/>
<path d="M115.62 239.44C115.62 239.858 115.744 240.266 115.976 240.613C116.208 240.96 116.537 241.23 116.923 241.39C117.308 241.55 117.733 241.591 118.142 241.51C118.551 241.428 118.927 241.227 119.222 240.932C119.517 240.637 119.718 240.261 119.8 239.852C119.881 239.443 119.839 239.019 119.68 238.633C119.52 238.247 119.25 237.918 118.903 237.686C118.556 237.454 118.148 237.33 117.73 237.33C117.171 237.33 116.634 237.553 116.238 237.948C115.843 238.344 115.62 238.881 115.62 239.44Z" fill="white"/>
<path d="M74.6604 243.9C74.6604 243.9 82.1604 278.11 84.6604 283.9C85.7308 284.048 86.8146 284.072 87.8904 283.97C90.3549 283.773 92.7936 283.331 95.1704 282.65C99.1464 281.42 103.041 279.941 106.83 278.22C109.99 276.85 112.62 275.61 113.66 275.11C112.28 268.75 111 263.16 109.75 258.41C106.89 247.54 104.17 241.13 100.64 240.13" stroke="#83ADDF" stroke-width="0.75" stroke-linecap="round" stroke-linejoin="round"/>
<path d="M114.58 279.38C109.16 282.83 108.3 285.65 108.3 285.65" stroke="#F4A789" stroke-width="0.75" stroke-linecap="round" stroke-linejoin="round"/>
<path d="M180.2 259.28C176.2 258.93 174.34 258.64 174.34 258.64" stroke="#F4A789" stroke-width="0.75" stroke-linecap="round" stroke-linejoin="round"/>
<path d="M170.52 263.25C171.945 263.785 173.459 264.04 174.98 264C177.26 263.87 181.82 262.07 180.23 259.28C180.23 259.28 186.45 260.15 186.6 256.66C186.77 252.46 184.28 256.99 175.88 251.79C169.2 247.67 170 246.39 171.66 245.07C173.32 243.75 169.21 241.56 167.02 243.92C165.9 245.13 163.43 247.24 161.02 249.22" stroke="#F4A789" stroke-width="0.75" stroke-linecap="round" stroke-linejoin="round"/>
<path d="M159.17 246.46C161.59 243.08 164.91 245.46 164.98 248.29C165.05 251.12 159.39 254.79 157.78 253.29C156.17 251.79 157.81 248.35 159.17 246.46Z" fill="#B25E47"/>
<path d="M165.52 266.35C162.95 265.07 161.13 267.01 163.27 269.35C165.41 271.69 169.33 270.63 170.07 268.3L165.52 266.35Z" fill="#B25E47"/>
<path d="M165.52 266.35C162.95 265.07 161.13 267.01 163.27 269.35C165.41 271.69 169.33 270.63 170.07 268.3L165.52 266.35Z" stroke="#914839" stroke-width="0.75" stroke-linecap="round" stroke-linejoin="round"/>
<path d="M168.81 263.9C166.12 263.4 163.87 264.29 164.72 266.43C165.57 268.57 171.72 270.98 174.34 266.43L168.81 263.9Z" fill="#B25E47"/>
<path d="M168.81 263.9C166.12 263.4 163.87 264.29 164.72 266.43C165.57 268.57 171.72 270.98 174.34 266.43L168.81 263.9Z" stroke="#914839" stroke-width="0.75" stroke-linecap="round" stroke-linejoin="round"/>
<path d="M159.17 246.46C161.59 243.08 164.91 245.46 164.98 248.29C165.05 251.12 159.39 254.79 157.78 253.29C156.17 251.79 157.81 248.35 159.17 246.46Z" stroke="#914839" stroke-width="0.75" stroke-linecap="round" stroke-linejoin="round"/>
<path d="M168.69 264.9C166.89 263.1 167.95 260.5 170.39 261.12C172.83 261.74 173.33 263.19 177.53 263.44C180.32 263.56 173.52 269.74 168.69 264.9Z" fill="#B25E47"/>
<path d="M168.69 264.9C166.89 263.1 167.95 260.5 170.39 261.12C172.83 261.74 173.33 263.19 177.53 263.44C180.32 263.56 173.52 269.74 168.69 264.9Z" stroke="#914839" stroke-width="0.75" stroke-linecap="round" stroke-linejoin="round"/>
<path d="M126.84 202.59L123.38 203.9L118.08 205.85C116.355 204.116 114.828 202.194 113.53 200.12C111.46 196.75 110.42 193.17 113.83 192.12C109.88 192.12 109.42 188.78 112.65 188.12C108.18 188.01 109.87 183.6 114.49 184.12C114.49 184.12 111.63 180.25 119.18 179.45C124.51 178.89 128.66 180.22 131.18 182.05L131.38 182.21C132.407 182.925 133.214 183.912 133.71 185.06C134.81 187.96 126.84 202.59 126.84 202.59Z" fill="#BF8228"/>
<path d="M126.84 202.59L123.38 203.9L118.08 205.85C116.355 204.116 114.828 202.194 113.53 200.12C115.44 198.07 118.53 198.45 119.01 197.02C119.71 195.02 114.39 185.47 123.14 185.69C128.07 185.81 130.35 183.89 131.39 182.19C132.417 182.905 133.224 183.892 133.72 185.04C134.81 187.96 126.84 202.59 126.84 202.59Z" fill="#BF8228"/>
<path d="M114.52 184.07C114.52 184.07 121.64 184.38 123.85 184.74C126.85 185.23 127.27 186.4 127.27 186.4" stroke="#FCC71F" stroke-width="0.75" stroke-linecap="round" stroke-linejoin="round"/>
<path d="M121.5 190.31L118.71 190.02" stroke="#FCC71F" stroke-width="0.75" stroke-linecap="round" stroke-linejoin="round"/>
<path d="M112.65 188.02C114.73 188.19 116.57 188.52 116.57 188.52" stroke="#FCC71F" stroke-width="0.75" stroke-linecap="round" stroke-linejoin="round"/>
<path d="M113.83 192.07C114.94 192.057 116.05 192.123 117.15 192.27" stroke="#FCC71F" stroke-width="0.75" stroke-linecap="round" stroke-linejoin="round"/>
<path d="M123.23 196.99C119.87 196.87 115.53 196.88 115.14 196.21" stroke="#FCC71F" stroke-width="0.75" stroke-linecap="round" stroke-linejoin="round"/>
<path d="M130.52 215.76C129.861 217.73 129.303 219.733 128.85 221.76C128.77 222.114 128.69 222.474 128.61 222.84C127.09 227.36 125.23 232.73 119.05 231.96C115.13 231.48 110.61 228.82 108.36 222.3C107.49 219.77 109.93 217.35 110.24 216.89C112.64 213.41 114.88 209.8 115.64 207.1C115.64 207.1 113.77 204.75 115.06 202.29C115.254 201.931 115.489 201.596 115.76 201.29C117.81 199.01 121.62 200.06 122.89 201.82C123.203 201.598 123.488 201.339 123.74 201.05C123.977 200.847 124.17 200.598 124.309 200.318C124.448 200.039 124.529 199.734 124.547 199.423C124.566 199.111 124.522 198.799 124.418 198.505C124.313 198.211 124.151 197.941 123.94 197.71C123.707 197.444 123.477 197.194 123.25 196.96L123.16 196.87C121.58 195.2 120.24 193.87 120.92 191.58C121.049 191.118 121.252 190.679 121.52 190.28C122.57 188.8 124.52 188.61 127.44 189C131.11 189.48 132.95 188.43 133.74 185C133.84 185.15 134.64 186.44 135.74 188.49C136.06 189.08 136.4 189.73 136.74 190.44C137.56 192.06 138.46 193.98 139.3 196.06C139.634 196.854 139.944 197.664 140.23 198.49C140.544 199.348 140.808 200.222 141.02 201.11C142.82 208.41 141.68 217.27 130.52 215.76Z" fill="#FEBD9D"/>
<path d="M129.34 200.52C128.89 201.82 126.9 202.31 124.87 201.62C124.467 201.485 124.081 201.304 123.72 201.08C123.957 200.877 124.15 200.628 124.289 200.348C124.427 200.069 124.508 199.764 124.527 199.453C124.546 199.141 124.502 198.829 124.397 198.535C124.293 198.241 124.131 197.971 123.92 197.74C123.66 197.44 123.4 197.16 123.14 196.9C124.215 196.489 125.405 196.489 126.48 196.9C128.52 197.61 129.79 199.22 129.34 200.52Z" fill="#F4A789"/>
<path d="M128.73 196.21C128.73 196.408 128.789 196.602 128.899 196.766C129.009 196.93 129.165 197.059 129.348 197.134C129.53 197.21 129.731 197.23 129.925 197.191C130.119 197.153 130.297 197.057 130.437 196.918C130.577 196.778 130.672 196.599 130.711 196.406C130.75 196.212 130.73 196.01 130.654 195.828C130.578 195.645 130.45 195.489 130.286 195.379C130.121 195.269 129.928 195.21 129.73 195.21C129.465 195.21 129.211 195.316 129.023 195.503C128.836 195.691 128.73 195.945 128.73 196.21Z" fill="#683F1D"/>
<path d="M136.06 195.26C136.624 195.26 137.08 194.804 137.08 194.24C137.08 193.677 136.624 193.22 136.06 193.22C135.497 193.22 135.04 193.677 135.04 194.24C135.04 194.804 135.497 195.26 136.06 195.26Z" fill="#683F1D"/>
<path d="M130.52 215.76C129.861 217.73 129.303 219.733 128.85 221.76C120.47 220.03 123.96 211.99 123.96 211.99C123.96 211.99 128.07 215.11 130.52 215.76Z" fill="#F4A789"/>
<path d="M115.62 207.11C117.15 209.26 121.08 209.2 122.41 208.11" stroke="#F4A789" stroke-width="0.75" stroke-linecap="round" stroke-linejoin="round"/>
<path d="M117.15 204.34C118.78 202.42 121.01 203.34 122.25 205.61" stroke="#F4A789" stroke-width="0.75" stroke-linecap="round" stroke-linejoin="round"/>
<path d="M120.82 206.7C118.16 206.63 119.01 203.47 121.5 204.52" stroke="#F4A789" stroke-width="0.75" stroke-linecap="round" stroke-linejoin="round"/>
<path d="M130.75 201.12C131.8 202.92 132.95 203.83 135.5 203.29" stroke="#F4A789" stroke-width="0.75" stroke-linecap="round" stroke-linejoin="round"/>
<path d="M133.32 191.63C132.97 193.85 132.74 195.78 135.1 196.87C137.46 197.96 137 200.12 134.79 200.78" stroke="#F4A789" stroke-width="0.75" stroke-linecap="round" stroke-linejoin="round"/>
<path d="M125.01 192.9C125.9 194.1 130.47 191.97 129.65 190.36C129.14 189.35 123.44 190.75 125.01 192.9Z" fill="#BF8228"/>
<path d="M136.74 190.47C135.54 190.97 133.11 190.61 133.11 189.88C133.11 189.15 134.53 188.56 135.73 188.52C136.05 189.11 136.39 189.76 136.74 190.47Z" fill="#BF8228"/>
<path d="M141.02 201.14C140.644 201.391 140.204 201.529 139.753 201.538C139.301 201.547 138.856 201.426 138.47 201.19C137.39 200.36 137.55 198.31 138.85 196.6C139 196.42 139.15 196.24 139.3 196.09C139.634 196.884 139.944 197.694 140.23 198.52C140.544 199.378 140.808 200.252 141.02 201.14Z" fill="#F4A789"/>
<path d="M110.22 216.9C107.71 216.35 104.46 217.54 104.09 219.11C103.72 220.68 103.3 233.76 106.22 233.8C109.14 233.84 114.01 227.89 116.55 232.58C119.7 238.39 120.69 230.73 124.74 234.66C126.17 236.05 127.89 238.86 129.66 236.66C131.43 234.46 132.75 226.66 132.2 225.38C131.65 224.1 130.29 222.53 128.57 222.85C127.41 223.06 125.57 231.05 119.36 231.38C118.08 231.45 109.44 222.38 108.92 220.53C108.4 218.68 110.22 216.9 110.22 216.9Z" fill="white"/>
</svg>
